%TF.GenerationSoftware,KiCad,Pcbnew,5.1.8-db9833491~87~ubuntu20.04.1*%
%TF.CreationDate,2020-11-22T18:04:31+08:00*%
%TF.ProjectId,mobo,6d6f626f-2e6b-4696-9361-645f70636258,rev?*%
%TF.SameCoordinates,Original*%
%TF.FileFunction,Copper,L1,Top*%
%TF.FilePolarity,Positive*%
%FSLAX46Y46*%
G04 Gerber Fmt 4.6, Leading zero omitted, Abs format (unit mm)*
G04 Created by KiCad (PCBNEW 5.1.8-db9833491~87~ubuntu20.04.1) date 2020-11-22 18:04:31*
%MOMM*%
%LPD*%
G01*
G04 APERTURE LIST*
%TA.AperFunction,ComponentPad*%
%ADD10O,1.700000X1.700000*%
%TD*%
%TA.AperFunction,ComponentPad*%
%ADD11R,1.700000X1.700000*%
%TD*%
%TA.AperFunction,ComponentPad*%
%ADD12C,2.000000*%
%TD*%
%TA.AperFunction,ComponentPad*%
%ADD13O,1.350000X1.350000*%
%TD*%
%TA.AperFunction,ComponentPad*%
%ADD14R,1.350000X1.350000*%
%TD*%
%TA.AperFunction,SMDPad,CuDef*%
%ADD15R,2.200000X2.800000*%
%TD*%
%TA.AperFunction,SMDPad,CuDef*%
%ADD16R,2.800000X2.800000*%
%TD*%
%TA.AperFunction,ComponentPad*%
%ADD17C,1.600000*%
%TD*%
%TA.AperFunction,ComponentPad*%
%ADD18R,1.500000X1.600000*%
%TD*%
%TA.AperFunction,ComponentPad*%
%ADD19C,3.000000*%
%TD*%
%TA.AperFunction,ComponentPad*%
%ADD20C,1.700000*%
%TD*%
%TA.AperFunction,ComponentPad*%
%ADD21C,4.000000*%
%TD*%
%TA.AperFunction,ComponentPad*%
%ADD22C,1.300000*%
%TD*%
%TA.AperFunction,ComponentPad*%
%ADD23R,1.300000X1.300000*%
%TD*%
%TA.AperFunction,ComponentPad*%
%ADD24R,1.600000X1.600000*%
%TD*%
%TA.AperFunction,ViaPad*%
%ADD25C,0.600000*%
%TD*%
%TA.AperFunction,ViaPad*%
%ADD26C,1.000000*%
%TD*%
%TA.AperFunction,Conductor*%
%ADD27C,0.203200*%
%TD*%
%TA.AperFunction,Conductor*%
%ADD28C,0.200000*%
%TD*%
%TA.AperFunction,Conductor*%
%ADD29C,0.304800*%
%TD*%
%TA.AperFunction,Conductor*%
%ADD30C,0.508000*%
%TD*%
G04 APERTURE END LIST*
%TO.P,R3,2*%
%TO.N,GND*%
%TA.AperFunction,SMDPad,CuDef*%
G36*
G01*
X70300000Y-16775000D02*
X70300000Y-18025000D01*
G75*
G02*
X70050000Y-18275000I-250000J0D01*
G01*
X69250000Y-18275000D01*
G75*
G02*
X69000000Y-18025000I0J250000D01*
G01*
X69000000Y-16775000D01*
G75*
G02*
X69250000Y-16525000I250000J0D01*
G01*
X70050000Y-16525000D01*
G75*
G02*
X70300000Y-16775000I0J-250000D01*
G01*
G37*
%TD.AperFunction*%
%TO.P,R3,1*%
%TO.N,Net-(D3-Pad1)*%
%TA.AperFunction,SMDPad,CuDef*%
G36*
G01*
X73400000Y-16775000D02*
X73400000Y-18025000D01*
G75*
G02*
X73150000Y-18275000I-250000J0D01*
G01*
X72350000Y-18275000D01*
G75*
G02*
X72100000Y-18025000I0J250000D01*
G01*
X72100000Y-16775000D01*
G75*
G02*
X72350000Y-16525000I250000J0D01*
G01*
X73150000Y-16525000D01*
G75*
G02*
X73400000Y-16775000I0J-250000D01*
G01*
G37*
%TD.AperFunction*%
%TD*%
%TO.P,D3,2*%
%TO.N,/LED_B*%
%TA.AperFunction,SMDPad,CuDef*%
G36*
G01*
X70435000Y-19375000D02*
X70435000Y-20625000D01*
G75*
G02*
X70185000Y-20875000I-250000J0D01*
G01*
X69260000Y-20875000D01*
G75*
G02*
X69010000Y-20625000I0J250000D01*
G01*
X69010000Y-19375000D01*
G75*
G02*
X69260000Y-19125000I250000J0D01*
G01*
X70185000Y-19125000D01*
G75*
G02*
X70435000Y-19375000I0J-250000D01*
G01*
G37*
%TD.AperFunction*%
%TO.P,D3,1*%
%TO.N,Net-(D3-Pad1)*%
%TA.AperFunction,SMDPad,CuDef*%
G36*
G01*
X73410000Y-19375000D02*
X73410000Y-20625000D01*
G75*
G02*
X73160000Y-20875000I-250000J0D01*
G01*
X72235000Y-20875000D01*
G75*
G02*
X71985000Y-20625000I0J250000D01*
G01*
X71985000Y-19375000D01*
G75*
G02*
X72235000Y-19125000I250000J0D01*
G01*
X73160000Y-19125000D01*
G75*
G02*
X73410000Y-19375000I0J-250000D01*
G01*
G37*
%TD.AperFunction*%
%TD*%
%TO.P,R2,2*%
%TO.N,GND*%
%TA.AperFunction,SMDPad,CuDef*%
G36*
G01*
X70350000Y-24375000D02*
X70350000Y-25625000D01*
G75*
G02*
X70100000Y-25875000I-250000J0D01*
G01*
X69300000Y-25875000D01*
G75*
G02*
X69050000Y-25625000I0J250000D01*
G01*
X69050000Y-24375000D01*
G75*
G02*
X69300000Y-24125000I250000J0D01*
G01*
X70100000Y-24125000D01*
G75*
G02*
X70350000Y-24375000I0J-250000D01*
G01*
G37*
%TD.AperFunction*%
%TO.P,R2,1*%
%TO.N,Net-(D2-Pad1)*%
%TA.AperFunction,SMDPad,CuDef*%
G36*
G01*
X73450000Y-24375000D02*
X73450000Y-25625000D01*
G75*
G02*
X73200000Y-25875000I-250000J0D01*
G01*
X72400000Y-25875000D01*
G75*
G02*
X72150000Y-25625000I0J250000D01*
G01*
X72150000Y-24375000D01*
G75*
G02*
X72400000Y-24125000I250000J0D01*
G01*
X73200000Y-24125000D01*
G75*
G02*
X73450000Y-24375000I0J-250000D01*
G01*
G37*
%TD.AperFunction*%
%TD*%
%TO.P,R1,2*%
%TO.N,GND*%
%TA.AperFunction,SMDPad,CuDef*%
G36*
G01*
X70300000Y-32075000D02*
X70300000Y-33325000D01*
G75*
G02*
X70050000Y-33575000I-250000J0D01*
G01*
X69250000Y-33575000D01*
G75*
G02*
X69000000Y-33325000I0J250000D01*
G01*
X69000000Y-32075000D01*
G75*
G02*
X69250000Y-31825000I250000J0D01*
G01*
X70050000Y-31825000D01*
G75*
G02*
X70300000Y-32075000I0J-250000D01*
G01*
G37*
%TD.AperFunction*%
%TO.P,R1,1*%
%TO.N,Net-(D1-Pad1)*%
%TA.AperFunction,SMDPad,CuDef*%
G36*
G01*
X73400000Y-32075000D02*
X73400000Y-33325000D01*
G75*
G02*
X73150000Y-33575000I-250000J0D01*
G01*
X72350000Y-33575000D01*
G75*
G02*
X72100000Y-33325000I0J250000D01*
G01*
X72100000Y-32075000D01*
G75*
G02*
X72350000Y-31825000I250000J0D01*
G01*
X73150000Y-31825000D01*
G75*
G02*
X73400000Y-32075000I0J-250000D01*
G01*
G37*
%TD.AperFunction*%
%TD*%
%TO.P,D2,2*%
%TO.N,/LED_G*%
%TA.AperFunction,SMDPad,CuDef*%
G36*
G01*
X70425000Y-26985000D02*
X70425000Y-28235000D01*
G75*
G02*
X70175000Y-28485000I-250000J0D01*
G01*
X69250000Y-28485000D01*
G75*
G02*
X69000000Y-28235000I0J250000D01*
G01*
X69000000Y-26985000D01*
G75*
G02*
X69250000Y-26735000I250000J0D01*
G01*
X70175000Y-26735000D01*
G75*
G02*
X70425000Y-26985000I0J-250000D01*
G01*
G37*
%TD.AperFunction*%
%TO.P,D2,1*%
%TO.N,Net-(D2-Pad1)*%
%TA.AperFunction,SMDPad,CuDef*%
G36*
G01*
X73400000Y-26985000D02*
X73400000Y-28235000D01*
G75*
G02*
X73150000Y-28485000I-250000J0D01*
G01*
X72225000Y-28485000D01*
G75*
G02*
X71975000Y-28235000I0J250000D01*
G01*
X71975000Y-26985000D01*
G75*
G02*
X72225000Y-26735000I250000J0D01*
G01*
X73150000Y-26735000D01*
G75*
G02*
X73400000Y-26985000I0J-250000D01*
G01*
G37*
%TD.AperFunction*%
%TD*%
%TO.P,D1,2*%
%TO.N,/LED_R*%
%TA.AperFunction,SMDPad,CuDef*%
G36*
G01*
X70525000Y-34675000D02*
X70525000Y-35925000D01*
G75*
G02*
X70275000Y-36175000I-250000J0D01*
G01*
X69350000Y-36175000D01*
G75*
G02*
X69100000Y-35925000I0J250000D01*
G01*
X69100000Y-34675000D01*
G75*
G02*
X69350000Y-34425000I250000J0D01*
G01*
X70275000Y-34425000D01*
G75*
G02*
X70525000Y-34675000I0J-250000D01*
G01*
G37*
%TD.AperFunction*%
%TO.P,D1,1*%
%TO.N,Net-(D1-Pad1)*%
%TA.AperFunction,SMDPad,CuDef*%
G36*
G01*
X73500000Y-34675000D02*
X73500000Y-35925000D01*
G75*
G02*
X73250000Y-36175000I-250000J0D01*
G01*
X72325000Y-36175000D01*
G75*
G02*
X72075000Y-35925000I0J250000D01*
G01*
X72075000Y-34675000D01*
G75*
G02*
X72325000Y-34425000I250000J0D01*
G01*
X73250000Y-34425000D01*
G75*
G02*
X73500000Y-34675000I0J-250000D01*
G01*
G37*
%TD.AperFunction*%
%TD*%
D10*
%TO.P,J6,17*%
%TO.N,GND*%
X66840000Y-105300000D03*
%TO.P,J6,16*%
%TO.N,/GPIO30*%
X64300000Y-105300000D03*
%TO.P,J6,15*%
%TO.N,/GPIO29*%
X61760000Y-105300000D03*
%TO.P,J6,14*%
%TO.N,/GPIO28*%
X59220000Y-105300000D03*
%TO.P,J6,13*%
%TO.N,/GPIO27*%
X56680000Y-105300000D03*
%TO.P,J6,12*%
%TO.N,/GPIO26*%
X54140000Y-105300000D03*
%TO.P,J6,11*%
%TO.N,/GPIO25*%
X51600000Y-105300000D03*
%TO.P,J6,10*%
%TO.N,/GPIO24*%
X49060000Y-105300000D03*
%TO.P,J6,9*%
%TO.N,/3V3_GPIO*%
X46520000Y-105300000D03*
%TO.P,J6,8*%
%TO.N,/GPIO9*%
X43980000Y-105300000D03*
%TO.P,J6,7*%
%TO.N,/GPIO7*%
X41440000Y-105300000D03*
%TO.P,J6,6*%
%TO.N,/GPIO6*%
X38900000Y-105300000D03*
%TO.P,J6,5*%
%TO.N,/GPIO4*%
X36360000Y-105300000D03*
%TO.P,J6,4*%
%TO.N,/GPIO3*%
X33820000Y-105300000D03*
%TO.P,J6,3*%
%TO.N,/GPIO2*%
X31280000Y-105300000D03*
%TO.P,J6,2*%
%TO.N,GND*%
X28740000Y-105300000D03*
D11*
%TO.P,J6,1*%
%TO.N,+5V*%
X26200000Y-105300000D03*
%TD*%
D12*
%TO.P,SW4,1*%
%TO.N,/SW4*%
X74000000Y-46500000D03*
%TO.P,SW4,2*%
%TO.N,GND*%
X69500000Y-46500000D03*
%TO.P,SW4,1*%
%TO.N,/SW4*%
X74000000Y-40000000D03*
%TO.P,SW4,2*%
%TO.N,GND*%
X69500000Y-40000000D03*
%TD*%
D10*
%TO.P,J5,5*%
%TO.N,GND*%
X25940000Y-40560000D03*
%TO.P,J5,4*%
%TO.N,/PIT_SEL*%
X25940000Y-43100000D03*
%TO.P,J5,3*%
%TO.N,/PIT_YOUT*%
X25940000Y-45640000D03*
%TO.P,J5,2*%
%TO.N,/PIT_XOUT*%
X25940000Y-48180000D03*
D11*
%TO.P,J5,1*%
%TO.N,+3V3*%
X25940000Y-50720000D03*
%TD*%
D13*
%TO.P,J4,4*%
%TO.N,GND*%
X23400000Y-56100000D03*
%TO.P,J4,3*%
%TO.N,+5V*%
X23400000Y-58100000D03*
%TO.P,J4,2*%
%TO.N,/LCD_SDA*%
X23400000Y-60100000D03*
D14*
%TO.P,J4,1*%
%TO.N,/LCD_SCL*%
X23400000Y-62100000D03*
%TD*%
D12*
%TO.P,SW3,1*%
%TO.N,/SW3*%
X74000000Y-57500000D03*
%TO.P,SW3,2*%
%TO.N,GND*%
X69500000Y-57500000D03*
%TO.P,SW3,1*%
%TO.N,/SW3*%
X74000000Y-51000000D03*
%TO.P,SW3,2*%
%TO.N,GND*%
X69500000Y-51000000D03*
%TD*%
%TO.P,SW2,1*%
%TO.N,/SW2*%
X74000000Y-68500000D03*
%TO.P,SW2,2*%
%TO.N,GND*%
X69500000Y-68500000D03*
%TO.P,SW2,1*%
%TO.N,/SW2*%
X74000000Y-62000000D03*
%TO.P,SW2,2*%
%TO.N,GND*%
X69500000Y-62000000D03*
%TD*%
%TO.P,SW1,1*%
%TO.N,/SW1*%
X74000000Y-79500000D03*
%TO.P,SW1,2*%
%TO.N,GND*%
X69500000Y-79500000D03*
%TO.P,SW1,1*%
%TO.N,/SW1*%
X74000000Y-73000000D03*
%TO.P,SW1,2*%
%TO.N,GND*%
X69500000Y-73000000D03*
%TD*%
D15*
%TO.P,J3,R*%
%TO.N,/LINEIN_R*%
X21900000Y-28000000D03*
%TO.P,J3,S*%
%TO.N,GNDA*%
X19900000Y-35400000D03*
D16*
%TO.P,J3,T*%
%TO.N,/LINEIN_L*%
X29300000Y-35400000D03*
%TD*%
D15*
%TO.P,J2,R*%
%TO.N,/LINEOUT_R*%
X21800000Y-15700000D03*
%TO.P,J2,S*%
%TO.N,GNDA*%
X19800000Y-23100000D03*
D16*
%TO.P,J2,T*%
%TO.N,/LINEOUT_L*%
X29200000Y-23100000D03*
%TD*%
D17*
%TO.P,J1,4*%
%TO.N,GND*%
X27700000Y-76900000D03*
%TO.P,J1,3*%
%TO.N,/USBH_DP*%
X27700000Y-74400000D03*
%TO.P,J1,2*%
%TO.N,/USBH_DN*%
X27700000Y-72400000D03*
D18*
%TO.P,J1,1*%
%TO.N,+5V*%
X27700000Y-69900000D03*
D19*
%TO.P,J1,5*%
%TO.N,GND*%
X24990000Y-79970000D03*
X24990000Y-66830000D03*
%TD*%
D20*
%TO.P,U2,1*%
%TO.N,/LINEIN_R*%
X38370000Y-23950000D03*
%TO.P,U2,2*%
%TO.N,/LINEIN_L*%
X38370000Y-26490000D03*
%TO.P,U2,3*%
%TO.N,Net-(U2-Pad3)*%
X38370000Y-29030000D03*
%TO.P,U2,4*%
%TO.N,GNDA*%
X38370000Y-31570000D03*
%TO.P,U2,5*%
%TO.N,Net-(U2-Pad5)*%
X38370000Y-34110000D03*
%TO.P,U2,6*%
%TO.N,Net-(U2-Pad6)*%
X38370000Y-36650000D03*
%TO.P,U2,7*%
%TO.N,Net-(U2-Pad7)*%
X38370000Y-39190000D03*
%TO.P,U2,8*%
%TO.N,Net-(U2-Pad8)*%
X38370000Y-41730000D03*
%TO.P,U2,9*%
%TO.N,Net-(U2-Pad9)*%
X38370000Y-44270000D03*
%TO.P,U2,10*%
%TO.N,/I2S_LRCLK*%
X38370000Y-46810000D03*
%TO.P,U2,11*%
%TO.N,Net-(U2-Pad11)*%
X38370000Y-49350000D03*
%TO.P,U2,12*%
%TO.N,/I2S_SCK*%
X38370000Y-51890000D03*
%TO.P,U2,13*%
%TO.N,/I2S_DATA*%
X38370000Y-54430000D03*
%TO.P,U2,14*%
%TO.N,Net-(U2-Pad14)*%
X38370000Y-56970000D03*
%TO.P,U2,15*%
%TO.N,/MIDI_TX*%
X38370000Y-59510000D03*
%TO.P,U2,16*%
%TO.N,Net-(U2-Pad16)*%
X38370000Y-62050000D03*
%TO.P,U2,32*%
%TO.N,/LINEOUT_R*%
X61230000Y-23950000D03*
%TO.P,U2,31*%
%TO.N,/LINEOUT_L*%
X61230000Y-26490000D03*
%TO.P,U2,30*%
%TO.N,GNDA*%
X61230000Y-29030000D03*
%TO.P,U2,29*%
X61230000Y-31570000D03*
%TO.P,U2,28*%
%TO.N,GND*%
X61230000Y-34110000D03*
%TO.P,U2,27*%
%TO.N,/VS_DREQ*%
X61230000Y-36650000D03*
%TO.P,U2,26*%
%TO.N,+5V*%
X61230000Y-39190000D03*
%TO.P,U2,25*%
%TO.N,Net-(U2-Pad25)*%
X61230000Y-41730000D03*
%TO.P,U2,24*%
%TO.N,GND*%
X61230000Y-44270000D03*
%TO.P,U2,23*%
%TO.N,/SPI_MISO*%
X61230000Y-46810000D03*
%TO.P,U2,22*%
%TO.N,/SPI_MOSI*%
X61230000Y-49350000D03*
%TO.P,U2,21*%
%TO.N,/SPI_SCK*%
X61230000Y-51890000D03*
%TO.P,U2,20*%
%TO.N,/VS_RST*%
X61230000Y-54430000D03*
%TO.P,U2,19*%
%TO.N,/SPI_CS*%
X61230000Y-56970000D03*
%TO.P,U2,18*%
%TO.N,/SPI_SDCS*%
X61230000Y-59510000D03*
%TO.P,U2,17*%
%TO.N,/SPI_XDCS*%
X61230000Y-62050000D03*
D21*
%TO.P,U2,M1*%
%TO.N,N/C*%
X39132000Y-17727000D03*
%TO.P,U2,M2*%
X39132000Y-68273000D03*
%TO.P,U2,M4*%
X60468000Y-17727000D03*
%TO.P,U2,M3*%
X60468000Y-68273000D03*
%TD*%
D22*
%TO.P,U1,67*%
%TO.N,Net-(U1-Pad67)*%
X18550000Y-90490000D03*
%TO.P,U1,66*%
%TO.N,Net-(U1-Pad66)*%
X18550000Y-93030000D03*
D17*
%TO.P,U1,54*%
%TO.N,Net-(U1-Pad54)*%
X63540000Y-86680000D03*
%TO.P,U1,53*%
%TO.N,Net-(U1-Pad53)*%
X63540000Y-89220000D03*
%TO.P,U1,52*%
%TO.N,GND*%
X63540000Y-91760000D03*
%TO.P,U1,51*%
%TO.N,Net-(U1-Pad51)*%
X63540000Y-94300000D03*
%TO.P,U1,50*%
%TO.N,Net-(U1-Pad50)*%
X63540000Y-96840000D03*
D22*
%TO.P,U1,62*%
%TO.N,Net-(U1-Pad62)*%
X30790000Y-90578400D03*
%TO.P,U1,63*%
%TO.N,Net-(U1-Pad63)*%
X32790000Y-90578400D03*
%TO.P,U1,64*%
%TO.N,GND*%
X32790000Y-88578400D03*
%TO.P,U1,61*%
%TO.N,Net-(U1-Pad61)*%
X30790000Y-88578400D03*
%TO.P,U1,65*%
%TO.N,Net-(U1-Pad65)*%
X32790000Y-86578400D03*
D23*
%TO.P,U1,60*%
%TO.N,Net-(U1-Pad60)*%
X30790000Y-86578400D03*
D17*
%TO.P,U1,17*%
%TO.N,/GPIO25*%
X58460000Y-99380000D03*
%TO.P,U1,18*%
%TO.N,/GPIO26*%
X61000000Y-99380000D03*
%TO.P,U1,19*%
%TO.N,/GPIO27*%
X63540000Y-99380000D03*
%TO.P,U1,20*%
%TO.N,/GPIO28*%
X66080000Y-99380000D03*
%TO.P,U1,16*%
%TO.N,/GPIO24*%
X55920000Y-99380000D03*
%TO.P,U1,15*%
%TO.N,/3V3_GPIO*%
X53380000Y-99380000D03*
%TO.P,U1,14*%
%TO.N,/SPI_MISO*%
X50840000Y-99380000D03*
%TO.P,U1,21*%
%TO.N,/GPIO29*%
X68620000Y-99380000D03*
%TO.P,U1,22*%
%TO.N,/GPIO30*%
X71160000Y-99380000D03*
%TO.P,U1,23*%
%TO.N,Net-(U1-Pad23)*%
X73700000Y-99380000D03*
%TO.P,U1,24*%
%TO.N,/LED_R*%
X76240000Y-99380000D03*
%TO.P,U1,25*%
%TO.N,/SW4*%
X76240000Y-84140000D03*
%TO.P,U1,26*%
%TO.N,/SW3*%
X73700000Y-84140000D03*
%TO.P,U1,27*%
%TO.N,/SW2*%
X71160000Y-84140000D03*
%TO.P,U1,28*%
%TO.N,/SW1*%
X68620000Y-84140000D03*
%TO.P,U1,29*%
%TO.N,/LED_G*%
X66080000Y-84140000D03*
%TO.P,U1,30*%
%TO.N,/LED_B*%
X63540000Y-84140000D03*
%TO.P,U1,31*%
%TO.N,/SPI_XDCS*%
X61000000Y-84140000D03*
%TO.P,U1,32*%
%TO.N,/SPI_SDCS*%
X58460000Y-84140000D03*
%TO.P,U1,33*%
%TO.N,/VS_RST*%
X55920000Y-84140000D03*
%TO.P,U1,34*%
%TO.N,GND*%
X53380000Y-84140000D03*
%TO.P,U1,13*%
%TO.N,/SPI_MOSI*%
X48300000Y-99380000D03*
%TO.P,U1,12*%
%TO.N,/SPI_CS*%
X45760000Y-99380000D03*
%TO.P,U1,11*%
%TO.N,/GPIO9*%
X43220000Y-99380000D03*
%TO.P,U1,10*%
%TO.N,/I2S_DATA*%
X40680000Y-99380000D03*
%TO.P,U1,9*%
%TO.N,/GPIO7*%
X38140000Y-99380000D03*
%TO.P,U1,8*%
%TO.N,/GPIO6*%
X35600000Y-99380000D03*
%TO.P,U1,7*%
%TO.N,/PIT_SEL*%
X33060000Y-99380000D03*
%TO.P,U1,6*%
%TO.N,/GPIO4*%
X30520000Y-99380000D03*
%TO.P,U1,5*%
%TO.N,/GPIO3*%
X27980000Y-99380000D03*
%TO.P,U1,4*%
%TO.N,/GPIO2*%
X25440000Y-99380000D03*
%TO.P,U1,3*%
%TO.N,Net-(U1-Pad3)*%
X22900000Y-99380000D03*
%TO.P,U1,2*%
%TO.N,Net-(U1-Pad2)*%
X20360000Y-99380000D03*
D24*
%TO.P,U1,1*%
%TO.N,GND*%
X17820000Y-99380000D03*
D17*
%TO.P,U1,35*%
%TO.N,/SPI_SCK*%
X50840000Y-84140000D03*
%TO.P,U1,36*%
%TO.N,/VS_DREQ*%
X48300000Y-84140000D03*
%TO.P,U1,37*%
%TO.N,Net-(U1-Pad37)*%
X45760000Y-84140000D03*
%TO.P,U1,38*%
%TO.N,Net-(U1-Pad38)*%
X43220000Y-84140000D03*
%TO.P,U1,39*%
%TO.N,/MIDI_TX*%
X40680000Y-84140000D03*
%TO.P,U1,40*%
%TO.N,/LCD_SDA*%
X38140000Y-84140000D03*
%TO.P,U1,41*%
%TO.N,/LCD_SCL*%
X35600000Y-84140000D03*
%TO.P,U1,42*%
%TO.N,/I2S_LRCLK*%
X33060000Y-84140000D03*
%TO.P,U1,43*%
%TO.N,/I2S_SCK*%
X30520000Y-84140000D03*
%TO.P,U1,44*%
%TO.N,/PIT_YOUT*%
X27980000Y-84140000D03*
%TO.P,U1,45*%
%TO.N,/PIT_XOUT*%
X25440000Y-84140000D03*
%TO.P,U1,46*%
%TO.N,+3V3*%
X22900000Y-84140000D03*
%TO.P,U1,47*%
%TO.N,GND*%
X20360000Y-84140000D03*
%TO.P,U1,48*%
%TO.N,+5V*%
X17820000Y-84140000D03*
D24*
%TO.P,U1,55*%
X24119200Y-96329200D03*
D17*
%TO.P,U1,56*%
%TO.N,/USBH_DN*%
X26659200Y-96329200D03*
%TO.P,U1,57*%
%TO.N,/USBH_DP*%
X29199200Y-96329200D03*
%TO.P,U1,58*%
%TO.N,GND*%
X31739200Y-96329200D03*
%TO.P,U1,59*%
X34279200Y-96329200D03*
%TO.P,U1,49*%
%TO.N,Net-(U1-Pad49)*%
X20360000Y-86680000D03*
%TD*%
D25*
%TO.N,GND*%
X68100000Y-17300000D03*
X68100000Y-25000000D03*
X68100000Y-32700000D03*
D26*
%TO.N,+5V*%
X38000000Y-64500000D03*
X56500000Y-39500000D03*
D25*
%TO.N,/SPI_CS*%
X50400000Y-97700000D03*
%TO.N,/LCD_SCL*%
X32600000Y-80600000D03*
%TO.N,/LCD_SDA*%
X33300000Y-79900000D03*
%TO.N,/I2S_LRCLK*%
X33100000Y-81600000D03*
%TO.N,/PIT_SEL*%
X31900000Y-61800000D03*
X31800000Y-65200000D03*
%TO.N,/PIT_YOUT*%
X30300000Y-63500000D03*
X30300000Y-60100000D03*
%TO.N,/PIT_XOUT*%
X29300000Y-62800000D03*
X29200000Y-59300000D03*
D26*
%TO.N,+3V3*%
X19500000Y-72500000D03*
D25*
%TO.N,GNDA*%
X22000000Y-35500000D03*
X22000000Y-23500000D03*
%TD*%
D27*
%TO.N,GND*%
X68200000Y-17400000D02*
X68100000Y-17300000D01*
X69650000Y-17400000D02*
X68200000Y-17400000D01*
X69700000Y-25000000D02*
X68100000Y-25000000D01*
X69650000Y-32700000D02*
X68100000Y-32700000D01*
D28*
%TO.N,/USBH_DP*%
X17515742Y-78413092D02*
X17557628Y-78360571D01*
X17471645Y-78539113D02*
X17486594Y-78473618D01*
X17471645Y-78606291D02*
X17471645Y-78539113D01*
X17486594Y-78671786D02*
X17471645Y-78606291D01*
X17515742Y-78732312D02*
X17486594Y-78671786D01*
X17557627Y-78784834D02*
X17515742Y-78732312D01*
X17020315Y-79138067D02*
X17080841Y-79167214D01*
X29199200Y-96329200D02*
X28154200Y-95284200D01*
X16887642Y-79123118D02*
X16954821Y-79123118D01*
X15625000Y-80293200D02*
X16709100Y-79209100D01*
X22293200Y-73625000D02*
X26925000Y-73625000D01*
X16709100Y-79209100D02*
X16761622Y-79167214D01*
X17580465Y-78807672D02*
X17557627Y-78784834D01*
X17622350Y-79179414D02*
X17651497Y-79118888D01*
X18393200Y-88475000D02*
X15625000Y-85706800D01*
X22893200Y-88475000D02*
X18393200Y-88475000D01*
X16822148Y-79138067D02*
X16887642Y-79123118D01*
X28154200Y-95284200D02*
X28154200Y-93736000D01*
X16954821Y-79123118D02*
X17020315Y-79138067D01*
X17467417Y-79302970D02*
X17527943Y-79273822D01*
X28154200Y-93736000D02*
X22893200Y-88475000D01*
X16761622Y-79167214D02*
X16822148Y-79138067D01*
X17486594Y-78473618D02*
X17515742Y-78413092D01*
X17208723Y-79273822D02*
X17269249Y-79302970D01*
X17557628Y-78360571D02*
X22293200Y-73625000D01*
X15625000Y-85706800D02*
X15625000Y-80293200D01*
X17133364Y-79209100D02*
X17156201Y-79231937D01*
X17080841Y-79167214D02*
X17133364Y-79209100D01*
X17666446Y-79053394D02*
X17666446Y-78986215D01*
X17156201Y-79231937D02*
X17208723Y-79273822D01*
X17651497Y-79118888D02*
X17666446Y-79053394D01*
X17651497Y-78920721D02*
X17622350Y-78860195D01*
X17334744Y-79317919D02*
X17401922Y-79317919D01*
X26925000Y-73625000D02*
X27700000Y-74400000D01*
X17401922Y-79317919D02*
X17467417Y-79302970D01*
X17269249Y-79302970D02*
X17334744Y-79317919D01*
X17527943Y-79273822D02*
X17580465Y-79231937D01*
X17580465Y-79231937D02*
X17622350Y-79179414D01*
X17622350Y-78860195D02*
X17580465Y-78807672D01*
X17666446Y-78986215D02*
X17651497Y-78920721D01*
%TO.N,/USBH_DN*%
X27704200Y-95284200D02*
X27704200Y-93922400D01*
X26659200Y-96329200D02*
X27704200Y-95284200D01*
X27704200Y-93922400D02*
X22706800Y-88925000D01*
X22706800Y-88925000D02*
X18206800Y-88925000D01*
X18206800Y-88925000D02*
X15175000Y-85893200D01*
X15175000Y-85893200D02*
X15175000Y-80106800D01*
X26925000Y-73175000D02*
X27700000Y-72400000D01*
X22106800Y-73175000D02*
X26925000Y-73175000D01*
X15175000Y-80106800D02*
X22106800Y-73175000D01*
D29*
%TO.N,+5V*%
X24119200Y-96329200D02*
X24200000Y-96410000D01*
X24119200Y-103219200D02*
X26200000Y-105300000D01*
X24119200Y-96329200D02*
X24119200Y-103219200D01*
D30*
X38000000Y-64500000D02*
X39000000Y-64500000D01*
X39000000Y-64500000D02*
X51000000Y-52500000D01*
X51000000Y-52500000D02*
X51000000Y-45000000D01*
X51000000Y-45000000D02*
X56500000Y-39500000D01*
D27*
%TO.N,/LINEOUT_L*%
X30700000Y-21600000D02*
X29200000Y-23100000D01*
X55400000Y-21600000D02*
X30700000Y-21600000D01*
X60290000Y-26490000D02*
X55400000Y-21600000D01*
X61230000Y-26490000D02*
X60290000Y-26490000D01*
%TO.N,/LINEOUT_R*%
X32700000Y-15700000D02*
X21800000Y-15700000D01*
X37600000Y-20600000D02*
X32700000Y-15700000D01*
X60750000Y-23950000D02*
X57400000Y-20600000D01*
X57400000Y-20600000D02*
X37600000Y-20600000D01*
X61230000Y-23950000D02*
X60750000Y-23950000D01*
%TO.N,/LINEIN_L*%
X29300000Y-35400000D02*
X29300000Y-35100000D01*
X37910000Y-26490000D02*
X38370000Y-26490000D01*
X29300000Y-35100000D02*
X37910000Y-26490000D01*
%TO.N,/LINEIN_R*%
X33900000Y-28000000D02*
X21900000Y-28000000D01*
X37950000Y-23950000D02*
X33900000Y-28000000D01*
X38370000Y-23950000D02*
X37950000Y-23950000D01*
%TO.N,/SPI_MISO*%
X63700000Y-49280000D02*
X61230000Y-46810000D01*
X63700000Y-77200000D02*
X63700000Y-49280000D01*
X62200000Y-78700000D02*
X63700000Y-77200000D01*
X62200000Y-88020000D02*
X62200000Y-78700000D01*
X50840000Y-99380000D02*
X62200000Y-88020000D01*
%TO.N,/SPI_MOSI*%
X53840000Y-56740000D02*
X61230000Y-49350000D01*
X53840000Y-77860000D02*
X53840000Y-56740000D01*
X49500000Y-82200000D02*
X53840000Y-77860000D01*
X49500000Y-98180000D02*
X49500000Y-82200000D01*
X48300000Y-99380000D02*
X49500000Y-98180000D01*
%TO.N,/SPI_CS*%
X57200000Y-90900000D02*
X51400000Y-96700000D01*
X51400000Y-96700000D02*
X50400000Y-97700000D01*
X57200000Y-61000000D02*
X57200000Y-90900000D01*
X61230000Y-56970000D02*
X57200000Y-61000000D01*
%TO.N,/SPI_SCK*%
X55000000Y-58120000D02*
X61230000Y-51890000D01*
X55000000Y-79980000D02*
X55000000Y-58120000D01*
X50840000Y-84140000D02*
X55000000Y-79980000D01*
%TO.N,/SPI_XDCS*%
X63000000Y-76900000D02*
X63000000Y-63820000D01*
X61000000Y-78900000D02*
X63000000Y-76900000D01*
X63000000Y-63820000D02*
X61230000Y-62050000D01*
X61000000Y-84140000D02*
X61000000Y-78900000D01*
%TO.N,/SPI_SDCS*%
X57900000Y-62840000D02*
X61230000Y-59510000D01*
X57900000Y-83580000D02*
X57900000Y-62840000D01*
X58460000Y-84140000D02*
X57900000Y-83580000D01*
%TO.N,/VS_RST*%
X55920000Y-59740000D02*
X55920000Y-84140000D01*
X61230000Y-54430000D02*
X55920000Y-59740000D01*
%TO.N,/VS_DREQ*%
X52790000Y-45090000D02*
X61230000Y-36650000D01*
X52790000Y-76910000D02*
X52790000Y-45090000D01*
X48300000Y-81400000D02*
X52790000Y-76910000D01*
X48300000Y-84140000D02*
X48300000Y-81400000D01*
%TO.N,/LCD_SCL*%
X32600000Y-64700000D02*
X32600000Y-80600000D01*
X30000000Y-62100000D02*
X32600000Y-64700000D01*
X23400000Y-62100000D02*
X30000000Y-62100000D01*
%TO.N,/LCD_SDA*%
X33300000Y-64400000D02*
X33300000Y-79900000D01*
X29000000Y-60100000D02*
X33300000Y-64400000D01*
X23400000Y-60100000D02*
X29000000Y-60100000D01*
%TO.N,/I2S_DATA*%
X36900000Y-85700000D02*
X40680000Y-89480000D01*
X36900000Y-81900000D02*
X36900000Y-85700000D01*
X40680000Y-89480000D02*
X40680000Y-99380000D01*
X35700000Y-80700000D02*
X36900000Y-81900000D01*
X35700000Y-57100000D02*
X35700000Y-80700000D01*
X38370000Y-54430000D02*
X35700000Y-57100000D01*
%TO.N,/I2S_LRCLK*%
X34200000Y-80500000D02*
X33100000Y-81600000D01*
X34200000Y-50980000D02*
X34200000Y-80500000D01*
X38370000Y-46810000D02*
X34200000Y-50980000D01*
%TO.N,/I2S_SCK*%
X35000000Y-55260000D02*
X38370000Y-51890000D01*
X35000000Y-81000000D02*
X35000000Y-55260000D01*
X33520000Y-82480000D02*
X35000000Y-81000000D01*
X32180000Y-82480000D02*
X33520000Y-82480000D01*
X30520000Y-84140000D02*
X32180000Y-82480000D01*
%TO.N,/MIDI_TX*%
X36500000Y-61380000D02*
X38370000Y-59510000D01*
X36500000Y-79960000D02*
X36500000Y-61380000D01*
X40680000Y-84140000D02*
X36500000Y-79960000D01*
%TO.N,/PIT_SEL*%
X31900000Y-49060000D02*
X31900000Y-61800000D01*
X25940000Y-43100000D02*
X31900000Y-49060000D01*
X33060000Y-96240000D02*
X33060000Y-96052486D01*
X33060000Y-99380000D02*
X33060000Y-96240000D01*
X33060000Y-95260000D02*
X33060000Y-96240000D01*
X29300000Y-83400000D02*
X29300000Y-91500000D01*
X31300000Y-81400000D02*
X29300000Y-83400000D01*
X29300000Y-91500000D02*
X33060000Y-95260000D01*
X31300000Y-65700000D02*
X31300000Y-81400000D01*
X31800000Y-65200000D02*
X31300000Y-65700000D01*
%TO.N,/PIT_YOUT*%
X30300000Y-65500000D02*
X30300000Y-63500000D01*
X30300000Y-65300000D02*
X30300000Y-65500000D01*
X30300000Y-50000000D02*
X25940000Y-45640000D01*
X30300000Y-60100000D02*
X30300000Y-50000000D01*
X27980000Y-83520000D02*
X27980000Y-84140000D01*
X30300000Y-81200000D02*
X27980000Y-83520000D01*
X30300000Y-65500000D02*
X30300000Y-81200000D01*
%TO.N,/PIT_XOUT*%
X29300000Y-80280000D02*
X25440000Y-84140000D01*
X29300000Y-66500000D02*
X29300000Y-80280000D01*
X29300000Y-66500000D02*
X29300000Y-62800000D01*
X29200000Y-51440000D02*
X29200000Y-53400000D01*
X25940000Y-48180000D02*
X29200000Y-51440000D01*
X29200000Y-59300000D02*
X29200000Y-53400000D01*
D30*
%TO.N,+3V3*%
X19500000Y-55802000D02*
X19500000Y-72500000D01*
X24582000Y-50720000D02*
X19500000Y-55802000D01*
X25940000Y-50720000D02*
X24582000Y-50720000D01*
D27*
%TO.N,/GPIO29*%
X64060000Y-103000000D02*
X61760000Y-105300000D01*
X65000000Y-103000000D02*
X64060000Y-103000000D01*
X68620000Y-99380000D02*
X65000000Y-103000000D01*
%TO.N,/GPIO28*%
X66080000Y-99380000D02*
X61960000Y-103500000D01*
X61020000Y-103500000D02*
X59220000Y-105300000D01*
X61960000Y-103500000D02*
X61020000Y-103500000D01*
%TO.N,/GPIO27*%
X56680000Y-105020000D02*
X56680000Y-105300000D01*
X58700000Y-103000000D02*
X56680000Y-105020000D01*
X59920000Y-103000000D02*
X58700000Y-103000000D01*
X63540000Y-99380000D02*
X59920000Y-103000000D01*
%TO.N,/GPIO26*%
X54140000Y-105060000D02*
X54140000Y-105300000D01*
X56700000Y-102500000D02*
X54140000Y-105060000D01*
X57880000Y-102500000D02*
X56700000Y-102500000D01*
X61000000Y-99380000D02*
X57880000Y-102500000D01*
%TO.N,/GPIO25*%
X55840000Y-102000000D02*
X54900000Y-102000000D01*
X54900000Y-102000000D02*
X51600000Y-105300000D01*
X58460000Y-99380000D02*
X55840000Y-102000000D01*
%TO.N,/GPIO24*%
X49060000Y-105300000D02*
X49060000Y-105440000D01*
X49060000Y-105240000D02*
X49060000Y-105300000D01*
X52900000Y-101400000D02*
X49060000Y-105240000D01*
X53900000Y-101400000D02*
X52900000Y-101400000D01*
X55920000Y-99380000D02*
X53900000Y-101400000D01*
%TO.N,/GPIO9*%
X43220000Y-104240000D02*
X43980000Y-105000000D01*
X43220000Y-99380000D02*
X43220000Y-104240000D01*
%TO.N,/GPIO7*%
X38140000Y-101700000D02*
X41440000Y-105000000D01*
X38140000Y-99380000D02*
X38140000Y-101700000D01*
%TO.N,/GPIO6*%
X35600000Y-101700000D02*
X38900000Y-105000000D01*
X35600000Y-99380000D02*
X35600000Y-101700000D01*
%TO.N,/GPIO4*%
X36140000Y-105000000D02*
X36360000Y-105000000D01*
X30520000Y-99380000D02*
X36140000Y-105000000D01*
%TO.N,/GPIO3*%
X33600000Y-105000000D02*
X33820000Y-105000000D01*
X27980000Y-99380000D02*
X33600000Y-105000000D01*
%TO.N,/GPIO2*%
X31060000Y-105000000D02*
X31280000Y-105000000D01*
X25440000Y-99380000D02*
X31060000Y-105000000D01*
%TO.N,/LED_R*%
X76240000Y-99380000D02*
X76240000Y-96640000D01*
X76240000Y-96640000D02*
X67300000Y-87700000D01*
X67300000Y-37812500D02*
X69812500Y-35300000D01*
X67300000Y-87700000D02*
X67300000Y-37812500D01*
%TO.N,Net-(D1-Pad1)*%
X72787500Y-32737500D02*
X72750000Y-32700000D01*
X72787500Y-35300000D02*
X72787500Y-32737500D01*
%TO.N,/LED_G*%
X66080000Y-31242500D02*
X69712500Y-27610000D01*
X66080000Y-84140000D02*
X66080000Y-31242500D01*
%TO.N,Net-(D2-Pad1)*%
X72687500Y-25112500D02*
X72800000Y-25000000D01*
X72687500Y-27610000D02*
X72687500Y-25112500D01*
%TO.N,/LED_B*%
X64900000Y-24822500D02*
X69722500Y-20000000D01*
X64900000Y-78200000D02*
X64900000Y-24822500D01*
X63540000Y-79560000D02*
X64900000Y-78200000D01*
X63540000Y-84140000D02*
X63540000Y-79560000D01*
%TO.N,Net-(D3-Pad1)*%
X72697500Y-17452500D02*
X72750000Y-17400000D01*
X72697500Y-20000000D02*
X72697500Y-17452500D01*
%TO.N,/SW1*%
X73260000Y-79500000D02*
X74000000Y-79500000D01*
X68620000Y-84140000D02*
X73260000Y-79500000D01*
X74000000Y-79500000D02*
X74000000Y-73000000D01*
%TO.N,/SW2*%
X75600000Y-80100000D02*
X75600000Y-70100000D01*
X71560000Y-84140000D02*
X75600000Y-80100000D01*
X75600000Y-70100000D02*
X74000000Y-68500000D01*
X71160000Y-84140000D02*
X71560000Y-84140000D01*
X74000000Y-68500000D02*
X74000000Y-62000000D01*
%TO.N,/SW3*%
X76200000Y-59700000D02*
X74000000Y-57500000D01*
X76200000Y-81640000D02*
X76200000Y-59700000D01*
X73700000Y-84140000D02*
X76200000Y-81640000D01*
X74000000Y-57500000D02*
X74000000Y-51000000D01*
%TO.N,/SW4*%
X76800000Y-49300000D02*
X74000000Y-46500000D01*
X76800000Y-83580000D02*
X76800000Y-49300000D01*
X76240000Y-84140000D02*
X76800000Y-83580000D01*
X74000000Y-46500000D02*
X74000000Y-40000000D01*
%TO.N,GNDA*%
X21900000Y-35400000D02*
X22000000Y-35500000D01*
X19900000Y-35400000D02*
X21900000Y-35400000D01*
X21600000Y-23100000D02*
X22000000Y-23500000D01*
X19800000Y-23100000D02*
X21600000Y-23100000D01*
D29*
%TO.N,/3V3_GPIO*%
X46520000Y-104780000D02*
X46520000Y-105300000D01*
X50400000Y-100900000D02*
X46520000Y-104780000D01*
X51860000Y-100900000D02*
X50400000Y-100900000D01*
X53380000Y-99380000D02*
X51860000Y-100900000D01*
D27*
%TO.N,/GPIO30*%
X64300000Y-105300000D02*
X68300000Y-101300000D01*
X69240000Y-101300000D02*
X71160000Y-99380000D01*
X68300000Y-101300000D02*
X69240000Y-101300000D01*
%TD*%
M02*
