%TF.GenerationSoftware,KiCad,Pcbnew,5.1.8-db9833491~87~ubuntu20.04.1*%
%TF.CreationDate,2020-11-22T18:04:31+08:00*%
%TF.ProjectId,mobo,6d6f626f-2e6b-4696-9361-645f70636258,rev?*%
%TF.SameCoordinates,Original*%
%TF.FileFunction,Legend,Top*%
%TF.FilePolarity,Positive*%
%FSLAX46Y46*%
G04 Gerber Fmt 4.6, Leading zero omitted, Abs format (unit mm)*
G04 Created by KiCad (PCBNEW 5.1.8-db9833491~87~ubuntu20.04.1) date 2020-11-22 18:04:31*
%MOMM*%
%LPD*%
G01*
G04 APERTURE LIST*
%ADD10C,0.150000*%
%ADD11C,0.300000*%
%ADD12C,0.010000*%
%ADD13C,0.120000*%
%ADD14C,0.250000*%
%ADD15C,1.500000*%
%ADD16C,0.100000*%
G04 APERTURE END LIST*
D10*
X63552380Y-103009523D02*
X63552380Y-102390476D01*
X63933333Y-102723809D01*
X63933333Y-102580952D01*
X63980952Y-102485714D01*
X64028571Y-102438095D01*
X64123809Y-102390476D01*
X64361904Y-102390476D01*
X64457142Y-102438095D01*
X64504761Y-102485714D01*
X64552380Y-102580952D01*
X64552380Y-102866666D01*
X64504761Y-102961904D01*
X64457142Y-103009523D01*
X63552380Y-101771428D02*
X63552380Y-101676190D01*
X63600000Y-101580952D01*
X63647619Y-101533333D01*
X63742857Y-101485714D01*
X63933333Y-101438095D01*
X64171428Y-101438095D01*
X64361904Y-101485714D01*
X64457142Y-101533333D01*
X64504761Y-101580952D01*
X64552380Y-101676190D01*
X64552380Y-101771428D01*
X64504761Y-101866666D01*
X64457142Y-101914285D01*
X64361904Y-101961904D01*
X64171428Y-102009523D01*
X63933333Y-102009523D01*
X63742857Y-101961904D01*
X63647619Y-101914285D01*
X63600000Y-101866666D01*
X63552380Y-101771428D01*
X67452380Y-47385714D02*
X66452380Y-47385714D01*
X66452380Y-47147619D01*
X66500000Y-47004761D01*
X66595238Y-46909523D01*
X66690476Y-46861904D01*
X66880952Y-46814285D01*
X67023809Y-46814285D01*
X67214285Y-46861904D01*
X67309523Y-46909523D01*
X67404761Y-47004761D01*
X67452380Y-47147619D01*
X67452380Y-47385714D01*
X66452380Y-46195238D02*
X66452380Y-46004761D01*
X66500000Y-45909523D01*
X66595238Y-45814285D01*
X66785714Y-45766666D01*
X67119047Y-45766666D01*
X67309523Y-45814285D01*
X67404761Y-45909523D01*
X67452380Y-46004761D01*
X67452380Y-46195238D01*
X67404761Y-46290476D01*
X67309523Y-46385714D01*
X67119047Y-46433333D01*
X66785714Y-46433333D01*
X66595238Y-46385714D01*
X66500000Y-46290476D01*
X66452380Y-46195238D01*
X66452380Y-45433333D02*
X67452380Y-45195238D01*
X66738095Y-45004761D01*
X67452380Y-44814285D01*
X66452380Y-44576190D01*
X67452380Y-44195238D02*
X66452380Y-44195238D01*
X67452380Y-43623809D01*
X66452380Y-43623809D01*
X66404761Y-42433333D02*
X67690476Y-43290476D01*
X67452380Y-42100000D02*
X66452380Y-42100000D01*
X66452380Y-41719047D01*
X66500000Y-41623809D01*
X66547619Y-41576190D01*
X66642857Y-41528571D01*
X66785714Y-41528571D01*
X66880952Y-41576190D01*
X66928571Y-41623809D01*
X66976190Y-41719047D01*
X66976190Y-42100000D01*
X67452380Y-40528571D02*
X66976190Y-40861904D01*
X67452380Y-41100000D02*
X66452380Y-41100000D01*
X66452380Y-40719047D01*
X66500000Y-40623809D01*
X66547619Y-40576190D01*
X66642857Y-40528571D01*
X66785714Y-40528571D01*
X66880952Y-40576190D01*
X66928571Y-40623809D01*
X66976190Y-40719047D01*
X66976190Y-41100000D01*
X66928571Y-40100000D02*
X66928571Y-39766666D01*
X67452380Y-39623809D02*
X67452380Y-40100000D01*
X66452380Y-40100000D01*
X66452380Y-39623809D01*
X66452380Y-39338095D02*
X67452380Y-39004761D01*
X66452380Y-38671428D01*
X66452380Y-57442857D02*
X67261904Y-57442857D01*
X67357142Y-57395238D01*
X67404761Y-57347619D01*
X67452380Y-57252380D01*
X67452380Y-57061904D01*
X67404761Y-56966666D01*
X67357142Y-56919047D01*
X67261904Y-56871428D01*
X66452380Y-56871428D01*
X67452380Y-56395238D02*
X66452380Y-56395238D01*
X66452380Y-56014285D01*
X66500000Y-55919047D01*
X66547619Y-55871428D01*
X66642857Y-55823809D01*
X66785714Y-55823809D01*
X66880952Y-55871428D01*
X66928571Y-55919047D01*
X66976190Y-56014285D01*
X66976190Y-56395238D01*
X66404761Y-54680952D02*
X67690476Y-55538095D01*
X67452380Y-54347619D02*
X66452380Y-54347619D01*
X67452380Y-53776190D01*
X66452380Y-53776190D01*
X66928571Y-53300000D02*
X66928571Y-52966666D01*
X67452380Y-52823809D02*
X67452380Y-53300000D01*
X66452380Y-53300000D01*
X66452380Y-52823809D01*
X66452380Y-52490476D02*
X67452380Y-51823809D01*
X66452380Y-51823809D02*
X67452380Y-52490476D01*
X66452380Y-51585714D02*
X66452380Y-51014285D01*
X67452380Y-51300000D02*
X66452380Y-51300000D01*
X67357142Y-67200000D02*
X67404761Y-67247619D01*
X67452380Y-67390476D01*
X67452380Y-67485714D01*
X67404761Y-67628571D01*
X67309523Y-67723809D01*
X67214285Y-67771428D01*
X67023809Y-67819047D01*
X66880952Y-67819047D01*
X66690476Y-67771428D01*
X66595238Y-67723809D01*
X66500000Y-67628571D01*
X66452380Y-67485714D01*
X66452380Y-67390476D01*
X66500000Y-67247619D01*
X66547619Y-67200000D01*
X67166666Y-66819047D02*
X67166666Y-66342857D01*
X67452380Y-66914285D02*
X66452380Y-66580952D01*
X67452380Y-66247619D01*
X67452380Y-65914285D02*
X66452380Y-65914285D01*
X67452380Y-65342857D01*
X66452380Y-65342857D01*
X67357142Y-64295238D02*
X67404761Y-64342857D01*
X67452380Y-64485714D01*
X67452380Y-64580952D01*
X67404761Y-64723809D01*
X67309523Y-64819047D01*
X67214285Y-64866666D01*
X67023809Y-64914285D01*
X66880952Y-64914285D01*
X66690476Y-64866666D01*
X66595238Y-64819047D01*
X66500000Y-64723809D01*
X66452380Y-64580952D01*
X66452380Y-64485714D01*
X66500000Y-64342857D01*
X66547619Y-64295238D01*
X66928571Y-63866666D02*
X66928571Y-63533333D01*
X67452380Y-63390476D02*
X67452380Y-63866666D01*
X66452380Y-63866666D01*
X66452380Y-63390476D01*
X67452380Y-62485714D02*
X67452380Y-62961904D01*
X66452380Y-62961904D01*
X67404761Y-78776190D02*
X67452380Y-78633333D01*
X67452380Y-78395238D01*
X67404761Y-78300000D01*
X67357142Y-78252380D01*
X67261904Y-78204761D01*
X67166666Y-78204761D01*
X67071428Y-78252380D01*
X67023809Y-78300000D01*
X66976190Y-78395238D01*
X66928571Y-78585714D01*
X66880952Y-78680952D01*
X66833333Y-78728571D01*
X66738095Y-78776190D01*
X66642857Y-78776190D01*
X66547619Y-78728571D01*
X66500000Y-78680952D01*
X66452380Y-78585714D01*
X66452380Y-78347619D01*
X66500000Y-78204761D01*
X66928571Y-77776190D02*
X66928571Y-77442857D01*
X67452380Y-77300000D02*
X67452380Y-77776190D01*
X66452380Y-77776190D01*
X66452380Y-77300000D01*
X67452380Y-76395238D02*
X67452380Y-76871428D01*
X66452380Y-76871428D01*
X66928571Y-76061904D02*
X66928571Y-75728571D01*
X67452380Y-75585714D02*
X67452380Y-76061904D01*
X66452380Y-76061904D01*
X66452380Y-75585714D01*
X67357142Y-74585714D02*
X67404761Y-74633333D01*
X67452380Y-74776190D01*
X67452380Y-74871428D01*
X67404761Y-75014285D01*
X67309523Y-75109523D01*
X67214285Y-75157142D01*
X67023809Y-75204761D01*
X66880952Y-75204761D01*
X66690476Y-75157142D01*
X66595238Y-75109523D01*
X66500000Y-75014285D01*
X66452380Y-74871428D01*
X66452380Y-74776190D01*
X66500000Y-74633333D01*
X66547619Y-74585714D01*
X66452380Y-74300000D02*
X66452380Y-73728571D01*
X67452380Y-74014285D02*
X66452380Y-74014285D01*
D11*
X36133333Y-75904761D02*
X37276190Y-75904761D01*
X36704761Y-77904761D02*
X36704761Y-75904761D01*
X38704761Y-77809523D02*
X38514285Y-77904761D01*
X38133333Y-77904761D01*
X37942857Y-77809523D01*
X37847619Y-77619047D01*
X37847619Y-76857142D01*
X37942857Y-76666666D01*
X38133333Y-76571428D01*
X38514285Y-76571428D01*
X38704761Y-76666666D01*
X38800000Y-76857142D01*
X38800000Y-77047619D01*
X37847619Y-77238095D01*
X40419047Y-77809523D02*
X40228571Y-77904761D01*
X39847619Y-77904761D01*
X39657142Y-77809523D01*
X39561904Y-77619047D01*
X39561904Y-76857142D01*
X39657142Y-76666666D01*
X39847619Y-76571428D01*
X40228571Y-76571428D01*
X40419047Y-76666666D01*
X40514285Y-76857142D01*
X40514285Y-77047619D01*
X39561904Y-77238095D01*
X41371428Y-76571428D02*
X41371428Y-77904761D01*
X41371428Y-76761904D02*
X41466666Y-76666666D01*
X41657142Y-76571428D01*
X41942857Y-76571428D01*
X42133333Y-76666666D01*
X42228571Y-76857142D01*
X42228571Y-77904761D01*
X43085714Y-77809523D02*
X43276190Y-77904761D01*
X43657142Y-77904761D01*
X43847619Y-77809523D01*
X43942857Y-77619047D01*
X43942857Y-77523809D01*
X43847619Y-77333333D01*
X43657142Y-77238095D01*
X43371428Y-77238095D01*
X43180952Y-77142857D01*
X43085714Y-76952380D01*
X43085714Y-76857142D01*
X43180952Y-76666666D01*
X43371428Y-76571428D01*
X43657142Y-76571428D01*
X43847619Y-76666666D01*
X44609523Y-76571428D02*
X45085714Y-77904761D01*
X45561904Y-76571428D02*
X45085714Y-77904761D01*
X44895238Y-78380952D01*
X44800000Y-78476190D01*
X44609523Y-78571428D01*
X46323809Y-76571428D02*
X46323809Y-77904761D01*
X46323809Y-76761904D02*
X46419047Y-76666666D01*
X46609523Y-76571428D01*
X46895238Y-76571428D01*
X47085714Y-76666666D01*
X47180952Y-76857142D01*
X47180952Y-77904761D01*
X47847619Y-76571428D02*
X48609523Y-76571428D01*
X48133333Y-75904761D02*
X48133333Y-77619047D01*
X48228571Y-77809523D01*
X48419047Y-77904761D01*
X48609523Y-77904761D01*
X49276190Y-77904761D02*
X49276190Y-75904761D01*
X50133333Y-77904761D02*
X50133333Y-76857142D01*
X50038095Y-76666666D01*
X49847619Y-76571428D01*
X49561904Y-76571428D01*
X49371428Y-76666666D01*
X49276190Y-76761904D01*
X53752380Y-77904761D02*
X53085714Y-76952380D01*
X52609523Y-77904761D02*
X52609523Y-75904761D01*
X53371428Y-75904761D01*
X53561904Y-76000000D01*
X53657142Y-76095238D01*
X53752380Y-76285714D01*
X53752380Y-76571428D01*
X53657142Y-76761904D01*
X53561904Y-76857142D01*
X53371428Y-76952380D01*
X52609523Y-76952380D01*
X55371428Y-77809523D02*
X55180952Y-77904761D01*
X54800000Y-77904761D01*
X54609523Y-77809523D01*
X54514285Y-77619047D01*
X54514285Y-76857142D01*
X54609523Y-76666666D01*
X54800000Y-76571428D01*
X55180952Y-76571428D01*
X55371428Y-76666666D01*
X55466666Y-76857142D01*
X55466666Y-77047619D01*
X54514285Y-77238095D01*
X56133333Y-76571428D02*
X56609523Y-77904761D01*
X57085714Y-76571428D01*
X59752380Y-75904761D02*
X59942857Y-75904761D01*
X60133333Y-76000000D01*
X60228571Y-76095238D01*
X60323809Y-76285714D01*
X60419047Y-76666666D01*
X60419047Y-77142857D01*
X60323809Y-77523809D01*
X60228571Y-77714285D01*
X60133333Y-77809523D01*
X59942857Y-77904761D01*
X59752380Y-77904761D01*
X59561904Y-77809523D01*
X59466666Y-77714285D01*
X59371428Y-77523809D01*
X59276190Y-77142857D01*
X59276190Y-76666666D01*
X59371428Y-76285714D01*
X59466666Y-76095238D01*
X59561904Y-76000000D01*
X59752380Y-75904761D01*
X61276190Y-77714285D02*
X61371428Y-77809523D01*
X61276190Y-77904761D01*
X61180952Y-77809523D01*
X61276190Y-77714285D01*
X61276190Y-77904761D01*
X63276190Y-77904761D02*
X62133333Y-77904761D01*
X62704761Y-77904761D02*
X62704761Y-75904761D01*
X62514285Y-76190476D01*
X62323809Y-76380952D01*
X62133333Y-76476190D01*
D10*
X15738095Y-53852380D02*
X15738095Y-52852380D01*
X16119047Y-52852380D01*
X16214285Y-52900000D01*
X16261904Y-52947619D01*
X16309523Y-53042857D01*
X16309523Y-53185714D01*
X16261904Y-53280952D01*
X16214285Y-53328571D01*
X16119047Y-53376190D01*
X15738095Y-53376190D01*
X16738095Y-53852380D02*
X16738095Y-52852380D01*
X17071428Y-52852380D02*
X17642857Y-52852380D01*
X17357142Y-53852380D02*
X17357142Y-52852380D01*
X18547619Y-53757142D02*
X18500000Y-53804761D01*
X18357142Y-53852380D01*
X18261904Y-53852380D01*
X18119047Y-53804761D01*
X18023809Y-53709523D01*
X17976190Y-53614285D01*
X17928571Y-53423809D01*
X17928571Y-53280952D01*
X17976190Y-53090476D01*
X18023809Y-52995238D01*
X18119047Y-52900000D01*
X18261904Y-52852380D01*
X18357142Y-52852380D01*
X18500000Y-52900000D01*
X18547619Y-52947619D01*
X18976190Y-53852380D02*
X18976190Y-52852380D01*
X18976190Y-53328571D02*
X19547619Y-53328571D01*
X19547619Y-53852380D02*
X19547619Y-52852380D01*
X19785714Y-53947619D02*
X20547619Y-53947619D01*
X21119047Y-53328571D02*
X21261904Y-53376190D01*
X21309523Y-53423809D01*
X21357142Y-53519047D01*
X21357142Y-53661904D01*
X21309523Y-53757142D01*
X21261904Y-53804761D01*
X21166666Y-53852380D01*
X20785714Y-53852380D01*
X20785714Y-52852380D01*
X21119047Y-52852380D01*
X21214285Y-52900000D01*
X21261904Y-52947619D01*
X21309523Y-53042857D01*
X21309523Y-53138095D01*
X21261904Y-53233333D01*
X21214285Y-53280952D01*
X21119047Y-53328571D01*
X20785714Y-53328571D01*
X21785714Y-53328571D02*
X22119047Y-53328571D01*
X22261904Y-53852380D02*
X21785714Y-53852380D01*
X21785714Y-52852380D01*
X22261904Y-52852380D01*
X22690476Y-53852380D02*
X22690476Y-52852380D01*
X23261904Y-53852380D01*
X23261904Y-52852380D01*
X23738095Y-53852380D02*
X23738095Y-52852380D01*
X23976190Y-52852380D01*
X24119047Y-52900000D01*
X24214285Y-52995238D01*
X24261904Y-53090476D01*
X24309523Y-53280952D01*
X24309523Y-53423809D01*
X24261904Y-53614285D01*
X24214285Y-53709523D01*
X24119047Y-53804761D01*
X23976190Y-53852380D01*
X23738095Y-53852380D01*
X16871428Y-64100000D02*
X16776190Y-64052380D01*
X16633333Y-64052380D01*
X16490476Y-64100000D01*
X16395238Y-64195238D01*
X16347619Y-64290476D01*
X16300000Y-64480952D01*
X16300000Y-64623809D01*
X16347619Y-64814285D01*
X16395238Y-64909523D01*
X16490476Y-65004761D01*
X16633333Y-65052380D01*
X16728571Y-65052380D01*
X16871428Y-65004761D01*
X16919047Y-64957142D01*
X16919047Y-64623809D01*
X16728571Y-64623809D01*
X17919047Y-65052380D02*
X17585714Y-64576190D01*
X17347619Y-65052380D02*
X17347619Y-64052380D01*
X17728571Y-64052380D01*
X17823809Y-64100000D01*
X17871428Y-64147619D01*
X17919047Y-64242857D01*
X17919047Y-64385714D01*
X17871428Y-64480952D01*
X17823809Y-64528571D01*
X17728571Y-64576190D01*
X17347619Y-64576190D01*
X18538095Y-64052380D02*
X18728571Y-64052380D01*
X18823809Y-64100000D01*
X18919047Y-64195238D01*
X18966666Y-64385714D01*
X18966666Y-64719047D01*
X18919047Y-64909523D01*
X18823809Y-65004761D01*
X18728571Y-65052380D01*
X18538095Y-65052380D01*
X18442857Y-65004761D01*
X18347619Y-64909523D01*
X18300000Y-64719047D01*
X18300000Y-64385714D01*
X18347619Y-64195238D01*
X18442857Y-64100000D01*
X18538095Y-64052380D01*
X19252380Y-64052380D02*
X19585714Y-65052380D01*
X19919047Y-64052380D01*
X20252380Y-64528571D02*
X20585714Y-64528571D01*
X20728571Y-65052380D02*
X20252380Y-65052380D01*
X20252380Y-64052380D01*
X20728571Y-64052380D01*
X20919047Y-65147619D02*
X21680952Y-65147619D01*
X22395238Y-65052380D02*
X21919047Y-65052380D01*
X21919047Y-64052380D01*
X23300000Y-64957142D02*
X23252380Y-65004761D01*
X23109523Y-65052380D01*
X23014285Y-65052380D01*
X22871428Y-65004761D01*
X22776190Y-64909523D01*
X22728571Y-64814285D01*
X22680952Y-64623809D01*
X22680952Y-64480952D01*
X22728571Y-64290476D01*
X22776190Y-64195238D01*
X22871428Y-64100000D01*
X23014285Y-64052380D01*
X23109523Y-64052380D01*
X23252380Y-64100000D01*
X23300000Y-64147619D01*
X23728571Y-65052380D02*
X23728571Y-64052380D01*
X23966666Y-64052380D01*
X24109523Y-64100000D01*
X24204761Y-64195238D01*
X24252380Y-64290476D01*
X24300000Y-64480952D01*
X24300000Y-64623809D01*
X24252380Y-64814285D01*
X24204761Y-64909523D01*
X24109523Y-65004761D01*
X23966666Y-65052380D01*
X23728571Y-65052380D01*
X66357142Y-34552380D02*
X66023809Y-34076190D01*
X65785714Y-34552380D02*
X65785714Y-33552380D01*
X66166666Y-33552380D01*
X66261904Y-33600000D01*
X66309523Y-33647619D01*
X66357142Y-33742857D01*
X66357142Y-33885714D01*
X66309523Y-33980952D01*
X66261904Y-34028571D01*
X66166666Y-34076190D01*
X65785714Y-34076190D01*
X66785714Y-34028571D02*
X67119047Y-34028571D01*
X67261904Y-34552380D02*
X66785714Y-34552380D01*
X66785714Y-33552380D01*
X67261904Y-33552380D01*
X67690476Y-34552380D02*
X67690476Y-33552380D01*
X67928571Y-33552380D01*
X68071428Y-33600000D01*
X68166666Y-33695238D01*
X68214285Y-33790476D01*
X68261904Y-33980952D01*
X68261904Y-34123809D01*
X68214285Y-34314285D01*
X68166666Y-34409523D01*
X68071428Y-34504761D01*
X67928571Y-34552380D01*
X67690476Y-34552380D01*
X64633333Y-25800000D02*
X64538095Y-25752380D01*
X64395238Y-25752380D01*
X64252380Y-25800000D01*
X64157142Y-25895238D01*
X64109523Y-25990476D01*
X64061904Y-26180952D01*
X64061904Y-26323809D01*
X64109523Y-26514285D01*
X64157142Y-26609523D01*
X64252380Y-26704761D01*
X64395238Y-26752380D01*
X64490476Y-26752380D01*
X64633333Y-26704761D01*
X64680952Y-26657142D01*
X64680952Y-26323809D01*
X64490476Y-26323809D01*
X65680952Y-26752380D02*
X65347619Y-26276190D01*
X65109523Y-26752380D02*
X65109523Y-25752380D01*
X65490476Y-25752380D01*
X65585714Y-25800000D01*
X65633333Y-25847619D01*
X65680952Y-25942857D01*
X65680952Y-26085714D01*
X65633333Y-26180952D01*
X65585714Y-26228571D01*
X65490476Y-26276190D01*
X65109523Y-26276190D01*
X66109523Y-26228571D02*
X66442857Y-26228571D01*
X66585714Y-26752380D02*
X66109523Y-26752380D01*
X66109523Y-25752380D01*
X66585714Y-25752380D01*
X67014285Y-26228571D02*
X67347619Y-26228571D01*
X67490476Y-26752380D02*
X67014285Y-26752380D01*
X67014285Y-25752380D01*
X67490476Y-25752380D01*
X67919047Y-26752380D02*
X67919047Y-25752380D01*
X68490476Y-26752380D01*
X68490476Y-25752380D01*
X65190476Y-18628571D02*
X65333333Y-18676190D01*
X65380952Y-18723809D01*
X65428571Y-18819047D01*
X65428571Y-18961904D01*
X65380952Y-19057142D01*
X65333333Y-19104761D01*
X65238095Y-19152380D01*
X64857142Y-19152380D01*
X64857142Y-18152380D01*
X65190476Y-18152380D01*
X65285714Y-18200000D01*
X65333333Y-18247619D01*
X65380952Y-18342857D01*
X65380952Y-18438095D01*
X65333333Y-18533333D01*
X65285714Y-18580952D01*
X65190476Y-18628571D01*
X64857142Y-18628571D01*
X66333333Y-19152380D02*
X65857142Y-19152380D01*
X65857142Y-18152380D01*
X66666666Y-18152380D02*
X66666666Y-18961904D01*
X66714285Y-19057142D01*
X66761904Y-19104761D01*
X66857142Y-19152380D01*
X67047619Y-19152380D01*
X67142857Y-19104761D01*
X67190476Y-19057142D01*
X67238095Y-18961904D01*
X67238095Y-18152380D01*
X67714285Y-18628571D02*
X68047619Y-18628571D01*
X68190476Y-19152380D02*
X67714285Y-19152380D01*
X67714285Y-18152380D01*
X68190476Y-18152380D01*
X66500000Y-102961904D02*
X66452380Y-103057142D01*
X66452380Y-103200000D01*
X66500000Y-103342857D01*
X66595238Y-103438095D01*
X66690476Y-103485714D01*
X66880952Y-103533333D01*
X67023809Y-103533333D01*
X67214285Y-103485714D01*
X67309523Y-103438095D01*
X67404761Y-103342857D01*
X67452380Y-103200000D01*
X67452380Y-103104761D01*
X67404761Y-102961904D01*
X67357142Y-102914285D01*
X67023809Y-102914285D01*
X67023809Y-103104761D01*
X67452380Y-102485714D02*
X66452380Y-102485714D01*
X67452380Y-101914285D01*
X66452380Y-101914285D01*
X67452380Y-101438095D02*
X66452380Y-101438095D01*
X66452380Y-101200000D01*
X66500000Y-101057142D01*
X66595238Y-100961904D01*
X66690476Y-100914285D01*
X66880952Y-100866666D01*
X67023809Y-100866666D01*
X67214285Y-100914285D01*
X67309523Y-100961904D01*
X67404761Y-101057142D01*
X67452380Y-101200000D01*
X67452380Y-101438095D01*
X61147619Y-102961904D02*
X61100000Y-102914285D01*
X61052380Y-102819047D01*
X61052380Y-102580952D01*
X61100000Y-102485714D01*
X61147619Y-102438095D01*
X61242857Y-102390476D01*
X61338095Y-102390476D01*
X61480952Y-102438095D01*
X62052380Y-103009523D01*
X62052380Y-102390476D01*
X62052380Y-101914285D02*
X62052380Y-101723809D01*
X62004761Y-101628571D01*
X61957142Y-101580952D01*
X61814285Y-101485714D01*
X61623809Y-101438095D01*
X61242857Y-101438095D01*
X61147619Y-101485714D01*
X61100000Y-101533333D01*
X61052380Y-101628571D01*
X61052380Y-101819047D01*
X61100000Y-101914285D01*
X61147619Y-101961904D01*
X61242857Y-102009523D01*
X61480952Y-102009523D01*
X61576190Y-101961904D01*
X61623809Y-101914285D01*
X61671428Y-101819047D01*
X61671428Y-101628571D01*
X61623809Y-101533333D01*
X61576190Y-101485714D01*
X61480952Y-101438095D01*
X58747619Y-103061904D02*
X58700000Y-103014285D01*
X58652380Y-102919047D01*
X58652380Y-102680952D01*
X58700000Y-102585714D01*
X58747619Y-102538095D01*
X58842857Y-102490476D01*
X58938095Y-102490476D01*
X59080952Y-102538095D01*
X59652380Y-103109523D01*
X59652380Y-102490476D01*
X59080952Y-101919047D02*
X59033333Y-102014285D01*
X58985714Y-102061904D01*
X58890476Y-102109523D01*
X58842857Y-102109523D01*
X58747619Y-102061904D01*
X58700000Y-102014285D01*
X58652380Y-101919047D01*
X58652380Y-101728571D01*
X58700000Y-101633333D01*
X58747619Y-101585714D01*
X58842857Y-101538095D01*
X58890476Y-101538095D01*
X58985714Y-101585714D01*
X59033333Y-101633333D01*
X59080952Y-101728571D01*
X59080952Y-101919047D01*
X59128571Y-102014285D01*
X59176190Y-102061904D01*
X59271428Y-102109523D01*
X59461904Y-102109523D01*
X59557142Y-102061904D01*
X59604761Y-102014285D01*
X59652380Y-101919047D01*
X59652380Y-101728571D01*
X59604761Y-101633333D01*
X59557142Y-101585714D01*
X59461904Y-101538095D01*
X59271428Y-101538095D01*
X59176190Y-101585714D01*
X59128571Y-101633333D01*
X59080952Y-101728571D01*
X56047619Y-103061904D02*
X56000000Y-103014285D01*
X55952380Y-102919047D01*
X55952380Y-102680952D01*
X56000000Y-102585714D01*
X56047619Y-102538095D01*
X56142857Y-102490476D01*
X56238095Y-102490476D01*
X56380952Y-102538095D01*
X56952380Y-103109523D01*
X56952380Y-102490476D01*
X55952380Y-102157142D02*
X55952380Y-101490476D01*
X56952380Y-101919047D01*
X53647619Y-102961904D02*
X53600000Y-102914285D01*
X53552380Y-102819047D01*
X53552380Y-102580952D01*
X53600000Y-102485714D01*
X53647619Y-102438095D01*
X53742857Y-102390476D01*
X53838095Y-102390476D01*
X53980952Y-102438095D01*
X54552380Y-103009523D01*
X54552380Y-102390476D01*
X53552380Y-101533333D02*
X53552380Y-101723809D01*
X53600000Y-101819047D01*
X53647619Y-101866666D01*
X53790476Y-101961904D01*
X53980952Y-102009523D01*
X54361904Y-102009523D01*
X54457142Y-101961904D01*
X54504761Y-101914285D01*
X54552380Y-101819047D01*
X54552380Y-101628571D01*
X54504761Y-101533333D01*
X54457142Y-101485714D01*
X54361904Y-101438095D01*
X54123809Y-101438095D01*
X54028571Y-101485714D01*
X53980952Y-101533333D01*
X53933333Y-101628571D01*
X53933333Y-101819047D01*
X53980952Y-101914285D01*
X54028571Y-101961904D01*
X54123809Y-102009523D01*
X51047619Y-102961904D02*
X51000000Y-102914285D01*
X50952380Y-102819047D01*
X50952380Y-102580952D01*
X51000000Y-102485714D01*
X51047619Y-102438095D01*
X51142857Y-102390476D01*
X51238095Y-102390476D01*
X51380952Y-102438095D01*
X51952380Y-103009523D01*
X51952380Y-102390476D01*
X50952380Y-101485714D02*
X50952380Y-101961904D01*
X51428571Y-102009523D01*
X51380952Y-101961904D01*
X51333333Y-101866666D01*
X51333333Y-101628571D01*
X51380952Y-101533333D01*
X51428571Y-101485714D01*
X51523809Y-101438095D01*
X51761904Y-101438095D01*
X51857142Y-101485714D01*
X51904761Y-101533333D01*
X51952380Y-101628571D01*
X51952380Y-101866666D01*
X51904761Y-101961904D01*
X51857142Y-102009523D01*
X48547619Y-103061904D02*
X48500000Y-103014285D01*
X48452380Y-102919047D01*
X48452380Y-102680952D01*
X48500000Y-102585714D01*
X48547619Y-102538095D01*
X48642857Y-102490476D01*
X48738095Y-102490476D01*
X48880952Y-102538095D01*
X49452380Y-103109523D01*
X49452380Y-102490476D01*
X48785714Y-101633333D02*
X49452380Y-101633333D01*
X48404761Y-101871428D02*
X49119047Y-102109523D01*
X49119047Y-101490476D01*
X45852380Y-103438095D02*
X45852380Y-102819047D01*
X46233333Y-103152380D01*
X46233333Y-103009523D01*
X46280952Y-102914285D01*
X46328571Y-102866666D01*
X46423809Y-102819047D01*
X46661904Y-102819047D01*
X46757142Y-102866666D01*
X46804761Y-102914285D01*
X46852380Y-103009523D01*
X46852380Y-103295238D01*
X46804761Y-103390476D01*
X46757142Y-103438095D01*
X45852380Y-102533333D02*
X46852380Y-102200000D01*
X45852380Y-101866666D01*
X45852380Y-101628571D02*
X45852380Y-101009523D01*
X46233333Y-101342857D01*
X46233333Y-101200000D01*
X46280952Y-101104761D01*
X46328571Y-101057142D01*
X46423809Y-101009523D01*
X46661904Y-101009523D01*
X46757142Y-101057142D01*
X46804761Y-101104761D01*
X46852380Y-101200000D01*
X46852380Y-101485714D01*
X46804761Y-101580952D01*
X46757142Y-101628571D01*
X44352380Y-102690476D02*
X44352380Y-102500000D01*
X44304761Y-102404761D01*
X44257142Y-102357142D01*
X44114285Y-102261904D01*
X43923809Y-102214285D01*
X43542857Y-102214285D01*
X43447619Y-102261904D01*
X43400000Y-102309523D01*
X43352380Y-102404761D01*
X43352380Y-102595238D01*
X43400000Y-102690476D01*
X43447619Y-102738095D01*
X43542857Y-102785714D01*
X43780952Y-102785714D01*
X43876190Y-102738095D01*
X43923809Y-102690476D01*
X43971428Y-102595238D01*
X43971428Y-102404761D01*
X43923809Y-102309523D01*
X43876190Y-102261904D01*
X43780952Y-102214285D01*
X40752380Y-103233333D02*
X40752380Y-102566666D01*
X41752380Y-102995238D01*
X38252380Y-102709523D02*
X38252380Y-102900000D01*
X38300000Y-102995238D01*
X38347619Y-103042857D01*
X38490476Y-103138095D01*
X38680952Y-103185714D01*
X39061904Y-103185714D01*
X39157142Y-103138095D01*
X39204761Y-103090476D01*
X39252380Y-102995238D01*
X39252380Y-102804761D01*
X39204761Y-102709523D01*
X39157142Y-102661904D01*
X39061904Y-102614285D01*
X38823809Y-102614285D01*
X38728571Y-102661904D01*
X38680952Y-102709523D01*
X38633333Y-102804761D01*
X38633333Y-102995238D01*
X38680952Y-103090476D01*
X38728571Y-103138095D01*
X38823809Y-103185714D01*
X35985714Y-102709523D02*
X36652380Y-102709523D01*
X35604761Y-102947619D02*
X36319047Y-103185714D01*
X36319047Y-102566666D01*
X33152380Y-103233333D02*
X33152380Y-102614285D01*
X33533333Y-102947619D01*
X33533333Y-102804761D01*
X33580952Y-102709523D01*
X33628571Y-102661904D01*
X33723809Y-102614285D01*
X33961904Y-102614285D01*
X34057142Y-102661904D01*
X34104761Y-102709523D01*
X34152380Y-102804761D01*
X34152380Y-103090476D01*
X34104761Y-103185714D01*
X34057142Y-103233333D01*
X30747619Y-103085714D02*
X30700000Y-103038095D01*
X30652380Y-102942857D01*
X30652380Y-102704761D01*
X30700000Y-102609523D01*
X30747619Y-102561904D01*
X30842857Y-102514285D01*
X30938095Y-102514285D01*
X31080952Y-102561904D01*
X31652380Y-103133333D01*
X31652380Y-102514285D01*
X28000000Y-102961904D02*
X27952380Y-103057142D01*
X27952380Y-103200000D01*
X28000000Y-103342857D01*
X28095238Y-103438095D01*
X28190476Y-103485714D01*
X28380952Y-103533333D01*
X28523809Y-103533333D01*
X28714285Y-103485714D01*
X28809523Y-103438095D01*
X28904761Y-103342857D01*
X28952380Y-103200000D01*
X28952380Y-103104761D01*
X28904761Y-102961904D01*
X28857142Y-102914285D01*
X28523809Y-102914285D01*
X28523809Y-103104761D01*
X28952380Y-102485714D02*
X27952380Y-102485714D01*
X28952380Y-101914285D01*
X27952380Y-101914285D01*
X28952380Y-101438095D02*
X27952380Y-101438095D01*
X27952380Y-101200000D01*
X28000000Y-101057142D01*
X28095238Y-100961904D01*
X28190476Y-100914285D01*
X28380952Y-100866666D01*
X28523809Y-100866666D01*
X28714285Y-100914285D01*
X28809523Y-100961904D01*
X28904761Y-101057142D01*
X28952380Y-101200000D01*
X28952380Y-101438095D01*
X25352380Y-102290476D02*
X25352380Y-102766666D01*
X25828571Y-102814285D01*
X25780952Y-102766666D01*
X25733333Y-102671428D01*
X25733333Y-102433333D01*
X25780952Y-102338095D01*
X25828571Y-102290476D01*
X25923809Y-102242857D01*
X26161904Y-102242857D01*
X26257142Y-102290476D01*
X26304761Y-102338095D01*
X26352380Y-102433333D01*
X26352380Y-102671428D01*
X26304761Y-102766666D01*
X26257142Y-102814285D01*
X25352380Y-101957142D02*
X26352380Y-101623809D01*
X25352380Y-101290476D01*
X30476190Y-38752380D02*
X30476190Y-37752380D01*
X30952380Y-38752380D02*
X30952380Y-37752380D01*
X31523809Y-38752380D01*
X31523809Y-37752380D01*
X30500000Y-12352380D02*
X30690476Y-12352380D01*
X30785714Y-12400000D01*
X30880952Y-12495238D01*
X30928571Y-12685714D01*
X30928571Y-13019047D01*
X30880952Y-13209523D01*
X30785714Y-13304761D01*
X30690476Y-13352380D01*
X30500000Y-13352380D01*
X30404761Y-13304761D01*
X30309523Y-13209523D01*
X30261904Y-13019047D01*
X30261904Y-12685714D01*
X30309523Y-12495238D01*
X30404761Y-12400000D01*
X30500000Y-12352380D01*
X31357142Y-12352380D02*
X31357142Y-13161904D01*
X31404761Y-13257142D01*
X31452380Y-13304761D01*
X31547619Y-13352380D01*
X31738095Y-13352380D01*
X31833333Y-13304761D01*
X31880952Y-13257142D01*
X31928571Y-13161904D01*
X31928571Y-12352380D01*
X32261904Y-12352380D02*
X32833333Y-12352380D01*
X32547619Y-13352380D02*
X32547619Y-12352380D01*
X25609523Y-62504761D02*
X25752380Y-62552380D01*
X25990476Y-62552380D01*
X26085714Y-62504761D01*
X26133333Y-62457142D01*
X26180952Y-62361904D01*
X26180952Y-62266666D01*
X26133333Y-62171428D01*
X26085714Y-62123809D01*
X25990476Y-62076190D01*
X25800000Y-62028571D01*
X25704761Y-61980952D01*
X25657142Y-61933333D01*
X25609523Y-61838095D01*
X25609523Y-61742857D01*
X25657142Y-61647619D01*
X25704761Y-61600000D01*
X25800000Y-61552380D01*
X26038095Y-61552380D01*
X26180952Y-61600000D01*
X27180952Y-62457142D02*
X27133333Y-62504761D01*
X26990476Y-62552380D01*
X26895238Y-62552380D01*
X26752380Y-62504761D01*
X26657142Y-62409523D01*
X26609523Y-62314285D01*
X26561904Y-62123809D01*
X26561904Y-61980952D01*
X26609523Y-61790476D01*
X26657142Y-61695238D01*
X26752380Y-61600000D01*
X26895238Y-61552380D01*
X26990476Y-61552380D01*
X27133333Y-61600000D01*
X27180952Y-61647619D01*
X28085714Y-62552380D02*
X27609523Y-62552380D01*
X27609523Y-61552380D01*
X25485714Y-60504761D02*
X25628571Y-60552380D01*
X25866666Y-60552380D01*
X25961904Y-60504761D01*
X26009523Y-60457142D01*
X26057142Y-60361904D01*
X26057142Y-60266666D01*
X26009523Y-60171428D01*
X25961904Y-60123809D01*
X25866666Y-60076190D01*
X25676190Y-60028571D01*
X25580952Y-59980952D01*
X25533333Y-59933333D01*
X25485714Y-59838095D01*
X25485714Y-59742857D01*
X25533333Y-59647619D01*
X25580952Y-59600000D01*
X25676190Y-59552380D01*
X25914285Y-59552380D01*
X26057142Y-59600000D01*
X26485714Y-60552380D02*
X26485714Y-59552380D01*
X26723809Y-59552380D01*
X26866666Y-59600000D01*
X26961904Y-59695238D01*
X27009523Y-59790476D01*
X27057142Y-59980952D01*
X27057142Y-60123809D01*
X27009523Y-60314285D01*
X26961904Y-60409523D01*
X26866666Y-60504761D01*
X26723809Y-60552380D01*
X26485714Y-60552380D01*
X27438095Y-60266666D02*
X27914285Y-60266666D01*
X27342857Y-60552380D02*
X27676190Y-59552380D01*
X28009523Y-60552380D01*
X26409523Y-57452380D02*
X25933333Y-57452380D01*
X25885714Y-57928571D01*
X25933333Y-57880952D01*
X26028571Y-57833333D01*
X26266666Y-57833333D01*
X26361904Y-57880952D01*
X26409523Y-57928571D01*
X26457142Y-58023809D01*
X26457142Y-58261904D01*
X26409523Y-58357142D01*
X26361904Y-58404761D01*
X26266666Y-58452380D01*
X26028571Y-58452380D01*
X25933333Y-58404761D01*
X25885714Y-58357142D01*
X26742857Y-57452380D02*
X27076190Y-58452380D01*
X27409523Y-57452380D01*
X25838095Y-55500000D02*
X25742857Y-55452380D01*
X25600000Y-55452380D01*
X25457142Y-55500000D01*
X25361904Y-55595238D01*
X25314285Y-55690476D01*
X25266666Y-55880952D01*
X25266666Y-56023809D01*
X25314285Y-56214285D01*
X25361904Y-56309523D01*
X25457142Y-56404761D01*
X25600000Y-56452380D01*
X25695238Y-56452380D01*
X25838095Y-56404761D01*
X25885714Y-56357142D01*
X25885714Y-56023809D01*
X25695238Y-56023809D01*
X26314285Y-56452380D02*
X26314285Y-55452380D01*
X26885714Y-56452380D01*
X26885714Y-55452380D01*
X27361904Y-56452380D02*
X27361904Y-55452380D01*
X27600000Y-55452380D01*
X27742857Y-55500000D01*
X27838095Y-55595238D01*
X27885714Y-55690476D01*
X27933333Y-55880952D01*
X27933333Y-56023809D01*
X27885714Y-56214285D01*
X27838095Y-56309523D01*
X27742857Y-56404761D01*
X27600000Y-56452380D01*
X27361904Y-56452380D01*
X28261904Y-50352380D02*
X28880952Y-50352380D01*
X28547619Y-50733333D01*
X28690476Y-50733333D01*
X28785714Y-50780952D01*
X28833333Y-50828571D01*
X28880952Y-50923809D01*
X28880952Y-51161904D01*
X28833333Y-51257142D01*
X28785714Y-51304761D01*
X28690476Y-51352380D01*
X28404761Y-51352380D01*
X28309523Y-51304761D01*
X28261904Y-51257142D01*
X29166666Y-50352380D02*
X29500000Y-51352380D01*
X29833333Y-50352380D01*
X30071428Y-50352380D02*
X30690476Y-50352380D01*
X30357142Y-50733333D01*
X30500000Y-50733333D01*
X30595238Y-50780952D01*
X30642857Y-50828571D01*
X30690476Y-50923809D01*
X30690476Y-51161904D01*
X30642857Y-51257142D01*
X30595238Y-51304761D01*
X30500000Y-51352380D01*
X30214285Y-51352380D01*
X30119047Y-51304761D01*
X30071428Y-51257142D01*
X27838095Y-47752380D02*
X28504761Y-48752380D01*
X28504761Y-47752380D02*
X27838095Y-48752380D01*
X29076190Y-47752380D02*
X29266666Y-47752380D01*
X29361904Y-47800000D01*
X29457142Y-47895238D01*
X29504761Y-48085714D01*
X29504761Y-48419047D01*
X29457142Y-48609523D01*
X29361904Y-48704761D01*
X29266666Y-48752380D01*
X29076190Y-48752380D01*
X28980952Y-48704761D01*
X28885714Y-48609523D01*
X28838095Y-48419047D01*
X28838095Y-48085714D01*
X28885714Y-47895238D01*
X28980952Y-47800000D01*
X29076190Y-47752380D01*
X29933333Y-47752380D02*
X29933333Y-48561904D01*
X29980952Y-48657142D01*
X30028571Y-48704761D01*
X30123809Y-48752380D01*
X30314285Y-48752380D01*
X30409523Y-48704761D01*
X30457142Y-48657142D01*
X30504761Y-48561904D01*
X30504761Y-47752380D01*
X30838095Y-47752380D02*
X31409523Y-47752380D01*
X31123809Y-48752380D02*
X31123809Y-47752380D01*
X28071428Y-45676190D02*
X28071428Y-46152380D01*
X27738095Y-45152380D02*
X28071428Y-45676190D01*
X28404761Y-45152380D01*
X28928571Y-45152380D02*
X29119047Y-45152380D01*
X29214285Y-45200000D01*
X29309523Y-45295238D01*
X29357142Y-45485714D01*
X29357142Y-45819047D01*
X29309523Y-46009523D01*
X29214285Y-46104761D01*
X29119047Y-46152380D01*
X28928571Y-46152380D01*
X28833333Y-46104761D01*
X28738095Y-46009523D01*
X28690476Y-45819047D01*
X28690476Y-45485714D01*
X28738095Y-45295238D01*
X28833333Y-45200000D01*
X28928571Y-45152380D01*
X29785714Y-45152380D02*
X29785714Y-45961904D01*
X29833333Y-46057142D01*
X29880952Y-46104761D01*
X29976190Y-46152380D01*
X30166666Y-46152380D01*
X30261904Y-46104761D01*
X30309523Y-46057142D01*
X30357142Y-45961904D01*
X30357142Y-45152380D01*
X30690476Y-45152380D02*
X31261904Y-45152380D01*
X30976190Y-46152380D02*
X30976190Y-45152380D01*
X28357142Y-43704761D02*
X28500000Y-43752380D01*
X28738095Y-43752380D01*
X28833333Y-43704761D01*
X28880952Y-43657142D01*
X28928571Y-43561904D01*
X28928571Y-43466666D01*
X28880952Y-43371428D01*
X28833333Y-43323809D01*
X28738095Y-43276190D01*
X28547619Y-43228571D01*
X28452380Y-43180952D01*
X28404761Y-43133333D01*
X28357142Y-43038095D01*
X28357142Y-42942857D01*
X28404761Y-42847619D01*
X28452380Y-42800000D01*
X28547619Y-42752380D01*
X28785714Y-42752380D01*
X28928571Y-42800000D01*
X29357142Y-43228571D02*
X29690476Y-43228571D01*
X29833333Y-43752380D02*
X29357142Y-43752380D01*
X29357142Y-42752380D01*
X29833333Y-42752380D01*
X30738095Y-43752380D02*
X30261904Y-43752380D01*
X30261904Y-42752380D01*
X28738095Y-40000000D02*
X28642857Y-39952380D01*
X28500000Y-39952380D01*
X28357142Y-40000000D01*
X28261904Y-40095238D01*
X28214285Y-40190476D01*
X28166666Y-40380952D01*
X28166666Y-40523809D01*
X28214285Y-40714285D01*
X28261904Y-40809523D01*
X28357142Y-40904761D01*
X28500000Y-40952380D01*
X28595238Y-40952380D01*
X28738095Y-40904761D01*
X28785714Y-40857142D01*
X28785714Y-40523809D01*
X28595238Y-40523809D01*
X29214285Y-40952380D02*
X29214285Y-39952380D01*
X29785714Y-40952380D01*
X29785714Y-39952380D01*
X30261904Y-40952380D02*
X30261904Y-39952380D01*
X30500000Y-39952380D01*
X30642857Y-40000000D01*
X30738095Y-40095238D01*
X30785714Y-40190476D01*
X30833333Y-40380952D01*
X30833333Y-40523809D01*
X30785714Y-40714285D01*
X30738095Y-40809523D01*
X30642857Y-40904761D01*
X30500000Y-40952380D01*
X30261904Y-40952380D01*
D12*
%TO.C,LOGO1*%
G36*
X51219803Y-25300640D02*
G01*
X51388676Y-26196427D01*
X52011796Y-26453298D01*
X52634916Y-26710168D01*
X53382453Y-26201849D01*
X53591802Y-26060316D01*
X53781043Y-25933945D01*
X53941343Y-25828507D01*
X54063874Y-25749770D01*
X54139802Y-25703505D01*
X54160480Y-25693529D01*
X54197731Y-25719186D01*
X54277332Y-25790115D01*
X54390361Y-25897257D01*
X54527895Y-26031550D01*
X54681012Y-26183934D01*
X54840789Y-26345347D01*
X54998305Y-26506730D01*
X55144637Y-26659022D01*
X55270863Y-26793162D01*
X55368060Y-26900089D01*
X55427307Y-26970742D01*
X55441471Y-26994388D01*
X55421087Y-27037979D01*
X55363941Y-27133481D01*
X55276041Y-27271550D01*
X55163396Y-27442845D01*
X55032013Y-27638025D01*
X54955882Y-27749352D01*
X54817118Y-27952633D01*
X54693811Y-28136073D01*
X54591945Y-28290542D01*
X54517501Y-28406909D01*
X54476461Y-28476042D01*
X54470294Y-28490570D01*
X54484274Y-28531860D01*
X54522382Y-28628092D01*
X54578867Y-28765734D01*
X54647980Y-28931258D01*
X54723970Y-29111132D01*
X54801089Y-29291828D01*
X54873585Y-29459814D01*
X54935709Y-29601560D01*
X54981712Y-29703537D01*
X55005843Y-29752214D01*
X55007267Y-29754130D01*
X55045158Y-29763425D01*
X55146069Y-29784160D01*
X55299540Y-29814298D01*
X55495112Y-29851801D01*
X55722325Y-29894629D01*
X55854891Y-29919326D01*
X56097679Y-29965553D01*
X56316974Y-30009540D01*
X56501681Y-30048881D01*
X56640705Y-30081169D01*
X56722952Y-30103997D01*
X56739485Y-30111240D01*
X56755678Y-30160261D01*
X56768744Y-30270977D01*
X56778691Y-30430438D01*
X56785528Y-30625700D01*
X56789264Y-30843814D01*
X56789907Y-31071835D01*
X56787468Y-31296815D01*
X56781953Y-31505809D01*
X56773374Y-31685868D01*
X56761737Y-31824047D01*
X56747052Y-31907398D01*
X56738245Y-31924750D01*
X56685599Y-31945548D01*
X56574043Y-31975282D01*
X56418335Y-32010459D01*
X56233229Y-32047586D01*
X56168613Y-32059597D01*
X55857071Y-32116662D01*
X55610976Y-32162618D01*
X55422195Y-32199293D01*
X55282598Y-32228513D01*
X55184052Y-32252104D01*
X55118426Y-32271892D01*
X55077589Y-32289706D01*
X55053409Y-32307370D01*
X55050026Y-32310861D01*
X55016255Y-32367100D01*
X54964737Y-32476547D01*
X54900617Y-32625800D01*
X54829039Y-32801459D01*
X54755146Y-32990121D01*
X54684083Y-33178385D01*
X54620993Y-33352848D01*
X54571021Y-33500108D01*
X54539312Y-33606764D01*
X54531008Y-33659413D01*
X54531700Y-33661257D01*
X54559836Y-33704292D01*
X54623665Y-33798978D01*
X54716480Y-33935460D01*
X54831573Y-34103882D01*
X54962237Y-34294390D01*
X54999448Y-34348529D01*
X55132129Y-34544804D01*
X55248883Y-34723886D01*
X55343349Y-34875492D01*
X55409168Y-34989338D01*
X55439978Y-35055141D01*
X55441471Y-35063225D01*
X55415584Y-35105715D01*
X55344054Y-35189891D01*
X55236076Y-35306705D01*
X55100846Y-35447110D01*
X54947558Y-35602061D01*
X54785409Y-35762509D01*
X54623593Y-35919409D01*
X54471306Y-36063713D01*
X54337743Y-36186376D01*
X54232100Y-36278350D01*
X54163572Y-36330589D01*
X54144614Y-36339118D01*
X54100487Y-36319029D01*
X54010142Y-36264849D01*
X53888295Y-36185704D01*
X53794546Y-36122001D01*
X53624678Y-36005110D01*
X53423512Y-35867476D01*
X53221733Y-35730063D01*
X53113250Y-35656519D01*
X52746058Y-35408155D01*
X52437826Y-35574813D01*
X52297404Y-35647822D01*
X52177996Y-35704571D01*
X52097202Y-35736937D01*
X52076636Y-35741441D01*
X52051906Y-35708189D01*
X52003118Y-35614224D01*
X51933913Y-35468213D01*
X51847935Y-35278824D01*
X51748824Y-35054724D01*
X51640224Y-34804581D01*
X51525775Y-34537063D01*
X51409120Y-34260836D01*
X51293901Y-33984568D01*
X51183760Y-33716927D01*
X51082339Y-33466580D01*
X50993280Y-33242195D01*
X50920225Y-33052439D01*
X50866816Y-32905980D01*
X50836695Y-32811485D01*
X50831851Y-32779031D01*
X50870245Y-32737636D01*
X50954308Y-32670438D01*
X51066467Y-32591400D01*
X51075881Y-32585147D01*
X51365768Y-32353103D01*
X51599512Y-32082386D01*
X51775087Y-31781653D01*
X51890469Y-31459561D01*
X51943630Y-31124765D01*
X51932547Y-30785922D01*
X51855192Y-30451688D01*
X51709540Y-30130719D01*
X51666688Y-30060495D01*
X51443802Y-29776927D01*
X51180491Y-29549218D01*
X50885865Y-29378551D01*
X50569041Y-29266112D01*
X50239130Y-29213083D01*
X49905246Y-29220651D01*
X49576503Y-29289998D01*
X49262014Y-29422309D01*
X48970893Y-29618768D01*
X48880840Y-29698506D01*
X48651653Y-29948108D01*
X48484646Y-30210868D01*
X48370085Y-30505399D01*
X48306281Y-30797075D01*
X48290530Y-31125012D01*
X48343051Y-31454577D01*
X48458510Y-31774630D01*
X48631571Y-32074032D01*
X48856899Y-32341643D01*
X49129160Y-32566325D01*
X49164942Y-32590008D01*
X49278302Y-32667568D01*
X49364478Y-32734768D01*
X49405677Y-32777675D01*
X49406276Y-32779031D01*
X49397431Y-32825446D01*
X49362369Y-32930786D01*
X49304733Y-33086388D01*
X49228166Y-33283584D01*
X49136314Y-33513710D01*
X49032817Y-33768101D01*
X48921321Y-34038090D01*
X48805468Y-34315012D01*
X48688903Y-34590201D01*
X48575267Y-34854993D01*
X48468206Y-35100721D01*
X48371362Y-35318721D01*
X48288379Y-35500326D01*
X48222901Y-35636871D01*
X48178569Y-35719690D01*
X48160717Y-35741441D01*
X48106166Y-35724504D01*
X48004095Y-35679077D01*
X47872105Y-35613280D01*
X47799526Y-35574813D01*
X47491295Y-35408155D01*
X47124103Y-35656519D01*
X46936660Y-35783754D01*
X46731443Y-35923773D01*
X46539133Y-36055612D01*
X46442807Y-36122001D01*
X46307327Y-36212976D01*
X46192607Y-36285071D01*
X46113612Y-36329154D01*
X46087954Y-36338473D01*
X46050609Y-36313334D01*
X45967958Y-36243154D01*
X45848015Y-36135220D01*
X45698791Y-35996818D01*
X45528301Y-35835235D01*
X45420474Y-35731488D01*
X45231828Y-35546135D01*
X45068795Y-35380351D01*
X44937968Y-35241227D01*
X44845935Y-35135856D01*
X44799287Y-35071329D01*
X44794812Y-35058234D01*
X44815580Y-35008425D01*
X44872969Y-34907713D01*
X44960613Y-34766295D01*
X45072146Y-34594367D01*
X45201203Y-34402124D01*
X45237904Y-34348529D01*
X45371632Y-34153733D01*
X45491607Y-33978353D01*
X45591121Y-33832243D01*
X45663467Y-33725258D01*
X45701936Y-33667255D01*
X45705653Y-33661257D01*
X45700095Y-33615032D01*
X45670593Y-33513398D01*
X45622291Y-33369758D01*
X45560333Y-33197514D01*
X45489863Y-33010066D01*
X45416025Y-32820818D01*
X45343963Y-32643171D01*
X45278822Y-32490527D01*
X45225745Y-32376288D01*
X45189877Y-32313856D01*
X45187327Y-32310861D01*
X45165394Y-32293019D01*
X45128348Y-32275374D01*
X45068059Y-32256101D01*
X44976396Y-32233374D01*
X44845226Y-32205364D01*
X44666418Y-32170247D01*
X44431842Y-32126195D01*
X44133365Y-32071382D01*
X44068740Y-32059597D01*
X43877206Y-32022591D01*
X43710231Y-31986389D01*
X43582568Y-31954485D01*
X43508976Y-31930372D01*
X43499108Y-31924750D01*
X43482847Y-31874910D01*
X43469630Y-31763532D01*
X43459464Y-31603563D01*
X43452360Y-31407950D01*
X43448326Y-31189640D01*
X43447370Y-30961579D01*
X43449502Y-30736714D01*
X43454731Y-30527991D01*
X43463065Y-30348358D01*
X43474513Y-30210762D01*
X43489084Y-30128148D01*
X43497868Y-30111240D01*
X43546770Y-30094184D01*
X43658127Y-30066436D01*
X43820844Y-30030403D01*
X44023826Y-29988493D01*
X44255979Y-29943111D01*
X44382462Y-29919326D01*
X44622445Y-29874465D01*
X44836451Y-29833825D01*
X45014022Y-29799446D01*
X45144698Y-29773365D01*
X45218018Y-29757621D01*
X45230085Y-29754130D01*
X45250481Y-29714779D01*
X45293594Y-29619993D01*
X45353679Y-29483315D01*
X45424987Y-29318286D01*
X45501773Y-29138447D01*
X45578290Y-28957340D01*
X45648790Y-28788507D01*
X45707527Y-28645488D01*
X45748754Y-28541826D01*
X45766724Y-28491061D01*
X45767059Y-28488842D01*
X45746687Y-28448796D01*
X45689573Y-28356639D01*
X45601721Y-28221533D01*
X45489133Y-28052635D01*
X45357811Y-27859105D01*
X45281471Y-27747941D01*
X45142364Y-27544116D01*
X45018812Y-27359063D01*
X44916842Y-27202146D01*
X44842483Y-27082724D01*
X44801763Y-27010160D01*
X44795882Y-26993893D01*
X44821163Y-26956030D01*
X44891052Y-26875186D01*
X44996623Y-26760419D01*
X45128948Y-26620785D01*
X45279099Y-26465342D01*
X45438148Y-26303146D01*
X45597167Y-26143254D01*
X45747229Y-25994724D01*
X45879406Y-25866613D01*
X45984770Y-25767977D01*
X46054393Y-25707873D01*
X46077685Y-25693529D01*
X46115610Y-25713699D01*
X46206317Y-25770363D01*
X46340989Y-25857753D01*
X46510805Y-25970100D01*
X46706946Y-26101638D01*
X46854900Y-26201849D01*
X47602436Y-26710168D01*
X48225556Y-26453298D01*
X48848676Y-26196427D01*
X49186424Y-24404853D01*
X51050929Y-24404853D01*
X51219803Y-25300640D01*
G37*
X51219803Y-25300640D02*
X51388676Y-26196427D01*
X52011796Y-26453298D01*
X52634916Y-26710168D01*
X53382453Y-26201849D01*
X53591802Y-26060316D01*
X53781043Y-25933945D01*
X53941343Y-25828507D01*
X54063874Y-25749770D01*
X54139802Y-25703505D01*
X54160480Y-25693529D01*
X54197731Y-25719186D01*
X54277332Y-25790115D01*
X54390361Y-25897257D01*
X54527895Y-26031550D01*
X54681012Y-26183934D01*
X54840789Y-26345347D01*
X54998305Y-26506730D01*
X55144637Y-26659022D01*
X55270863Y-26793162D01*
X55368060Y-26900089D01*
X55427307Y-26970742D01*
X55441471Y-26994388D01*
X55421087Y-27037979D01*
X55363941Y-27133481D01*
X55276041Y-27271550D01*
X55163396Y-27442845D01*
X55032013Y-27638025D01*
X54955882Y-27749352D01*
X54817118Y-27952633D01*
X54693811Y-28136073D01*
X54591945Y-28290542D01*
X54517501Y-28406909D01*
X54476461Y-28476042D01*
X54470294Y-28490570D01*
X54484274Y-28531860D01*
X54522382Y-28628092D01*
X54578867Y-28765734D01*
X54647980Y-28931258D01*
X54723970Y-29111132D01*
X54801089Y-29291828D01*
X54873585Y-29459814D01*
X54935709Y-29601560D01*
X54981712Y-29703537D01*
X55005843Y-29752214D01*
X55007267Y-29754130D01*
X55045158Y-29763425D01*
X55146069Y-29784160D01*
X55299540Y-29814298D01*
X55495112Y-29851801D01*
X55722325Y-29894629D01*
X55854891Y-29919326D01*
X56097679Y-29965553D01*
X56316974Y-30009540D01*
X56501681Y-30048881D01*
X56640705Y-30081169D01*
X56722952Y-30103997D01*
X56739485Y-30111240D01*
X56755678Y-30160261D01*
X56768744Y-30270977D01*
X56778691Y-30430438D01*
X56785528Y-30625700D01*
X56789264Y-30843814D01*
X56789907Y-31071835D01*
X56787468Y-31296815D01*
X56781953Y-31505809D01*
X56773374Y-31685868D01*
X56761737Y-31824047D01*
X56747052Y-31907398D01*
X56738245Y-31924750D01*
X56685599Y-31945548D01*
X56574043Y-31975282D01*
X56418335Y-32010459D01*
X56233229Y-32047586D01*
X56168613Y-32059597D01*
X55857071Y-32116662D01*
X55610976Y-32162618D01*
X55422195Y-32199293D01*
X55282598Y-32228513D01*
X55184052Y-32252104D01*
X55118426Y-32271892D01*
X55077589Y-32289706D01*
X55053409Y-32307370D01*
X55050026Y-32310861D01*
X55016255Y-32367100D01*
X54964737Y-32476547D01*
X54900617Y-32625800D01*
X54829039Y-32801459D01*
X54755146Y-32990121D01*
X54684083Y-33178385D01*
X54620993Y-33352848D01*
X54571021Y-33500108D01*
X54539312Y-33606764D01*
X54531008Y-33659413D01*
X54531700Y-33661257D01*
X54559836Y-33704292D01*
X54623665Y-33798978D01*
X54716480Y-33935460D01*
X54831573Y-34103882D01*
X54962237Y-34294390D01*
X54999448Y-34348529D01*
X55132129Y-34544804D01*
X55248883Y-34723886D01*
X55343349Y-34875492D01*
X55409168Y-34989338D01*
X55439978Y-35055141D01*
X55441471Y-35063225D01*
X55415584Y-35105715D01*
X55344054Y-35189891D01*
X55236076Y-35306705D01*
X55100846Y-35447110D01*
X54947558Y-35602061D01*
X54785409Y-35762509D01*
X54623593Y-35919409D01*
X54471306Y-36063713D01*
X54337743Y-36186376D01*
X54232100Y-36278350D01*
X54163572Y-36330589D01*
X54144614Y-36339118D01*
X54100487Y-36319029D01*
X54010142Y-36264849D01*
X53888295Y-36185704D01*
X53794546Y-36122001D01*
X53624678Y-36005110D01*
X53423512Y-35867476D01*
X53221733Y-35730063D01*
X53113250Y-35656519D01*
X52746058Y-35408155D01*
X52437826Y-35574813D01*
X52297404Y-35647822D01*
X52177996Y-35704571D01*
X52097202Y-35736937D01*
X52076636Y-35741441D01*
X52051906Y-35708189D01*
X52003118Y-35614224D01*
X51933913Y-35468213D01*
X51847935Y-35278824D01*
X51748824Y-35054724D01*
X51640224Y-34804581D01*
X51525775Y-34537063D01*
X51409120Y-34260836D01*
X51293901Y-33984568D01*
X51183760Y-33716927D01*
X51082339Y-33466580D01*
X50993280Y-33242195D01*
X50920225Y-33052439D01*
X50866816Y-32905980D01*
X50836695Y-32811485D01*
X50831851Y-32779031D01*
X50870245Y-32737636D01*
X50954308Y-32670438D01*
X51066467Y-32591400D01*
X51075881Y-32585147D01*
X51365768Y-32353103D01*
X51599512Y-32082386D01*
X51775087Y-31781653D01*
X51890469Y-31459561D01*
X51943630Y-31124765D01*
X51932547Y-30785922D01*
X51855192Y-30451688D01*
X51709540Y-30130719D01*
X51666688Y-30060495D01*
X51443802Y-29776927D01*
X51180491Y-29549218D01*
X50885865Y-29378551D01*
X50569041Y-29266112D01*
X50239130Y-29213083D01*
X49905246Y-29220651D01*
X49576503Y-29289998D01*
X49262014Y-29422309D01*
X48970893Y-29618768D01*
X48880840Y-29698506D01*
X48651653Y-29948108D01*
X48484646Y-30210868D01*
X48370085Y-30505399D01*
X48306281Y-30797075D01*
X48290530Y-31125012D01*
X48343051Y-31454577D01*
X48458510Y-31774630D01*
X48631571Y-32074032D01*
X48856899Y-32341643D01*
X49129160Y-32566325D01*
X49164942Y-32590008D01*
X49278302Y-32667568D01*
X49364478Y-32734768D01*
X49405677Y-32777675D01*
X49406276Y-32779031D01*
X49397431Y-32825446D01*
X49362369Y-32930786D01*
X49304733Y-33086388D01*
X49228166Y-33283584D01*
X49136314Y-33513710D01*
X49032817Y-33768101D01*
X48921321Y-34038090D01*
X48805468Y-34315012D01*
X48688903Y-34590201D01*
X48575267Y-34854993D01*
X48468206Y-35100721D01*
X48371362Y-35318721D01*
X48288379Y-35500326D01*
X48222901Y-35636871D01*
X48178569Y-35719690D01*
X48160717Y-35741441D01*
X48106166Y-35724504D01*
X48004095Y-35679077D01*
X47872105Y-35613280D01*
X47799526Y-35574813D01*
X47491295Y-35408155D01*
X47124103Y-35656519D01*
X46936660Y-35783754D01*
X46731443Y-35923773D01*
X46539133Y-36055612D01*
X46442807Y-36122001D01*
X46307327Y-36212976D01*
X46192607Y-36285071D01*
X46113612Y-36329154D01*
X46087954Y-36338473D01*
X46050609Y-36313334D01*
X45967958Y-36243154D01*
X45848015Y-36135220D01*
X45698791Y-35996818D01*
X45528301Y-35835235D01*
X45420474Y-35731488D01*
X45231828Y-35546135D01*
X45068795Y-35380351D01*
X44937968Y-35241227D01*
X44845935Y-35135856D01*
X44799287Y-35071329D01*
X44794812Y-35058234D01*
X44815580Y-35008425D01*
X44872969Y-34907713D01*
X44960613Y-34766295D01*
X45072146Y-34594367D01*
X45201203Y-34402124D01*
X45237904Y-34348529D01*
X45371632Y-34153733D01*
X45491607Y-33978353D01*
X45591121Y-33832243D01*
X45663467Y-33725258D01*
X45701936Y-33667255D01*
X45705653Y-33661257D01*
X45700095Y-33615032D01*
X45670593Y-33513398D01*
X45622291Y-33369758D01*
X45560333Y-33197514D01*
X45489863Y-33010066D01*
X45416025Y-32820818D01*
X45343963Y-32643171D01*
X45278822Y-32490527D01*
X45225745Y-32376288D01*
X45189877Y-32313856D01*
X45187327Y-32310861D01*
X45165394Y-32293019D01*
X45128348Y-32275374D01*
X45068059Y-32256101D01*
X44976396Y-32233374D01*
X44845226Y-32205364D01*
X44666418Y-32170247D01*
X44431842Y-32126195D01*
X44133365Y-32071382D01*
X44068740Y-32059597D01*
X43877206Y-32022591D01*
X43710231Y-31986389D01*
X43582568Y-31954485D01*
X43508976Y-31930372D01*
X43499108Y-31924750D01*
X43482847Y-31874910D01*
X43469630Y-31763532D01*
X43459464Y-31603563D01*
X43452360Y-31407950D01*
X43448326Y-31189640D01*
X43447370Y-30961579D01*
X43449502Y-30736714D01*
X43454731Y-30527991D01*
X43463065Y-30348358D01*
X43474513Y-30210762D01*
X43489084Y-30128148D01*
X43497868Y-30111240D01*
X43546770Y-30094184D01*
X43658127Y-30066436D01*
X43820844Y-30030403D01*
X44023826Y-29988493D01*
X44255979Y-29943111D01*
X44382462Y-29919326D01*
X44622445Y-29874465D01*
X44836451Y-29833825D01*
X45014022Y-29799446D01*
X45144698Y-29773365D01*
X45218018Y-29757621D01*
X45230085Y-29754130D01*
X45250481Y-29714779D01*
X45293594Y-29619993D01*
X45353679Y-29483315D01*
X45424987Y-29318286D01*
X45501773Y-29138447D01*
X45578290Y-28957340D01*
X45648790Y-28788507D01*
X45707527Y-28645488D01*
X45748754Y-28541826D01*
X45766724Y-28491061D01*
X45767059Y-28488842D01*
X45746687Y-28448796D01*
X45689573Y-28356639D01*
X45601721Y-28221533D01*
X45489133Y-28052635D01*
X45357811Y-27859105D01*
X45281471Y-27747941D01*
X45142364Y-27544116D01*
X45018812Y-27359063D01*
X44916842Y-27202146D01*
X44842483Y-27082724D01*
X44801763Y-27010160D01*
X44795882Y-26993893D01*
X44821163Y-26956030D01*
X44891052Y-26875186D01*
X44996623Y-26760419D01*
X45128948Y-26620785D01*
X45279099Y-26465342D01*
X45438148Y-26303146D01*
X45597167Y-26143254D01*
X45747229Y-25994724D01*
X45879406Y-25866613D01*
X45984770Y-25767977D01*
X46054393Y-25707873D01*
X46077685Y-25693529D01*
X46115610Y-25713699D01*
X46206317Y-25770363D01*
X46340989Y-25857753D01*
X46510805Y-25970100D01*
X46706946Y-26101638D01*
X46854900Y-26201849D01*
X47602436Y-26710168D01*
X48225556Y-26453298D01*
X48848676Y-26196427D01*
X49186424Y-24404853D01*
X51050929Y-24404853D01*
X51219803Y-25300640D01*
D13*
%TO.C,R3*%
X71927064Y-18310000D02*
X70472936Y-18310000D01*
X71927064Y-16490000D02*
X70472936Y-16490000D01*
%TO.C,D3*%
X69610000Y-21135000D02*
X73670000Y-21135000D01*
X73670000Y-21135000D02*
X73670000Y-18865000D01*
X73670000Y-18865000D02*
X69610000Y-18865000D01*
%TO.C,R2*%
X71977064Y-25910000D02*
X70522936Y-25910000D01*
X71977064Y-24090000D02*
X70522936Y-24090000D01*
%TO.C,R1*%
X71927064Y-33610000D02*
X70472936Y-33610000D01*
X71927064Y-31790000D02*
X70472936Y-31790000D01*
%TO.C,D2*%
X69600000Y-28745000D02*
X73660000Y-28745000D01*
X73660000Y-28745000D02*
X73660000Y-26475000D01*
X73660000Y-26475000D02*
X69600000Y-26475000D01*
%TO.C,D1*%
X69700000Y-36435000D02*
X73760000Y-36435000D01*
X73760000Y-36435000D02*
X73760000Y-34165000D01*
X73760000Y-34165000D02*
X69700000Y-34165000D01*
%TO.C,J6*%
X27470000Y-106630000D02*
X27470000Y-103970000D01*
X27470000Y-106630000D02*
X68170000Y-106630000D01*
X68170000Y-106630000D02*
X68170000Y-103970000D01*
X27470000Y-103970000D02*
X68170000Y-103970000D01*
X24870000Y-103970000D02*
X26200000Y-103970000D01*
X24870000Y-105300000D02*
X24870000Y-103970000D01*
%TO.C,SW4*%
X68500000Y-41000000D02*
X68500000Y-45500000D01*
X72500000Y-39750000D02*
X71000000Y-39750000D01*
X75000000Y-45500000D02*
X75000000Y-41000000D01*
X71000000Y-46750000D02*
X72500000Y-46750000D01*
%TO.C,J5*%
X27210000Y-51990000D02*
X25940000Y-51990000D01*
X27210000Y-50720000D02*
X27210000Y-51990000D01*
X24897071Y-40180000D02*
X24500000Y-40180000D01*
X24897071Y-40940000D02*
X24500000Y-40940000D01*
X15840000Y-40180000D02*
X21840000Y-40180000D01*
X15840000Y-40940000D02*
X15840000Y-40180000D01*
X21840000Y-40940000D02*
X15840000Y-40940000D01*
X24500000Y-41830000D02*
X21840000Y-41830000D01*
X24897071Y-42720000D02*
X24500000Y-42720000D01*
X24897071Y-43480000D02*
X24500000Y-43480000D01*
X15840000Y-42720000D02*
X21840000Y-42720000D01*
X15840000Y-43480000D02*
X15840000Y-42720000D01*
X21840000Y-43480000D02*
X15840000Y-43480000D01*
X24500000Y-44370000D02*
X21840000Y-44370000D01*
X24897071Y-45260000D02*
X24500000Y-45260000D01*
X24897071Y-46020000D02*
X24500000Y-46020000D01*
X15840000Y-45260000D02*
X21840000Y-45260000D01*
X15840000Y-46020000D02*
X15840000Y-45260000D01*
X21840000Y-46020000D02*
X15840000Y-46020000D01*
X24500000Y-46910000D02*
X21840000Y-46910000D01*
X24897071Y-47800000D02*
X24500000Y-47800000D01*
X24897071Y-48560000D02*
X24500000Y-48560000D01*
X15840000Y-47800000D02*
X21840000Y-47800000D01*
X15840000Y-48560000D02*
X15840000Y-47800000D01*
X21840000Y-48560000D02*
X15840000Y-48560000D01*
X24500000Y-49450000D02*
X21840000Y-49450000D01*
X24830000Y-50340000D02*
X24500000Y-50340000D01*
X24830000Y-51100000D02*
X24500000Y-51100000D01*
X21840000Y-50440000D02*
X15840000Y-50440000D01*
X21840000Y-50560000D02*
X15840000Y-50560000D01*
X21840000Y-50680000D02*
X15840000Y-50680000D01*
X21840000Y-50800000D02*
X15840000Y-50800000D01*
X21840000Y-50920000D02*
X15840000Y-50920000D01*
X21840000Y-51040000D02*
X15840000Y-51040000D01*
X15840000Y-50340000D02*
X21840000Y-50340000D01*
X15840000Y-51100000D02*
X15840000Y-50340000D01*
X21840000Y-51100000D02*
X15840000Y-51100000D01*
X21840000Y-52050000D02*
X24500000Y-52050000D01*
X21840000Y-39230000D02*
X21840000Y-52050000D01*
X24500000Y-39230000D02*
X21840000Y-39230000D01*
X24500000Y-52050000D02*
X24500000Y-39230000D01*
%TO.C,J4*%
X24400000Y-63100000D02*
X23400000Y-63100000D01*
X24400000Y-62100000D02*
X24400000Y-63100000D01*
X22517886Y-55790000D02*
X21960000Y-55790000D01*
X22517886Y-56410000D02*
X21960000Y-56410000D01*
X16140000Y-55790000D02*
X20340000Y-55790000D01*
X16140000Y-56410000D02*
X16140000Y-55790000D01*
X20340000Y-56410000D02*
X16140000Y-56410000D01*
X21960000Y-57100000D02*
X20340000Y-57100000D01*
X22517886Y-57790000D02*
X21960000Y-57790000D01*
X22517886Y-58410000D02*
X21960000Y-58410000D01*
X16140000Y-57790000D02*
X20340000Y-57790000D01*
X16140000Y-58410000D02*
X16140000Y-57790000D01*
X20340000Y-58410000D02*
X16140000Y-58410000D01*
X21960000Y-59100000D02*
X20340000Y-59100000D01*
X22517886Y-59790000D02*
X21960000Y-59790000D01*
X22517886Y-60410000D02*
X21960000Y-60410000D01*
X16140000Y-59790000D02*
X20340000Y-59790000D01*
X16140000Y-60410000D02*
X16140000Y-59790000D01*
X20340000Y-60410000D02*
X16140000Y-60410000D01*
X21960000Y-61100000D02*
X20340000Y-61100000D01*
X22465000Y-61790000D02*
X21960000Y-61790000D01*
X22465000Y-62410000D02*
X21960000Y-62410000D01*
X20340000Y-61870000D02*
X16140000Y-61870000D01*
X20340000Y-61990000D02*
X16140000Y-61990000D01*
X20340000Y-62110000D02*
X16140000Y-62110000D01*
X20340000Y-62230000D02*
X16140000Y-62230000D01*
X20340000Y-62350000D02*
X16140000Y-62350000D01*
X16140000Y-61790000D02*
X20340000Y-61790000D01*
X16140000Y-62410000D02*
X16140000Y-61790000D01*
X20340000Y-62410000D02*
X16140000Y-62410000D01*
X20340000Y-63160000D02*
X21960000Y-63160000D01*
X20340000Y-55040000D02*
X20340000Y-63160000D01*
X21960000Y-55040000D02*
X20340000Y-55040000D01*
X21960000Y-63160000D02*
X21960000Y-55040000D01*
%TO.C,SW3*%
X68500000Y-52000000D02*
X68500000Y-56500000D01*
X72500000Y-50750000D02*
X71000000Y-50750000D01*
X75000000Y-56500000D02*
X75000000Y-52000000D01*
X71000000Y-57750000D02*
X72500000Y-57750000D01*
%TO.C,SW2*%
X68500000Y-63000000D02*
X68500000Y-67500000D01*
X72500000Y-61750000D02*
X71000000Y-61750000D01*
X75000000Y-67500000D02*
X75000000Y-63000000D01*
X71000000Y-68750000D02*
X72500000Y-68750000D01*
%TO.C,SW1*%
X68500000Y-74000000D02*
X68500000Y-78500000D01*
X72500000Y-72750000D02*
X71000000Y-72750000D01*
X75000000Y-78500000D02*
X75000000Y-74000000D01*
X71000000Y-79750000D02*
X72500000Y-79750000D01*
%TO.C,J3*%
X21200000Y-34800000D02*
X21200000Y-36800000D01*
X18600000Y-34800000D02*
X18600000Y-36800000D01*
X27700000Y-34800000D02*
X21200000Y-34800000D01*
X32100000Y-34800000D02*
X30900000Y-34800000D01*
X32100000Y-28600000D02*
X32100000Y-34800000D01*
X23200000Y-28600000D02*
X32100000Y-28600000D01*
X17400000Y-28600000D02*
X20600000Y-28600000D01*
X17400000Y-29100000D02*
X17400000Y-28600000D01*
X14900000Y-29100000D02*
X17400000Y-29100000D01*
X14900000Y-34300000D02*
X14900000Y-29100000D01*
X17400000Y-34300000D02*
X14900000Y-34300000D01*
X17400000Y-34800000D02*
X17400000Y-34300000D01*
X18600000Y-34800000D02*
X17400000Y-34800000D01*
%TO.C,J2*%
X21100000Y-22500000D02*
X21100000Y-24500000D01*
X18500000Y-22500000D02*
X18500000Y-24500000D01*
X27600000Y-22500000D02*
X21100000Y-22500000D01*
X32000000Y-22500000D02*
X30800000Y-22500000D01*
X32000000Y-16300000D02*
X32000000Y-22500000D01*
X23100000Y-16300000D02*
X32000000Y-16300000D01*
X17300000Y-16300000D02*
X20500000Y-16300000D01*
X17300000Y-16800000D02*
X17300000Y-16300000D01*
X14800000Y-16800000D02*
X17300000Y-16800000D01*
X14800000Y-22000000D02*
X14800000Y-16800000D01*
X17300000Y-22000000D02*
X14800000Y-22000000D01*
X17300000Y-22500000D02*
X17300000Y-22000000D01*
X18500000Y-22500000D02*
X17300000Y-22500000D01*
%TO.C,J1*%
X15120000Y-66740000D02*
X23230000Y-66740000D01*
X15120000Y-66740000D02*
X15120000Y-66090000D01*
X30080000Y-66740000D02*
X30080000Y-80060000D01*
X30080000Y-66740000D02*
X26750000Y-66740000D01*
X30080000Y-80060000D02*
X26750000Y-80060000D01*
X14600000Y-80710000D02*
X15120000Y-80710000D01*
X14600000Y-66090000D02*
X14600000Y-80710000D01*
X23230000Y-80060000D02*
X15120000Y-80060000D01*
X15120000Y-66090000D02*
X14600000Y-66090000D01*
X15120000Y-80710000D02*
X15120000Y-80060000D01*
X30300000Y-69000000D02*
X30300000Y-70800000D01*
D14*
%TO.C,U2*%
X63643000Y-14171000D02*
X63643000Y-71829000D01*
X35957000Y-71829000D02*
X63643000Y-71829000D01*
X35957000Y-14171000D02*
X35957000Y-71829000D01*
X35957000Y-14171000D02*
X63643000Y-14171000D01*
D13*
X41800000Y-71800000D02*
X41800000Y-56900000D01*
X41800000Y-56900000D02*
X57200000Y-56900000D01*
X57200000Y-56900000D02*
X57200000Y-71900000D01*
D15*
X34232456Y-22400000D02*
G75*
G03*
X34232456Y-22400000I-632456J0D01*
G01*
D16*
%TO.C,U1*%
G36*
X50227000Y-91453000D02*
G01*
X49973000Y-91707000D01*
X49719000Y-91326000D01*
X49973000Y-91072000D01*
X50227000Y-91453000D01*
G37*
X50227000Y-91453000D02*
X49973000Y-91707000D01*
X49719000Y-91326000D01*
X49973000Y-91072000D01*
X50227000Y-91453000D01*
G36*
X49846000Y-91834000D02*
G01*
X49592000Y-92088000D01*
X49338000Y-91707000D01*
X49592000Y-91453000D01*
X49846000Y-91834000D01*
G37*
X49846000Y-91834000D02*
X49592000Y-92088000D01*
X49338000Y-91707000D01*
X49592000Y-91453000D01*
X49846000Y-91834000D01*
G36*
X47941000Y-91072000D02*
G01*
X47687000Y-91326000D01*
X47433000Y-90945000D01*
X47687000Y-90691000D01*
X47941000Y-91072000D01*
G37*
X47941000Y-91072000D02*
X47687000Y-91326000D01*
X47433000Y-90945000D01*
X47687000Y-90691000D01*
X47941000Y-91072000D01*
G36*
X48322000Y-91580000D02*
G01*
X48068000Y-91834000D01*
X47814000Y-91453000D01*
X48068000Y-91199000D01*
X48322000Y-91580000D01*
G37*
X48322000Y-91580000D02*
X48068000Y-91834000D01*
X47814000Y-91453000D01*
X48068000Y-91199000D01*
X48322000Y-91580000D01*
G36*
X48703000Y-92088000D02*
G01*
X48449000Y-92342000D01*
X48195000Y-91961000D01*
X48449000Y-91707000D01*
X48703000Y-92088000D01*
G37*
X48703000Y-92088000D02*
X48449000Y-92342000D01*
X48195000Y-91961000D01*
X48449000Y-91707000D01*
X48703000Y-92088000D01*
G36*
X48703000Y-91199000D02*
G01*
X48449000Y-91453000D01*
X48195000Y-91072000D01*
X48449000Y-90818000D01*
X48703000Y-91199000D01*
G37*
X48703000Y-91199000D02*
X48449000Y-91453000D01*
X48195000Y-91072000D01*
X48449000Y-90818000D01*
X48703000Y-91199000D01*
G36*
X49084000Y-91707000D02*
G01*
X48830000Y-91961000D01*
X48576000Y-91580000D01*
X48830000Y-91326000D01*
X49084000Y-91707000D01*
G37*
X49084000Y-91707000D02*
X48830000Y-91961000D01*
X48576000Y-91580000D01*
X48830000Y-91326000D01*
X49084000Y-91707000D01*
G36*
X49465000Y-92215000D02*
G01*
X49211000Y-92469000D01*
X48957000Y-92088000D01*
X49211000Y-91834000D01*
X49465000Y-92215000D01*
G37*
X49465000Y-92215000D02*
X49211000Y-92469000D01*
X48957000Y-92088000D01*
X49211000Y-91834000D01*
X49465000Y-92215000D01*
D10*
X16550000Y-100650000D02*
X16550000Y-82870000D01*
X77510000Y-100650000D02*
X16550000Y-100650000D01*
X77510000Y-82870000D02*
X77510000Y-100650000D01*
X16550000Y-82870000D02*
X77510000Y-82870000D01*
X21630000Y-95570000D02*
X16550000Y-95570000D01*
X21630000Y-87950000D02*
X16550000Y-87950000D01*
X21630000Y-95570000D02*
X21630000Y-87950000D01*
X15280000Y-87950000D02*
X16550000Y-87950000D01*
X15280000Y-95570000D02*
X15280000Y-87950000D01*
X16550000Y-95570000D02*
X15280000Y-95570000D01*
X77510000Y-85410000D02*
X64810000Y-85410000D01*
X64810000Y-85410000D02*
X64810000Y-98110000D01*
X64810000Y-98110000D02*
X77510000Y-98110000D01*
X77510000Y-86680000D02*
X76240000Y-86680000D01*
X76240000Y-86680000D02*
X76240000Y-96840000D01*
X76240000Y-96840000D02*
X77510000Y-96840000D01*
X61000000Y-90490000D02*
X61000000Y-93030000D01*
X61000000Y-93030000D02*
X57190000Y-93030000D01*
X57190000Y-93030000D02*
X57190000Y-90490000D01*
X57190000Y-90490000D02*
X61000000Y-90490000D01*
X22849200Y-95059200D02*
X35549200Y-95059200D01*
X35549200Y-95059200D02*
X35549200Y-97599200D01*
X35549200Y-97599200D02*
X22849200Y-97599200D01*
X22849200Y-97599200D02*
X22849200Y-95059200D01*
X22849200Y-95059200D02*
X25389200Y-95059200D01*
X25389200Y-95059200D02*
X25389200Y-97599200D01*
X29780000Y-85658400D02*
X29780000Y-91658400D01*
X29780000Y-91658400D02*
X33780000Y-91658400D01*
X33780000Y-91658400D02*
X33780000Y-85408400D01*
X33780000Y-85408400D02*
X29780000Y-85408400D01*
X29780000Y-85408400D02*
X29780000Y-85658400D01*
X39410000Y-98110000D02*
X52110000Y-98110000D01*
X52110000Y-98110000D02*
X52110000Y-85410000D01*
X52110000Y-85410000D02*
X39410000Y-85410000D01*
X39410000Y-85410000D02*
X39410000Y-98110000D01*
X59993026Y-91760000D02*
G75*
G03*
X59993026Y-91760000I-898026J0D01*
G01*
%TO.C,R3*%
X71033333Y-19672380D02*
X70700000Y-19196190D01*
X70461904Y-19672380D02*
X70461904Y-18672380D01*
X70842857Y-18672380D01*
X70938095Y-18720000D01*
X70985714Y-18767619D01*
X71033333Y-18862857D01*
X71033333Y-19005714D01*
X70985714Y-19100952D01*
X70938095Y-19148571D01*
X70842857Y-19196190D01*
X70461904Y-19196190D01*
X71366666Y-18672380D02*
X71985714Y-18672380D01*
X71652380Y-19053333D01*
X71795238Y-19053333D01*
X71890476Y-19100952D01*
X71938095Y-19148571D01*
X71985714Y-19243809D01*
X71985714Y-19481904D01*
X71938095Y-19577142D01*
X71890476Y-19624761D01*
X71795238Y-19672380D01*
X71509523Y-19672380D01*
X71414285Y-19624761D01*
X71366666Y-19577142D01*
%TO.C,D3*%
X70471904Y-22272380D02*
X70471904Y-21272380D01*
X70710000Y-21272380D01*
X70852857Y-21320000D01*
X70948095Y-21415238D01*
X70995714Y-21510476D01*
X71043333Y-21700952D01*
X71043333Y-21843809D01*
X70995714Y-22034285D01*
X70948095Y-22129523D01*
X70852857Y-22224761D01*
X70710000Y-22272380D01*
X70471904Y-22272380D01*
X71376666Y-21272380D02*
X71995714Y-21272380D01*
X71662380Y-21653333D01*
X71805238Y-21653333D01*
X71900476Y-21700952D01*
X71948095Y-21748571D01*
X71995714Y-21843809D01*
X71995714Y-22081904D01*
X71948095Y-22177142D01*
X71900476Y-22224761D01*
X71805238Y-22272380D01*
X71519523Y-22272380D01*
X71424285Y-22224761D01*
X71376666Y-22177142D01*
%TO.C,R2*%
X71083333Y-27272380D02*
X70750000Y-26796190D01*
X70511904Y-27272380D02*
X70511904Y-26272380D01*
X70892857Y-26272380D01*
X70988095Y-26320000D01*
X71035714Y-26367619D01*
X71083333Y-26462857D01*
X71083333Y-26605714D01*
X71035714Y-26700952D01*
X70988095Y-26748571D01*
X70892857Y-26796190D01*
X70511904Y-26796190D01*
X71464285Y-26367619D02*
X71511904Y-26320000D01*
X71607142Y-26272380D01*
X71845238Y-26272380D01*
X71940476Y-26320000D01*
X71988095Y-26367619D01*
X72035714Y-26462857D01*
X72035714Y-26558095D01*
X71988095Y-26700952D01*
X71416666Y-27272380D01*
X72035714Y-27272380D01*
%TO.C,R1*%
X71033333Y-34972380D02*
X70700000Y-34496190D01*
X70461904Y-34972380D02*
X70461904Y-33972380D01*
X70842857Y-33972380D01*
X70938095Y-34020000D01*
X70985714Y-34067619D01*
X71033333Y-34162857D01*
X71033333Y-34305714D01*
X70985714Y-34400952D01*
X70938095Y-34448571D01*
X70842857Y-34496190D01*
X70461904Y-34496190D01*
X71985714Y-34972380D02*
X71414285Y-34972380D01*
X71700000Y-34972380D02*
X71700000Y-33972380D01*
X71604761Y-34115238D01*
X71509523Y-34210476D01*
X71414285Y-34258095D01*
%TO.C,D2*%
X70461904Y-29882380D02*
X70461904Y-28882380D01*
X70700000Y-28882380D01*
X70842857Y-28930000D01*
X70938095Y-29025238D01*
X70985714Y-29120476D01*
X71033333Y-29310952D01*
X71033333Y-29453809D01*
X70985714Y-29644285D01*
X70938095Y-29739523D01*
X70842857Y-29834761D01*
X70700000Y-29882380D01*
X70461904Y-29882380D01*
X71414285Y-28977619D02*
X71461904Y-28930000D01*
X71557142Y-28882380D01*
X71795238Y-28882380D01*
X71890476Y-28930000D01*
X71938095Y-28977619D01*
X71985714Y-29072857D01*
X71985714Y-29168095D01*
X71938095Y-29310952D01*
X71366666Y-29882380D01*
X71985714Y-29882380D01*
%TO.C,D1*%
X70561904Y-37572380D02*
X70561904Y-36572380D01*
X70800000Y-36572380D01*
X70942857Y-36620000D01*
X71038095Y-36715238D01*
X71085714Y-36810476D01*
X71133333Y-37000952D01*
X71133333Y-37143809D01*
X71085714Y-37334285D01*
X71038095Y-37429523D01*
X70942857Y-37524761D01*
X70800000Y-37572380D01*
X70561904Y-37572380D01*
X72085714Y-37572380D02*
X71514285Y-37572380D01*
X71800000Y-37572380D02*
X71800000Y-36572380D01*
X71704761Y-36715238D01*
X71609523Y-36810476D01*
X71514285Y-36858095D01*
%TO.C,J6*%
X22882380Y-105633333D02*
X23596666Y-105633333D01*
X23739523Y-105680952D01*
X23834761Y-105776190D01*
X23882380Y-105919047D01*
X23882380Y-106014285D01*
X22882380Y-104728571D02*
X22882380Y-104919047D01*
X22930000Y-105014285D01*
X22977619Y-105061904D01*
X23120476Y-105157142D01*
X23310952Y-105204761D01*
X23691904Y-105204761D01*
X23787142Y-105157142D01*
X23834761Y-105109523D01*
X23882380Y-105014285D01*
X23882380Y-104823809D01*
X23834761Y-104728571D01*
X23787142Y-104680952D01*
X23691904Y-104633333D01*
X23453809Y-104633333D01*
X23358571Y-104680952D01*
X23310952Y-104728571D01*
X23263333Y-104823809D01*
X23263333Y-105014285D01*
X23310952Y-105109523D01*
X23358571Y-105157142D01*
X23453809Y-105204761D01*
%TO.C,SW4*%
X76404761Y-44583333D02*
X76452380Y-44440476D01*
X76452380Y-44202380D01*
X76404761Y-44107142D01*
X76357142Y-44059523D01*
X76261904Y-44011904D01*
X76166666Y-44011904D01*
X76071428Y-44059523D01*
X76023809Y-44107142D01*
X75976190Y-44202380D01*
X75928571Y-44392857D01*
X75880952Y-44488095D01*
X75833333Y-44535714D01*
X75738095Y-44583333D01*
X75642857Y-44583333D01*
X75547619Y-44535714D01*
X75500000Y-44488095D01*
X75452380Y-44392857D01*
X75452380Y-44154761D01*
X75500000Y-44011904D01*
X75452380Y-43678571D02*
X76452380Y-43440476D01*
X75738095Y-43250000D01*
X76452380Y-43059523D01*
X75452380Y-42821428D01*
X75785714Y-42011904D02*
X76452380Y-42011904D01*
X75404761Y-42250000D02*
X76119047Y-42488095D01*
X76119047Y-41869047D01*
%TO.C,H4*%
X69538095Y-101652380D02*
X69538095Y-100652380D01*
X69538095Y-101128571D02*
X70109523Y-101128571D01*
X70109523Y-101652380D02*
X70109523Y-100652380D01*
X71014285Y-100985714D02*
X71014285Y-101652380D01*
X70776190Y-100604761D02*
X70538095Y-101319047D01*
X71157142Y-101319047D01*
%TO.C,H3*%
X70238095Y-8452380D02*
X70238095Y-7452380D01*
X70238095Y-7928571D02*
X70809523Y-7928571D01*
X70809523Y-8452380D02*
X70809523Y-7452380D01*
X71190476Y-7452380D02*
X71809523Y-7452380D01*
X71476190Y-7833333D01*
X71619047Y-7833333D01*
X71714285Y-7880952D01*
X71761904Y-7928571D01*
X71809523Y-8023809D01*
X71809523Y-8261904D01*
X71761904Y-8357142D01*
X71714285Y-8404761D01*
X71619047Y-8452380D01*
X71333333Y-8452380D01*
X71238095Y-8404761D01*
X71190476Y-8357142D01*
%TO.C,H2*%
X20538095Y-105452380D02*
X20538095Y-104452380D01*
X20538095Y-104928571D02*
X21109523Y-104928571D01*
X21109523Y-105452380D02*
X21109523Y-104452380D01*
X21538095Y-104547619D02*
X21585714Y-104500000D01*
X21680952Y-104452380D01*
X21919047Y-104452380D01*
X22014285Y-104500000D01*
X22061904Y-104547619D01*
X22109523Y-104642857D01*
X22109523Y-104738095D01*
X22061904Y-104880952D01*
X21490476Y-105452380D01*
X22109523Y-105452380D01*
%TO.C,H1*%
X19238095Y-8452380D02*
X19238095Y-7452380D01*
X19238095Y-7928571D02*
X19809523Y-7928571D01*
X19809523Y-8452380D02*
X19809523Y-7452380D01*
X20809523Y-8452380D02*
X20238095Y-8452380D01*
X20523809Y-8452380D02*
X20523809Y-7452380D01*
X20428571Y-7595238D01*
X20333333Y-7690476D01*
X20238095Y-7738095D01*
%TO.C,J5*%
X27866666Y-37752380D02*
X27866666Y-38466666D01*
X27819047Y-38609523D01*
X27723809Y-38704761D01*
X27580952Y-38752380D01*
X27485714Y-38752380D01*
X28819047Y-37752380D02*
X28342857Y-37752380D01*
X28295238Y-38228571D01*
X28342857Y-38180952D01*
X28438095Y-38133333D01*
X28676190Y-38133333D01*
X28771428Y-38180952D01*
X28819047Y-38228571D01*
X28866666Y-38323809D01*
X28866666Y-38561904D01*
X28819047Y-38657142D01*
X28771428Y-38704761D01*
X28676190Y-38752380D01*
X28438095Y-38752380D01*
X28342857Y-38704761D01*
X28295238Y-38657142D01*
%TO.C,J4*%
X25566666Y-53652380D02*
X25566666Y-54366666D01*
X25519047Y-54509523D01*
X25423809Y-54604761D01*
X25280952Y-54652380D01*
X25185714Y-54652380D01*
X26471428Y-53985714D02*
X26471428Y-54652380D01*
X26233333Y-53604761D02*
X25995238Y-54319047D01*
X26614285Y-54319047D01*
%TO.C,SW3*%
X76404761Y-55583333D02*
X76452380Y-55440476D01*
X76452380Y-55202380D01*
X76404761Y-55107142D01*
X76357142Y-55059523D01*
X76261904Y-55011904D01*
X76166666Y-55011904D01*
X76071428Y-55059523D01*
X76023809Y-55107142D01*
X75976190Y-55202380D01*
X75928571Y-55392857D01*
X75880952Y-55488095D01*
X75833333Y-55535714D01*
X75738095Y-55583333D01*
X75642857Y-55583333D01*
X75547619Y-55535714D01*
X75500000Y-55488095D01*
X75452380Y-55392857D01*
X75452380Y-55154761D01*
X75500000Y-55011904D01*
X75452380Y-54678571D02*
X76452380Y-54440476D01*
X75738095Y-54250000D01*
X76452380Y-54059523D01*
X75452380Y-53821428D01*
X75452380Y-53535714D02*
X75452380Y-52916666D01*
X75833333Y-53250000D01*
X75833333Y-53107142D01*
X75880952Y-53011904D01*
X75928571Y-52964285D01*
X76023809Y-52916666D01*
X76261904Y-52916666D01*
X76357142Y-52964285D01*
X76404761Y-53011904D01*
X76452380Y-53107142D01*
X76452380Y-53392857D01*
X76404761Y-53488095D01*
X76357142Y-53535714D01*
%TO.C,SW2*%
X76404761Y-66583333D02*
X76452380Y-66440476D01*
X76452380Y-66202380D01*
X76404761Y-66107142D01*
X76357142Y-66059523D01*
X76261904Y-66011904D01*
X76166666Y-66011904D01*
X76071428Y-66059523D01*
X76023809Y-66107142D01*
X75976190Y-66202380D01*
X75928571Y-66392857D01*
X75880952Y-66488095D01*
X75833333Y-66535714D01*
X75738095Y-66583333D01*
X75642857Y-66583333D01*
X75547619Y-66535714D01*
X75500000Y-66488095D01*
X75452380Y-66392857D01*
X75452380Y-66154761D01*
X75500000Y-66011904D01*
X75452380Y-65678571D02*
X76452380Y-65440476D01*
X75738095Y-65250000D01*
X76452380Y-65059523D01*
X75452380Y-64821428D01*
X75547619Y-64488095D02*
X75500000Y-64440476D01*
X75452380Y-64345238D01*
X75452380Y-64107142D01*
X75500000Y-64011904D01*
X75547619Y-63964285D01*
X75642857Y-63916666D01*
X75738095Y-63916666D01*
X75880952Y-63964285D01*
X76452380Y-64535714D01*
X76452380Y-63916666D01*
%TO.C,SW1*%
X76404761Y-77583333D02*
X76452380Y-77440476D01*
X76452380Y-77202380D01*
X76404761Y-77107142D01*
X76357142Y-77059523D01*
X76261904Y-77011904D01*
X76166666Y-77011904D01*
X76071428Y-77059523D01*
X76023809Y-77107142D01*
X75976190Y-77202380D01*
X75928571Y-77392857D01*
X75880952Y-77488095D01*
X75833333Y-77535714D01*
X75738095Y-77583333D01*
X75642857Y-77583333D01*
X75547619Y-77535714D01*
X75500000Y-77488095D01*
X75452380Y-77392857D01*
X75452380Y-77154761D01*
X75500000Y-77011904D01*
X75452380Y-76678571D02*
X76452380Y-76440476D01*
X75738095Y-76250000D01*
X76452380Y-76059523D01*
X75452380Y-75821428D01*
X76452380Y-74916666D02*
X76452380Y-75488095D01*
X76452380Y-75202380D02*
X75452380Y-75202380D01*
X75595238Y-75297619D01*
X75690476Y-75392857D01*
X75738095Y-75488095D01*
%TO.C,J3*%
X22566666Y-24952380D02*
X22566666Y-25666666D01*
X22519047Y-25809523D01*
X22423809Y-25904761D01*
X22280952Y-25952380D01*
X22185714Y-25952380D01*
X22947619Y-24952380D02*
X23566666Y-24952380D01*
X23233333Y-25333333D01*
X23376190Y-25333333D01*
X23471428Y-25380952D01*
X23519047Y-25428571D01*
X23566666Y-25523809D01*
X23566666Y-25761904D01*
X23519047Y-25857142D01*
X23471428Y-25904761D01*
X23376190Y-25952380D01*
X23090476Y-25952380D01*
X22995238Y-25904761D01*
X22947619Y-25857142D01*
%TO.C,J2*%
X22566666Y-12352380D02*
X22566666Y-13066666D01*
X22519047Y-13209523D01*
X22423809Y-13304761D01*
X22280952Y-13352380D01*
X22185714Y-13352380D01*
X22995238Y-12447619D02*
X23042857Y-12400000D01*
X23138095Y-12352380D01*
X23376190Y-12352380D01*
X23471428Y-12400000D01*
X23519047Y-12447619D01*
X23566666Y-12542857D01*
X23566666Y-12638095D01*
X23519047Y-12780952D01*
X22947619Y-13352380D01*
X23566666Y-13352380D01*
%TO.C,J1*%
X30342380Y-73733333D02*
X31056666Y-73733333D01*
X31199523Y-73780952D01*
X31294761Y-73876190D01*
X31342380Y-74019047D01*
X31342380Y-74114285D01*
X31342380Y-72733333D02*
X31342380Y-73304761D01*
X31342380Y-73019047D02*
X30342380Y-73019047D01*
X30485238Y-73114285D01*
X30580476Y-73209523D01*
X30628095Y-73304761D01*
%TO.C,U2*%
X64278095Y-72932380D02*
X64278095Y-73741904D01*
X64325714Y-73837142D01*
X64373333Y-73884761D01*
X64468571Y-73932380D01*
X64659047Y-73932380D01*
X64754285Y-73884761D01*
X64801904Y-73837142D01*
X64849523Y-73741904D01*
X64849523Y-72932380D01*
X65278095Y-73027619D02*
X65325714Y-72980000D01*
X65420952Y-72932380D01*
X65659047Y-72932380D01*
X65754285Y-72980000D01*
X65801904Y-73027619D01*
X65849523Y-73122857D01*
X65849523Y-73218095D01*
X65801904Y-73360952D01*
X65230476Y-73932380D01*
X65849523Y-73932380D01*
X48614285Y-64904761D02*
X48757142Y-64952380D01*
X48995238Y-64952380D01*
X49090476Y-64904761D01*
X49138095Y-64857142D01*
X49185714Y-64761904D01*
X49185714Y-64666666D01*
X49138095Y-64571428D01*
X49090476Y-64523809D01*
X48995238Y-64476190D01*
X48804761Y-64428571D01*
X48709523Y-64380952D01*
X48661904Y-64333333D01*
X48614285Y-64238095D01*
X48614285Y-64142857D01*
X48661904Y-64047619D01*
X48709523Y-64000000D01*
X48804761Y-63952380D01*
X49042857Y-63952380D01*
X49185714Y-64000000D01*
X49614285Y-64952380D02*
X49614285Y-63952380D01*
X49852380Y-63952380D01*
X49995238Y-64000000D01*
X50090476Y-64095238D01*
X50138095Y-64190476D01*
X50185714Y-64380952D01*
X50185714Y-64523809D01*
X50138095Y-64714285D01*
X50090476Y-64809523D01*
X49995238Y-64904761D01*
X49852380Y-64952380D01*
X49614285Y-64952380D01*
X43395238Y-43166666D02*
X43871428Y-43166666D01*
X43300000Y-43452380D02*
X43633333Y-42452380D01*
X43966666Y-43452380D01*
X44728571Y-43452380D02*
X44728571Y-42452380D01*
X44728571Y-43404761D02*
X44633333Y-43452380D01*
X44442857Y-43452380D01*
X44347619Y-43404761D01*
X44300000Y-43357142D01*
X44252380Y-43261904D01*
X44252380Y-42976190D01*
X44300000Y-42880952D01*
X44347619Y-42833333D01*
X44442857Y-42785714D01*
X44633333Y-42785714D01*
X44728571Y-42833333D01*
X45633333Y-43452380D02*
X45633333Y-42928571D01*
X45585714Y-42833333D01*
X45490476Y-42785714D01*
X45300000Y-42785714D01*
X45204761Y-42833333D01*
X45633333Y-43404761D02*
X45538095Y-43452380D01*
X45300000Y-43452380D01*
X45204761Y-43404761D01*
X45157142Y-43309523D01*
X45157142Y-43214285D01*
X45204761Y-43119047D01*
X45300000Y-43071428D01*
X45538095Y-43071428D01*
X45633333Y-43023809D01*
X45966666Y-42785714D02*
X46347619Y-42785714D01*
X46109523Y-43452380D02*
X46109523Y-42595238D01*
X46157142Y-42500000D01*
X46252380Y-42452380D01*
X46347619Y-42452380D01*
X46680952Y-43452380D02*
X46680952Y-42785714D01*
X46680952Y-42976190D02*
X46728571Y-42880952D01*
X46776190Y-42833333D01*
X46871428Y-42785714D01*
X46966666Y-42785714D01*
X47728571Y-42785714D02*
X47728571Y-43452380D01*
X47300000Y-42785714D02*
X47300000Y-43309523D01*
X47347619Y-43404761D01*
X47442857Y-43452380D01*
X47585714Y-43452380D01*
X47680952Y-43404761D01*
X47728571Y-43357142D01*
X48204761Y-43452380D02*
X48204761Y-42785714D01*
X48204761Y-42452380D02*
X48157142Y-42500000D01*
X48204761Y-42547619D01*
X48252380Y-42500000D01*
X48204761Y-42452380D01*
X48204761Y-42547619D01*
X48538095Y-42785714D02*
X48919047Y-42785714D01*
X48680952Y-42452380D02*
X48680952Y-43309523D01*
X48728571Y-43404761D01*
X48823809Y-43452380D01*
X48919047Y-43452380D01*
X49014285Y-43547619D02*
X49776190Y-43547619D01*
X49871428Y-42452380D02*
X50204761Y-43452380D01*
X50538095Y-42452380D01*
X50823809Y-43404761D02*
X50966666Y-43452380D01*
X51204761Y-43452380D01*
X51300000Y-43404761D01*
X51347619Y-43357142D01*
X51395238Y-43261904D01*
X51395238Y-43166666D01*
X51347619Y-43071428D01*
X51300000Y-43023809D01*
X51204761Y-42976190D01*
X51014285Y-42928571D01*
X50919047Y-42880952D01*
X50871428Y-42833333D01*
X50823809Y-42738095D01*
X50823809Y-42642857D01*
X50871428Y-42547619D01*
X50919047Y-42500000D01*
X51014285Y-42452380D01*
X51252380Y-42452380D01*
X51395238Y-42500000D01*
X52347619Y-43452380D02*
X51776190Y-43452380D01*
X52061904Y-43452380D02*
X52061904Y-42452380D01*
X51966666Y-42595238D01*
X51871428Y-42690476D01*
X51776190Y-42738095D01*
X52966666Y-42452380D02*
X53061904Y-42452380D01*
X53157142Y-42500000D01*
X53204761Y-42547619D01*
X53252380Y-42642857D01*
X53300000Y-42833333D01*
X53300000Y-43071428D01*
X53252380Y-43261904D01*
X53204761Y-43357142D01*
X53157142Y-43404761D01*
X53061904Y-43452380D01*
X52966666Y-43452380D01*
X52871428Y-43404761D01*
X52823809Y-43357142D01*
X52776190Y-43261904D01*
X52728571Y-43071428D01*
X52728571Y-42833333D01*
X52776190Y-42642857D01*
X52823809Y-42547619D01*
X52871428Y-42500000D01*
X52966666Y-42452380D01*
X54204761Y-42452380D02*
X53728571Y-42452380D01*
X53680952Y-42928571D01*
X53728571Y-42880952D01*
X53823809Y-42833333D01*
X54061904Y-42833333D01*
X54157142Y-42880952D01*
X54204761Y-42928571D01*
X54252380Y-43023809D01*
X54252380Y-43261904D01*
X54204761Y-43357142D01*
X54157142Y-43404761D01*
X54061904Y-43452380D01*
X53823809Y-43452380D01*
X53728571Y-43404761D01*
X53680952Y-43357142D01*
X54585714Y-42452380D02*
X55204761Y-42452380D01*
X54871428Y-42833333D01*
X55014285Y-42833333D01*
X55109523Y-42880952D01*
X55157142Y-42928571D01*
X55204761Y-43023809D01*
X55204761Y-43261904D01*
X55157142Y-43357142D01*
X55109523Y-43404761D01*
X55014285Y-43452380D01*
X54728571Y-43452380D01*
X54633333Y-43404761D01*
X54585714Y-43357142D01*
X55966666Y-42928571D02*
X56109523Y-42976190D01*
X56157142Y-43023809D01*
X56204761Y-43119047D01*
X56204761Y-43261904D01*
X56157142Y-43357142D01*
X56109523Y-43404761D01*
X56014285Y-43452380D01*
X55633333Y-43452380D01*
X55633333Y-42452380D01*
X55966666Y-42452380D01*
X56061904Y-42500000D01*
X56109523Y-42547619D01*
X56157142Y-42642857D01*
X56157142Y-42738095D01*
X56109523Y-42833333D01*
X56061904Y-42880952D01*
X55966666Y-42928571D01*
X55633333Y-42928571D01*
%TO.C,U1*%
X46268095Y-81052380D02*
X46268095Y-81861904D01*
X46315714Y-81957142D01*
X46363333Y-82004761D01*
X46458571Y-82052380D01*
X46649047Y-82052380D01*
X46744285Y-82004761D01*
X46791904Y-81957142D01*
X46839523Y-81861904D01*
X46839523Y-81052380D01*
X47839523Y-82052380D02*
X47268095Y-82052380D01*
X47553809Y-82052380D02*
X47553809Y-81052380D01*
X47458571Y-81195238D01*
X47363333Y-81290476D01*
X47268095Y-81338095D01*
X25254676Y-93701580D02*
X25254676Y-94511104D01*
X25302295Y-94606342D01*
X25349914Y-94653961D01*
X25445152Y-94701580D01*
X25635628Y-94701580D01*
X25730866Y-94653961D01*
X25778485Y-94606342D01*
X25826104Y-94511104D01*
X25826104Y-93701580D01*
X26254676Y-94653961D02*
X26397533Y-94701580D01*
X26635628Y-94701580D01*
X26730866Y-94653961D01*
X26778485Y-94606342D01*
X26826104Y-94511104D01*
X26826104Y-94415866D01*
X26778485Y-94320628D01*
X26730866Y-94273009D01*
X26635628Y-94225390D01*
X26445152Y-94177771D01*
X26349914Y-94130152D01*
X26302295Y-94082533D01*
X26254676Y-93987295D01*
X26254676Y-93892057D01*
X26302295Y-93796819D01*
X26349914Y-93749200D01*
X26445152Y-93701580D01*
X26683247Y-93701580D01*
X26826104Y-93749200D01*
X27588009Y-94177771D02*
X27730866Y-94225390D01*
X27778485Y-94273009D01*
X27826104Y-94368247D01*
X27826104Y-94511104D01*
X27778485Y-94606342D01*
X27730866Y-94653961D01*
X27635628Y-94701580D01*
X27254676Y-94701580D01*
X27254676Y-93701580D01*
X27588009Y-93701580D01*
X27683247Y-93749200D01*
X27730866Y-93796819D01*
X27778485Y-93892057D01*
X27778485Y-93987295D01*
X27730866Y-94082533D01*
X27683247Y-94130152D01*
X27588009Y-94177771D01*
X27254676Y-94177771D01*
X29016580Y-94701580D02*
X29016580Y-93701580D01*
X29016580Y-94177771D02*
X29588009Y-94177771D01*
X29588009Y-94701580D02*
X29588009Y-93701580D01*
X30207057Y-94701580D02*
X30111819Y-94653961D01*
X30064200Y-94606342D01*
X30016580Y-94511104D01*
X30016580Y-94225390D01*
X30064200Y-94130152D01*
X30111819Y-94082533D01*
X30207057Y-94034914D01*
X30349914Y-94034914D01*
X30445152Y-94082533D01*
X30492771Y-94130152D01*
X30540390Y-94225390D01*
X30540390Y-94511104D01*
X30492771Y-94606342D01*
X30445152Y-94653961D01*
X30349914Y-94701580D01*
X30207057Y-94701580D01*
X30921342Y-94653961D02*
X31016580Y-94701580D01*
X31207057Y-94701580D01*
X31302295Y-94653961D01*
X31349914Y-94558723D01*
X31349914Y-94511104D01*
X31302295Y-94415866D01*
X31207057Y-94368247D01*
X31064200Y-94368247D01*
X30968961Y-94320628D01*
X30921342Y-94225390D01*
X30921342Y-94177771D01*
X30968961Y-94082533D01*
X31064200Y-94034914D01*
X31207057Y-94034914D01*
X31302295Y-94082533D01*
X31635628Y-94034914D02*
X32016580Y-94034914D01*
X31778485Y-93701580D02*
X31778485Y-94558723D01*
X31826104Y-94653961D01*
X31921342Y-94701580D01*
X32016580Y-94701580D01*
X34893571Y-91340542D02*
X34893571Y-91007209D01*
X35417380Y-90864352D02*
X35417380Y-91340542D01*
X34417380Y-91340542D01*
X34417380Y-90864352D01*
X34750714Y-90578638D02*
X34750714Y-90197685D01*
X34417380Y-90435780D02*
X35274523Y-90435780D01*
X35369761Y-90388161D01*
X35417380Y-90292923D01*
X35417380Y-90197685D01*
X35417380Y-89864352D02*
X34417380Y-89864352D01*
X35417380Y-89435780D02*
X34893571Y-89435780D01*
X34798333Y-89483400D01*
X34750714Y-89578638D01*
X34750714Y-89721495D01*
X34798333Y-89816733D01*
X34845952Y-89864352D01*
X35369761Y-88578638D02*
X35417380Y-88673876D01*
X35417380Y-88864352D01*
X35369761Y-88959590D01*
X35274523Y-89007209D01*
X34893571Y-89007209D01*
X34798333Y-88959590D01*
X34750714Y-88864352D01*
X34750714Y-88673876D01*
X34798333Y-88578638D01*
X34893571Y-88531019D01*
X34988809Y-88531019D01*
X35084047Y-89007209D01*
X35417380Y-88102447D02*
X34750714Y-88102447D01*
X34941190Y-88102447D02*
X34845952Y-88054828D01*
X34798333Y-88007209D01*
X34750714Y-87911971D01*
X34750714Y-87816733D01*
X34750714Y-87483400D02*
X35417380Y-87483400D01*
X34845952Y-87483400D02*
X34798333Y-87435780D01*
X34750714Y-87340542D01*
X34750714Y-87197685D01*
X34798333Y-87102447D01*
X34893571Y-87054828D01*
X35417380Y-87054828D01*
X35369761Y-86197685D02*
X35417380Y-86292923D01*
X35417380Y-86483400D01*
X35369761Y-86578638D01*
X35274523Y-86626257D01*
X34893571Y-86626257D01*
X34798333Y-86578638D01*
X34750714Y-86483400D01*
X34750714Y-86292923D01*
X34798333Y-86197685D01*
X34893571Y-86150066D01*
X34988809Y-86150066D01*
X35084047Y-86626257D01*
X34750714Y-85864352D02*
X34750714Y-85483400D01*
X34417380Y-85721495D02*
X35274523Y-85721495D01*
X35369761Y-85673876D01*
X35417380Y-85578638D01*
X35417380Y-85483400D01*
X19812380Y-93021904D02*
X20621904Y-93021904D01*
X20717142Y-92974285D01*
X20764761Y-92926666D01*
X20812380Y-92831428D01*
X20812380Y-92640952D01*
X20764761Y-92545714D01*
X20717142Y-92498095D01*
X20621904Y-92450476D01*
X19812380Y-92450476D01*
X20764761Y-92021904D02*
X20812380Y-91879047D01*
X20812380Y-91640952D01*
X20764761Y-91545714D01*
X20717142Y-91498095D01*
X20621904Y-91450476D01*
X20526666Y-91450476D01*
X20431428Y-91498095D01*
X20383809Y-91545714D01*
X20336190Y-91640952D01*
X20288571Y-91831428D01*
X20240952Y-91926666D01*
X20193333Y-91974285D01*
X20098095Y-92021904D01*
X20002857Y-92021904D01*
X19907619Y-91974285D01*
X19860000Y-91926666D01*
X19812380Y-91831428D01*
X19812380Y-91593333D01*
X19860000Y-91450476D01*
X20288571Y-90688571D02*
X20336190Y-90545714D01*
X20383809Y-90498095D01*
X20479047Y-90450476D01*
X20621904Y-90450476D01*
X20717142Y-90498095D01*
X20764761Y-90545714D01*
X20812380Y-90640952D01*
X20812380Y-91021904D01*
X19812380Y-91021904D01*
X19812380Y-90688571D01*
X19860000Y-90593333D01*
X19907619Y-90545714D01*
X20002857Y-90498095D01*
X20098095Y-90498095D01*
X20193333Y-90545714D01*
X20240952Y-90593333D01*
X20288571Y-90688571D01*
X20288571Y-91021904D01*
X68040952Y-92212380D02*
X68040952Y-91212380D01*
X68374285Y-91926666D01*
X68707619Y-91212380D01*
X68707619Y-92212380D01*
X69183809Y-92212380D02*
X69183809Y-91545714D01*
X69183809Y-91212380D02*
X69136190Y-91260000D01*
X69183809Y-91307619D01*
X69231428Y-91260000D01*
X69183809Y-91212380D01*
X69183809Y-91307619D01*
X70088571Y-92164761D02*
X69993333Y-92212380D01*
X69802857Y-92212380D01*
X69707619Y-92164761D01*
X69660000Y-92117142D01*
X69612380Y-92021904D01*
X69612380Y-91736190D01*
X69660000Y-91640952D01*
X69707619Y-91593333D01*
X69802857Y-91545714D01*
X69993333Y-91545714D01*
X70088571Y-91593333D01*
X70517142Y-92212380D02*
X70517142Y-91545714D01*
X70517142Y-91736190D02*
X70564761Y-91640952D01*
X70612380Y-91593333D01*
X70707619Y-91545714D01*
X70802857Y-91545714D01*
X71279047Y-92212380D02*
X71183809Y-92164761D01*
X71136190Y-92117142D01*
X71088571Y-92021904D01*
X71088571Y-91736190D01*
X71136190Y-91640952D01*
X71183809Y-91593333D01*
X71279047Y-91545714D01*
X71421904Y-91545714D01*
X71517142Y-91593333D01*
X71564761Y-91640952D01*
X71612380Y-91736190D01*
X71612380Y-92021904D01*
X71564761Y-92117142D01*
X71517142Y-92164761D01*
X71421904Y-92212380D01*
X71279047Y-92212380D01*
X72755238Y-92164761D02*
X72898095Y-92212380D01*
X73136190Y-92212380D01*
X73231428Y-92164761D01*
X73279047Y-92117142D01*
X73326666Y-92021904D01*
X73326666Y-91926666D01*
X73279047Y-91831428D01*
X73231428Y-91783809D01*
X73136190Y-91736190D01*
X72945714Y-91688571D01*
X72850476Y-91640952D01*
X72802857Y-91593333D01*
X72755238Y-91498095D01*
X72755238Y-91402857D01*
X72802857Y-91307619D01*
X72850476Y-91260000D01*
X72945714Y-91212380D01*
X73183809Y-91212380D01*
X73326666Y-91260000D01*
X73755238Y-92212380D02*
X73755238Y-91212380D01*
X73993333Y-91212380D01*
X74136190Y-91260000D01*
X74231428Y-91355238D01*
X74279047Y-91450476D01*
X74326666Y-91640952D01*
X74326666Y-91783809D01*
X74279047Y-91974285D01*
X74231428Y-92069523D01*
X74136190Y-92164761D01*
X73993333Y-92212380D01*
X73755238Y-92212380D01*
X45443333Y-88676666D02*
X46143333Y-88676666D01*
X45643333Y-88910000D01*
X46143333Y-89143333D01*
X45443333Y-89143333D01*
X45443333Y-89476666D02*
X46143333Y-89476666D01*
X45443333Y-89810000D02*
X46143333Y-89810000D01*
X45643333Y-90043333D01*
X46143333Y-90276666D01*
X45443333Y-90276666D01*
X46143333Y-90543333D02*
X45443333Y-91010000D01*
X46143333Y-91010000D02*
X45443333Y-90543333D01*
X45443333Y-91676666D02*
X45776666Y-91443333D01*
X45443333Y-91276666D02*
X46143333Y-91276666D01*
X46143333Y-91543333D01*
X46110000Y-91610000D01*
X46076666Y-91643333D01*
X46010000Y-91676666D01*
X45910000Y-91676666D01*
X45843333Y-91643333D01*
X45810000Y-91610000D01*
X45776666Y-91543333D01*
X45776666Y-91276666D01*
X46143333Y-91876666D02*
X46143333Y-92276666D01*
X45443333Y-92076666D02*
X46143333Y-92076666D01*
X45443333Y-92876666D02*
X45443333Y-92476666D01*
X45443333Y-92676666D02*
X46143333Y-92676666D01*
X46043333Y-92610000D01*
X45976666Y-92543333D01*
X45943333Y-92476666D01*
X46143333Y-93310000D02*
X46143333Y-93376666D01*
X46110000Y-93443333D01*
X46076666Y-93476666D01*
X46010000Y-93510000D01*
X45876666Y-93543333D01*
X45710000Y-93543333D01*
X45576666Y-93510000D01*
X45510000Y-93476666D01*
X45476666Y-93443333D01*
X45443333Y-93376666D01*
X45443333Y-93310000D01*
X45476666Y-93243333D01*
X45510000Y-93210000D01*
X45576666Y-93176666D01*
X45710000Y-93143333D01*
X45876666Y-93143333D01*
X46010000Y-93176666D01*
X46076666Y-93210000D01*
X46110000Y-93243333D01*
X46143333Y-93310000D01*
X46143333Y-94143333D02*
X46143333Y-94010000D01*
X46110000Y-93943333D01*
X46076666Y-93910000D01*
X45976666Y-93843333D01*
X45843333Y-93810000D01*
X45576666Y-93810000D01*
X45510000Y-93843333D01*
X45476666Y-93876666D01*
X45443333Y-93943333D01*
X45443333Y-94076666D01*
X45476666Y-94143333D01*
X45510000Y-94176666D01*
X45576666Y-94210000D01*
X45743333Y-94210000D01*
X45810000Y-94176666D01*
X45843333Y-94143333D01*
X45876666Y-94076666D01*
X45876666Y-93943333D01*
X45843333Y-93876666D01*
X45810000Y-93843333D01*
X45743333Y-93810000D01*
X46076666Y-94476666D02*
X46110000Y-94510000D01*
X46143333Y-94576666D01*
X46143333Y-94743333D01*
X46110000Y-94810000D01*
X46076666Y-94843333D01*
X46010000Y-94876666D01*
X45943333Y-94876666D01*
X45843333Y-94843333D01*
X45443333Y-94443333D01*
X45443333Y-94876666D01*
X44173333Y-90196666D02*
X44873333Y-90196666D01*
X44873333Y-90363333D01*
X44840000Y-90463333D01*
X44773333Y-90530000D01*
X44706666Y-90563333D01*
X44573333Y-90596666D01*
X44473333Y-90596666D01*
X44340000Y-90563333D01*
X44273333Y-90530000D01*
X44206666Y-90463333D01*
X44173333Y-90363333D01*
X44173333Y-90196666D01*
X44873333Y-90796666D02*
X44173333Y-91030000D01*
X44873333Y-91263333D01*
X44873333Y-91696666D02*
X44373333Y-91696666D01*
X44273333Y-91663333D01*
X44206666Y-91596666D01*
X44173333Y-91496666D01*
X44173333Y-91430000D01*
X44873333Y-92330000D02*
X44873333Y-92196666D01*
X44840000Y-92130000D01*
X44806666Y-92096666D01*
X44706666Y-92030000D01*
X44573333Y-91996666D01*
X44306666Y-91996666D01*
X44240000Y-92030000D01*
X44206666Y-92063333D01*
X44173333Y-92130000D01*
X44173333Y-92263333D01*
X44206666Y-92330000D01*
X44240000Y-92363333D01*
X44306666Y-92396666D01*
X44473333Y-92396666D01*
X44540000Y-92363333D01*
X44573333Y-92330000D01*
X44606666Y-92263333D01*
X44606666Y-92130000D01*
X44573333Y-92063333D01*
X44540000Y-92030000D01*
X44473333Y-91996666D01*
X44373333Y-92663333D02*
X44373333Y-92996666D01*
X44173333Y-92596666D02*
X44873333Y-92830000D01*
X44173333Y-93063333D01*
%TD*%
M02*
