%TF.GenerationSoftware,KiCad,Pcbnew,5.1.8-db9833491~87~ubuntu20.04.1*%
%TF.CreationDate,2020-11-22T18:04:31+08:00*%
%TF.ProjectId,mobo,6d6f626f-2e6b-4696-9361-645f70636258,rev?*%
%TF.SameCoordinates,Original*%
%TF.FileFunction,Paste,Top*%
%TF.FilePolarity,Positive*%
%FSLAX46Y46*%
G04 Gerber Fmt 4.6, Leading zero omitted, Abs format (unit mm)*
G04 Created by KiCad (PCBNEW 5.1.8-db9833491~87~ubuntu20.04.1) date 2020-11-22 18:04:31*
%MOMM*%
%LPD*%
G01*
G04 APERTURE LIST*
%ADD10R,2.200000X2.800000*%
%ADD11R,2.800000X2.800000*%
G04 APERTURE END LIST*
%TO.C,R3*%
G36*
G01*
X70300000Y-16775000D02*
X70300000Y-18025000D01*
G75*
G02*
X70050000Y-18275000I-250000J0D01*
G01*
X69250000Y-18275000D01*
G75*
G02*
X69000000Y-18025000I0J250000D01*
G01*
X69000000Y-16775000D01*
G75*
G02*
X69250000Y-16525000I250000J0D01*
G01*
X70050000Y-16525000D01*
G75*
G02*
X70300000Y-16775000I0J-250000D01*
G01*
G37*
G36*
G01*
X73400000Y-16775000D02*
X73400000Y-18025000D01*
G75*
G02*
X73150000Y-18275000I-250000J0D01*
G01*
X72350000Y-18275000D01*
G75*
G02*
X72100000Y-18025000I0J250000D01*
G01*
X72100000Y-16775000D01*
G75*
G02*
X72350000Y-16525000I250000J0D01*
G01*
X73150000Y-16525000D01*
G75*
G02*
X73400000Y-16775000I0J-250000D01*
G01*
G37*
%TD*%
%TO.C,D3*%
G36*
G01*
X70435000Y-19375000D02*
X70435000Y-20625000D01*
G75*
G02*
X70185000Y-20875000I-250000J0D01*
G01*
X69260000Y-20875000D01*
G75*
G02*
X69010000Y-20625000I0J250000D01*
G01*
X69010000Y-19375000D01*
G75*
G02*
X69260000Y-19125000I250000J0D01*
G01*
X70185000Y-19125000D01*
G75*
G02*
X70435000Y-19375000I0J-250000D01*
G01*
G37*
G36*
G01*
X73410000Y-19375000D02*
X73410000Y-20625000D01*
G75*
G02*
X73160000Y-20875000I-250000J0D01*
G01*
X72235000Y-20875000D01*
G75*
G02*
X71985000Y-20625000I0J250000D01*
G01*
X71985000Y-19375000D01*
G75*
G02*
X72235000Y-19125000I250000J0D01*
G01*
X73160000Y-19125000D01*
G75*
G02*
X73410000Y-19375000I0J-250000D01*
G01*
G37*
%TD*%
%TO.C,R2*%
G36*
G01*
X70350000Y-24375000D02*
X70350000Y-25625000D01*
G75*
G02*
X70100000Y-25875000I-250000J0D01*
G01*
X69300000Y-25875000D01*
G75*
G02*
X69050000Y-25625000I0J250000D01*
G01*
X69050000Y-24375000D01*
G75*
G02*
X69300000Y-24125000I250000J0D01*
G01*
X70100000Y-24125000D01*
G75*
G02*
X70350000Y-24375000I0J-250000D01*
G01*
G37*
G36*
G01*
X73450000Y-24375000D02*
X73450000Y-25625000D01*
G75*
G02*
X73200000Y-25875000I-250000J0D01*
G01*
X72400000Y-25875000D01*
G75*
G02*
X72150000Y-25625000I0J250000D01*
G01*
X72150000Y-24375000D01*
G75*
G02*
X72400000Y-24125000I250000J0D01*
G01*
X73200000Y-24125000D01*
G75*
G02*
X73450000Y-24375000I0J-250000D01*
G01*
G37*
%TD*%
%TO.C,R1*%
G36*
G01*
X70300000Y-32075000D02*
X70300000Y-33325000D01*
G75*
G02*
X70050000Y-33575000I-250000J0D01*
G01*
X69250000Y-33575000D01*
G75*
G02*
X69000000Y-33325000I0J250000D01*
G01*
X69000000Y-32075000D01*
G75*
G02*
X69250000Y-31825000I250000J0D01*
G01*
X70050000Y-31825000D01*
G75*
G02*
X70300000Y-32075000I0J-250000D01*
G01*
G37*
G36*
G01*
X73400000Y-32075000D02*
X73400000Y-33325000D01*
G75*
G02*
X73150000Y-33575000I-250000J0D01*
G01*
X72350000Y-33575000D01*
G75*
G02*
X72100000Y-33325000I0J250000D01*
G01*
X72100000Y-32075000D01*
G75*
G02*
X72350000Y-31825000I250000J0D01*
G01*
X73150000Y-31825000D01*
G75*
G02*
X73400000Y-32075000I0J-250000D01*
G01*
G37*
%TD*%
%TO.C,D2*%
G36*
G01*
X70425000Y-26985000D02*
X70425000Y-28235000D01*
G75*
G02*
X70175000Y-28485000I-250000J0D01*
G01*
X69250000Y-28485000D01*
G75*
G02*
X69000000Y-28235000I0J250000D01*
G01*
X69000000Y-26985000D01*
G75*
G02*
X69250000Y-26735000I250000J0D01*
G01*
X70175000Y-26735000D01*
G75*
G02*
X70425000Y-26985000I0J-250000D01*
G01*
G37*
G36*
G01*
X73400000Y-26985000D02*
X73400000Y-28235000D01*
G75*
G02*
X73150000Y-28485000I-250000J0D01*
G01*
X72225000Y-28485000D01*
G75*
G02*
X71975000Y-28235000I0J250000D01*
G01*
X71975000Y-26985000D01*
G75*
G02*
X72225000Y-26735000I250000J0D01*
G01*
X73150000Y-26735000D01*
G75*
G02*
X73400000Y-26985000I0J-250000D01*
G01*
G37*
%TD*%
%TO.C,D1*%
G36*
G01*
X70525000Y-34675000D02*
X70525000Y-35925000D01*
G75*
G02*
X70275000Y-36175000I-250000J0D01*
G01*
X69350000Y-36175000D01*
G75*
G02*
X69100000Y-35925000I0J250000D01*
G01*
X69100000Y-34675000D01*
G75*
G02*
X69350000Y-34425000I250000J0D01*
G01*
X70275000Y-34425000D01*
G75*
G02*
X70525000Y-34675000I0J-250000D01*
G01*
G37*
G36*
G01*
X73500000Y-34675000D02*
X73500000Y-35925000D01*
G75*
G02*
X73250000Y-36175000I-250000J0D01*
G01*
X72325000Y-36175000D01*
G75*
G02*
X72075000Y-35925000I0J250000D01*
G01*
X72075000Y-34675000D01*
G75*
G02*
X72325000Y-34425000I250000J0D01*
G01*
X73250000Y-34425000D01*
G75*
G02*
X73500000Y-34675000I0J-250000D01*
G01*
G37*
%TD*%
D10*
%TO.C,J3*%
X21900000Y-28000000D03*
X19900000Y-35400000D03*
D11*
X29300000Y-35400000D03*
%TD*%
D10*
%TO.C,J2*%
X21800000Y-15700000D03*
X19800000Y-23100000D03*
D11*
X29200000Y-23100000D03*
%TD*%
M02*
