M48
; DRILL file {KiCad 5.1.8-db9833491~87~ubuntu20.04.1} date Sun Nov 22 18:04:33 2020
; FORMAT={-:-/ absolute / inch / decimal}
; #@! TF.CreationDate,2020-11-22T18:04:33+08:00
; #@! TF.GenerationSoftware,Kicad,Pcbnew,5.1.8-db9833491~87~ubuntu20.04.1
; #@! TF.FileFunction,Plated,1,2,PTH
FMAT,2
INCH
T1C0.0118
T2C0.0197
T3C0.0315
T4C0.0374
T5C0.0394
T6C0.0433
T7C0.0906
T8C0.1181
%
G90
G05
T1
X0.8661Y-0.9252
X0.8661Y-1.3976
X1.1496Y-2.3346
X1.1535Y-2.4724
X1.1929Y-2.3661
X1.1929Y-2.5
X1.252Y-2.5669
X1.2559Y-2.4331
X1.2835Y-3.1732
X1.3031Y-3.2126
X1.311Y-3.1457
X1.9843Y-3.8465
X2.6811Y-0.6811
X2.6811Y-0.9843
X2.6811Y-1.2874
T2
X0.7677Y-2.8543
X1.4961Y-2.5394
X2.2244Y-1.5551
T3
X0.7303Y-3.5626
X0.7303Y-3.6626
X1.2122Y-3.4086
X1.2122Y-3.4873
X1.2122Y-3.5661
X1.2909Y-3.4086
X1.2909Y-3.4873
X1.2909Y-3.5661
X0.9213Y-2.2087
X0.9213Y-2.2874
X0.9213Y-2.3661
X0.9213Y-2.4449
T4
X1.0906Y-2.752
X1.0906Y-2.8504
X1.0906Y-2.9291
X1.0906Y-3.0276
T5
X1.0315Y-4.1457
X1.1315Y-4.1457
X1.2315Y-4.1457
X1.3315Y-4.1457
X1.4315Y-4.1457
X1.5315Y-4.1457
X1.6315Y-4.1457
X1.7315Y-4.1457
X1.8315Y-4.1457
X1.9315Y-4.1457
X2.0315Y-4.1457
X2.1315Y-4.1457
X2.2315Y-4.1457
X2.3315Y-4.1457
X2.4315Y-4.1457
X2.5315Y-4.1457
X2.6315Y-4.1457
X1.0213Y-1.5969
X1.0213Y-1.6969
X1.0213Y-1.7969
X1.0213Y-1.8969
X1.0213Y-1.9969
X1.5106Y-0.9429
X1.5106Y-1.0429
X1.5106Y-1.1429
X1.5106Y-1.2429
X1.5106Y-1.3429
X1.5106Y-1.4429
X1.5106Y-1.5429
X1.5106Y-1.6429
X1.5106Y-1.7429
X1.5106Y-1.8429
X1.5106Y-1.9429
X1.5106Y-2.0429
X1.5106Y-2.1429
X1.5106Y-2.2429
X1.5106Y-2.3429
X1.5106Y-2.4429
X2.4106Y-0.9429
X2.4106Y-1.0429
X2.4106Y-1.1429
X2.4106Y-1.2429
X2.4106Y-1.3429
X2.4106Y-1.4429
X2.4106Y-1.5429
X2.4106Y-1.6429
X2.4106Y-1.7429
X2.4106Y-1.8429
X2.4106Y-1.9429
X2.4106Y-2.0429
X2.4106Y-2.1429
X2.4106Y-2.2429
X2.4106Y-2.3429
X2.4106Y-2.4429
T6
X2.7362Y-2.0079
X2.7362Y-2.2638
X2.9134Y-2.0079
X2.9134Y-2.2638
X0.7016Y-3.3126
X0.7016Y-3.9126
X0.8016Y-3.3126
X0.8016Y-3.4126
X0.8016Y-3.9126
X0.9016Y-3.3126
X0.9016Y-3.9126
X0.9496Y-3.7925
X1.0016Y-3.3126
X1.0016Y-3.9126
X1.0496Y-3.7925
X1.1016Y-3.3126
X1.1016Y-3.9126
X1.1496Y-3.7925
X1.2016Y-3.3126
X1.2016Y-3.9126
X1.2496Y-3.7925
X1.3016Y-3.3126
X1.3016Y-3.9126
X1.3496Y-3.7925
X1.4016Y-3.3126
X1.4016Y-3.9126
X1.5016Y-3.3126
X1.5016Y-3.9126
X1.6016Y-3.3126
X1.6016Y-3.9126
X1.7016Y-3.3126
X1.7016Y-3.9126
X1.8016Y-3.3126
X1.8016Y-3.9126
X1.9016Y-3.3126
X1.9016Y-3.9126
X2.0016Y-3.3126
X2.0016Y-3.9126
X2.1016Y-3.3126
X2.1016Y-3.9126
X2.2016Y-3.3126
X2.2016Y-3.9126
X2.3016Y-3.3126
X2.3016Y-3.9126
X2.4016Y-3.3126
X2.4016Y-3.9126
X2.5016Y-3.3126
X2.5016Y-3.4126
X2.5016Y-3.5126
X2.5016Y-3.6126
X2.5016Y-3.7126
X2.5016Y-3.8126
X2.5016Y-3.9126
X2.6016Y-3.3126
X2.6016Y-3.9126
X2.7016Y-3.3126
X2.7016Y-3.9126
X2.8016Y-3.3126
X2.8016Y-3.9126
X2.9016Y-3.3126
X2.9016Y-3.9126
X3.0016Y-3.3126
X3.0016Y-3.9126
X2.7362Y-2.874
X2.7362Y-3.1299
X2.9134Y-2.874
X2.9134Y-3.1299
X2.7362Y-2.4409
X2.7362Y-2.6969
X2.9134Y-2.4409
X2.9134Y-2.6969
X2.7362Y-1.5748
X2.7362Y-1.8307
X2.9134Y-1.5748
X2.9134Y-1.8307
T7
X0.9839Y-2.6311
X0.9839Y-3.1484
T8
X1.5406Y-0.6979
X1.5406Y-2.6879
X2.3806Y-0.6979
X2.3806Y-2.6879
T0
M30
