%TF.GenerationSoftware,KiCad,Pcbnew,5.1.8-db9833491~87~ubuntu20.04.1*%
%TF.CreationDate,2020-11-22T18:04:31+08:00*%
%TF.ProjectId,mobo,6d6f626f-2e6b-4696-9361-645f70636258,rev?*%
%TF.SameCoordinates,Original*%
%TF.FileFunction,Soldermask,Top*%
%TF.FilePolarity,Negative*%
%FSLAX46Y46*%
G04 Gerber Fmt 4.6, Leading zero omitted, Abs format (unit mm)*
G04 Created by KiCad (PCBNEW 5.1.8-db9833491~87~ubuntu20.04.1) date 2020-11-22 18:04:31*
%MOMM*%
%LPD*%
G01*
G04 APERTURE LIST*
%ADD10O,1.700000X1.700000*%
%ADD11R,1.700000X1.700000*%
%ADD12C,2.000000*%
%ADD13C,3.200000*%
%ADD14O,1.350000X1.350000*%
%ADD15R,1.350000X1.350000*%
%ADD16R,2.200000X2.800000*%
%ADD17R,2.800000X2.800000*%
%ADD18C,1.700000*%
%ADD19C,1.600000*%
%ADD20R,1.500000X1.600000*%
%ADD21C,3.000000*%
%ADD22C,4.000000*%
%ADD23C,1.300000*%
%ADD24R,1.300000X1.300000*%
%ADD25R,1.600000X1.600000*%
G04 APERTURE END LIST*
%TO.C,R3*%
G36*
G01*
X70300000Y-16775000D02*
X70300000Y-18025000D01*
G75*
G02*
X70050000Y-18275000I-250000J0D01*
G01*
X69250000Y-18275000D01*
G75*
G02*
X69000000Y-18025000I0J250000D01*
G01*
X69000000Y-16775000D01*
G75*
G02*
X69250000Y-16525000I250000J0D01*
G01*
X70050000Y-16525000D01*
G75*
G02*
X70300000Y-16775000I0J-250000D01*
G01*
G37*
G36*
G01*
X73400000Y-16775000D02*
X73400000Y-18025000D01*
G75*
G02*
X73150000Y-18275000I-250000J0D01*
G01*
X72350000Y-18275000D01*
G75*
G02*
X72100000Y-18025000I0J250000D01*
G01*
X72100000Y-16775000D01*
G75*
G02*
X72350000Y-16525000I250000J0D01*
G01*
X73150000Y-16525000D01*
G75*
G02*
X73400000Y-16775000I0J-250000D01*
G01*
G37*
%TD*%
%TO.C,D3*%
G36*
G01*
X70435000Y-19375000D02*
X70435000Y-20625000D01*
G75*
G02*
X70185000Y-20875000I-250000J0D01*
G01*
X69260000Y-20875000D01*
G75*
G02*
X69010000Y-20625000I0J250000D01*
G01*
X69010000Y-19375000D01*
G75*
G02*
X69260000Y-19125000I250000J0D01*
G01*
X70185000Y-19125000D01*
G75*
G02*
X70435000Y-19375000I0J-250000D01*
G01*
G37*
G36*
G01*
X73410000Y-19375000D02*
X73410000Y-20625000D01*
G75*
G02*
X73160000Y-20875000I-250000J0D01*
G01*
X72235000Y-20875000D01*
G75*
G02*
X71985000Y-20625000I0J250000D01*
G01*
X71985000Y-19375000D01*
G75*
G02*
X72235000Y-19125000I250000J0D01*
G01*
X73160000Y-19125000D01*
G75*
G02*
X73410000Y-19375000I0J-250000D01*
G01*
G37*
%TD*%
%TO.C,R2*%
G36*
G01*
X70350000Y-24375000D02*
X70350000Y-25625000D01*
G75*
G02*
X70100000Y-25875000I-250000J0D01*
G01*
X69300000Y-25875000D01*
G75*
G02*
X69050000Y-25625000I0J250000D01*
G01*
X69050000Y-24375000D01*
G75*
G02*
X69300000Y-24125000I250000J0D01*
G01*
X70100000Y-24125000D01*
G75*
G02*
X70350000Y-24375000I0J-250000D01*
G01*
G37*
G36*
G01*
X73450000Y-24375000D02*
X73450000Y-25625000D01*
G75*
G02*
X73200000Y-25875000I-250000J0D01*
G01*
X72400000Y-25875000D01*
G75*
G02*
X72150000Y-25625000I0J250000D01*
G01*
X72150000Y-24375000D01*
G75*
G02*
X72400000Y-24125000I250000J0D01*
G01*
X73200000Y-24125000D01*
G75*
G02*
X73450000Y-24375000I0J-250000D01*
G01*
G37*
%TD*%
%TO.C,R1*%
G36*
G01*
X70300000Y-32075000D02*
X70300000Y-33325000D01*
G75*
G02*
X70050000Y-33575000I-250000J0D01*
G01*
X69250000Y-33575000D01*
G75*
G02*
X69000000Y-33325000I0J250000D01*
G01*
X69000000Y-32075000D01*
G75*
G02*
X69250000Y-31825000I250000J0D01*
G01*
X70050000Y-31825000D01*
G75*
G02*
X70300000Y-32075000I0J-250000D01*
G01*
G37*
G36*
G01*
X73400000Y-32075000D02*
X73400000Y-33325000D01*
G75*
G02*
X73150000Y-33575000I-250000J0D01*
G01*
X72350000Y-33575000D01*
G75*
G02*
X72100000Y-33325000I0J250000D01*
G01*
X72100000Y-32075000D01*
G75*
G02*
X72350000Y-31825000I250000J0D01*
G01*
X73150000Y-31825000D01*
G75*
G02*
X73400000Y-32075000I0J-250000D01*
G01*
G37*
%TD*%
%TO.C,D2*%
G36*
G01*
X70425000Y-26985000D02*
X70425000Y-28235000D01*
G75*
G02*
X70175000Y-28485000I-250000J0D01*
G01*
X69250000Y-28485000D01*
G75*
G02*
X69000000Y-28235000I0J250000D01*
G01*
X69000000Y-26985000D01*
G75*
G02*
X69250000Y-26735000I250000J0D01*
G01*
X70175000Y-26735000D01*
G75*
G02*
X70425000Y-26985000I0J-250000D01*
G01*
G37*
G36*
G01*
X73400000Y-26985000D02*
X73400000Y-28235000D01*
G75*
G02*
X73150000Y-28485000I-250000J0D01*
G01*
X72225000Y-28485000D01*
G75*
G02*
X71975000Y-28235000I0J250000D01*
G01*
X71975000Y-26985000D01*
G75*
G02*
X72225000Y-26735000I250000J0D01*
G01*
X73150000Y-26735000D01*
G75*
G02*
X73400000Y-26985000I0J-250000D01*
G01*
G37*
%TD*%
%TO.C,D1*%
G36*
G01*
X70525000Y-34675000D02*
X70525000Y-35925000D01*
G75*
G02*
X70275000Y-36175000I-250000J0D01*
G01*
X69350000Y-36175000D01*
G75*
G02*
X69100000Y-35925000I0J250000D01*
G01*
X69100000Y-34675000D01*
G75*
G02*
X69350000Y-34425000I250000J0D01*
G01*
X70275000Y-34425000D01*
G75*
G02*
X70525000Y-34675000I0J-250000D01*
G01*
G37*
G36*
G01*
X73500000Y-34675000D02*
X73500000Y-35925000D01*
G75*
G02*
X73250000Y-36175000I-250000J0D01*
G01*
X72325000Y-36175000D01*
G75*
G02*
X72075000Y-35925000I0J250000D01*
G01*
X72075000Y-34675000D01*
G75*
G02*
X72325000Y-34425000I250000J0D01*
G01*
X73250000Y-34425000D01*
G75*
G02*
X73500000Y-34675000I0J-250000D01*
G01*
G37*
%TD*%
D10*
%TO.C,J6*%
X66840000Y-105300000D03*
X64300000Y-105300000D03*
X61760000Y-105300000D03*
X59220000Y-105300000D03*
X56680000Y-105300000D03*
X54140000Y-105300000D03*
X51600000Y-105300000D03*
X49060000Y-105300000D03*
X46520000Y-105300000D03*
X43980000Y-105300000D03*
X41440000Y-105300000D03*
X38900000Y-105300000D03*
X36360000Y-105300000D03*
X33820000Y-105300000D03*
X31280000Y-105300000D03*
X28740000Y-105300000D03*
D11*
X26200000Y-105300000D03*
%TD*%
D12*
%TO.C,SW4*%
X74000000Y-46500000D03*
X69500000Y-46500000D03*
X74000000Y-40000000D03*
X69500000Y-40000000D03*
%TD*%
D13*
%TO.C,H4*%
X74000000Y-104000000D03*
%TD*%
%TO.C,H3*%
X74000000Y-10000000D03*
%TD*%
%TO.C,H2*%
X18000000Y-104000000D03*
%TD*%
%TO.C,H1*%
X18000000Y-10000000D03*
%TD*%
D10*
%TO.C,J5*%
X25940000Y-40560000D03*
X25940000Y-43100000D03*
X25940000Y-45640000D03*
X25940000Y-48180000D03*
D11*
X25940000Y-50720000D03*
%TD*%
D14*
%TO.C,J4*%
X23400000Y-56100000D03*
X23400000Y-58100000D03*
X23400000Y-60100000D03*
D15*
X23400000Y-62100000D03*
%TD*%
D12*
%TO.C,SW3*%
X74000000Y-57500000D03*
X69500000Y-57500000D03*
X74000000Y-51000000D03*
X69500000Y-51000000D03*
%TD*%
%TO.C,SW2*%
X74000000Y-68500000D03*
X69500000Y-68500000D03*
X74000000Y-62000000D03*
X69500000Y-62000000D03*
%TD*%
%TO.C,SW1*%
X74000000Y-79500000D03*
X69500000Y-79500000D03*
X74000000Y-73000000D03*
X69500000Y-73000000D03*
%TD*%
D16*
%TO.C,J3*%
X21900000Y-28000000D03*
X19900000Y-35400000D03*
D17*
X29300000Y-35400000D03*
D18*
X21000000Y-31700000D03*
X28000000Y-31700000D03*
%TD*%
D16*
%TO.C,J2*%
X21800000Y-15700000D03*
X19800000Y-23100000D03*
D17*
X29200000Y-23100000D03*
D18*
X20900000Y-19400000D03*
X27900000Y-19400000D03*
%TD*%
D19*
%TO.C,J1*%
X27700000Y-76900000D03*
X27700000Y-74400000D03*
X27700000Y-72400000D03*
D20*
X27700000Y-69900000D03*
D21*
X24990000Y-79970000D03*
X24990000Y-66830000D03*
%TD*%
D18*
%TO.C,U2*%
X38370000Y-23950000D03*
X38370000Y-26490000D03*
X38370000Y-29030000D03*
X38370000Y-31570000D03*
X38370000Y-34110000D03*
X38370000Y-36650000D03*
X38370000Y-39190000D03*
X38370000Y-41730000D03*
X38370000Y-44270000D03*
X38370000Y-46810000D03*
X38370000Y-49350000D03*
X38370000Y-51890000D03*
X38370000Y-54430000D03*
X38370000Y-56970000D03*
X38370000Y-59510000D03*
X38370000Y-62050000D03*
X61230000Y-23950000D03*
X61230000Y-26490000D03*
X61230000Y-29030000D03*
X61230000Y-31570000D03*
X61230000Y-34110000D03*
X61230000Y-36650000D03*
X61230000Y-39190000D03*
X61230000Y-41730000D03*
X61230000Y-44270000D03*
X61230000Y-46810000D03*
X61230000Y-49350000D03*
X61230000Y-51890000D03*
X61230000Y-54430000D03*
X61230000Y-56970000D03*
X61230000Y-59510000D03*
X61230000Y-62050000D03*
D22*
X39132000Y-17727000D03*
X39132000Y-68273000D03*
X60468000Y-17727000D03*
X60468000Y-68273000D03*
%TD*%
D23*
%TO.C,U1*%
X18550000Y-90490000D03*
X18550000Y-93030000D03*
D19*
X63540000Y-86680000D03*
X63540000Y-89220000D03*
X63540000Y-91760000D03*
X63540000Y-94300000D03*
X63540000Y-96840000D03*
D23*
X30790000Y-90578400D03*
X32790000Y-90578400D03*
X32790000Y-88578400D03*
X30790000Y-88578400D03*
X32790000Y-86578400D03*
D24*
X30790000Y-86578400D03*
D19*
X58460000Y-99380000D03*
X61000000Y-99380000D03*
X63540000Y-99380000D03*
X66080000Y-99380000D03*
X55920000Y-99380000D03*
X53380000Y-99380000D03*
X50840000Y-99380000D03*
X68620000Y-99380000D03*
X71160000Y-99380000D03*
X73700000Y-99380000D03*
X76240000Y-99380000D03*
X76240000Y-84140000D03*
X73700000Y-84140000D03*
X71160000Y-84140000D03*
X68620000Y-84140000D03*
X66080000Y-84140000D03*
X63540000Y-84140000D03*
X61000000Y-84140000D03*
X58460000Y-84140000D03*
X55920000Y-84140000D03*
X53380000Y-84140000D03*
X48300000Y-99380000D03*
X45760000Y-99380000D03*
X43220000Y-99380000D03*
X40680000Y-99380000D03*
X38140000Y-99380000D03*
X35600000Y-99380000D03*
X33060000Y-99380000D03*
X30520000Y-99380000D03*
X27980000Y-99380000D03*
X25440000Y-99380000D03*
X22900000Y-99380000D03*
X20360000Y-99380000D03*
D25*
X17820000Y-99380000D03*
D19*
X50840000Y-84140000D03*
X48300000Y-84140000D03*
X45760000Y-84140000D03*
X43220000Y-84140000D03*
X40680000Y-84140000D03*
X38140000Y-84140000D03*
X35600000Y-84140000D03*
X33060000Y-84140000D03*
X30520000Y-84140000D03*
X27980000Y-84140000D03*
X25440000Y-84140000D03*
X22900000Y-84140000D03*
X20360000Y-84140000D03*
X17820000Y-84140000D03*
D25*
X24119200Y-96329200D03*
D19*
X26659200Y-96329200D03*
X29199200Y-96329200D03*
X31739200Y-96329200D03*
X34279200Y-96329200D03*
X20360000Y-86680000D03*
%TD*%
M02*
