%TF.GenerationSoftware,KiCad,Pcbnew,5.1.8-db9833491~87~ubuntu20.04.1*%
%TF.CreationDate,2020-11-22T18:04:31+08:00*%
%TF.ProjectId,mobo,6d6f626f-2e6b-4696-9361-645f70636258,rev?*%
%TF.SameCoordinates,Original*%
%TF.FileFunction,Soldermask,Bot*%
%TF.FilePolarity,Negative*%
%FSLAX46Y46*%
G04 Gerber Fmt 4.6, Leading zero omitted, Abs format (unit mm)*
G04 Created by KiCad (PCBNEW 5.1.8-db9833491~87~ubuntu20.04.1) date 2020-11-22 18:04:31*
%MOMM*%
%LPD*%
G01*
G04 APERTURE LIST*
%ADD10O,1.700000X1.700000*%
%ADD11R,1.700000X1.700000*%
%ADD12C,2.000000*%
%ADD13C,3.200000*%
%ADD14O,1.350000X1.350000*%
%ADD15R,1.350000X1.350000*%
%ADD16C,1.700000*%
%ADD17C,1.600000*%
%ADD18R,1.500000X1.600000*%
%ADD19C,3.000000*%
%ADD20C,4.000000*%
%ADD21C,1.300000*%
%ADD22R,1.300000X1.300000*%
%ADD23R,1.600000X1.600000*%
G04 APERTURE END LIST*
D10*
%TO.C,J6*%
X66840000Y-105300000D03*
X64300000Y-105300000D03*
X61760000Y-105300000D03*
X59220000Y-105300000D03*
X56680000Y-105300000D03*
X54140000Y-105300000D03*
X51600000Y-105300000D03*
X49060000Y-105300000D03*
X46520000Y-105300000D03*
X43980000Y-105300000D03*
X41440000Y-105300000D03*
X38900000Y-105300000D03*
X36360000Y-105300000D03*
X33820000Y-105300000D03*
X31280000Y-105300000D03*
X28740000Y-105300000D03*
D11*
X26200000Y-105300000D03*
%TD*%
D12*
%TO.C,SW4*%
X74000000Y-46500000D03*
X69500000Y-46500000D03*
X74000000Y-40000000D03*
X69500000Y-40000000D03*
%TD*%
D13*
%TO.C,H4*%
X74000000Y-104000000D03*
%TD*%
%TO.C,H3*%
X74000000Y-10000000D03*
%TD*%
%TO.C,H2*%
X18000000Y-104000000D03*
%TD*%
%TO.C,H1*%
X18000000Y-10000000D03*
%TD*%
D10*
%TO.C,J5*%
X25940000Y-40560000D03*
X25940000Y-43100000D03*
X25940000Y-45640000D03*
X25940000Y-48180000D03*
D11*
X25940000Y-50720000D03*
%TD*%
D14*
%TO.C,J4*%
X23400000Y-56100000D03*
X23400000Y-58100000D03*
X23400000Y-60100000D03*
D15*
X23400000Y-62100000D03*
%TD*%
D12*
%TO.C,SW3*%
X74000000Y-57500000D03*
X69500000Y-57500000D03*
X74000000Y-51000000D03*
X69500000Y-51000000D03*
%TD*%
%TO.C,SW2*%
X74000000Y-68500000D03*
X69500000Y-68500000D03*
X74000000Y-62000000D03*
X69500000Y-62000000D03*
%TD*%
%TO.C,SW1*%
X74000000Y-79500000D03*
X69500000Y-79500000D03*
X74000000Y-73000000D03*
X69500000Y-73000000D03*
%TD*%
D16*
%TO.C,J3*%
X21000000Y-31700000D03*
X28000000Y-31700000D03*
%TD*%
%TO.C,J2*%
X20900000Y-19400000D03*
X27900000Y-19400000D03*
%TD*%
D17*
%TO.C,J1*%
X27700000Y-76900000D03*
X27700000Y-74400000D03*
X27700000Y-72400000D03*
D18*
X27700000Y-69900000D03*
D19*
X24990000Y-79970000D03*
X24990000Y-66830000D03*
%TD*%
D16*
%TO.C,U2*%
X38370000Y-23950000D03*
X38370000Y-26490000D03*
X38370000Y-29030000D03*
X38370000Y-31570000D03*
X38370000Y-34110000D03*
X38370000Y-36650000D03*
X38370000Y-39190000D03*
X38370000Y-41730000D03*
X38370000Y-44270000D03*
X38370000Y-46810000D03*
X38370000Y-49350000D03*
X38370000Y-51890000D03*
X38370000Y-54430000D03*
X38370000Y-56970000D03*
X38370000Y-59510000D03*
X38370000Y-62050000D03*
X61230000Y-23950000D03*
X61230000Y-26490000D03*
X61230000Y-29030000D03*
X61230000Y-31570000D03*
X61230000Y-34110000D03*
X61230000Y-36650000D03*
X61230000Y-39190000D03*
X61230000Y-41730000D03*
X61230000Y-44270000D03*
X61230000Y-46810000D03*
X61230000Y-49350000D03*
X61230000Y-51890000D03*
X61230000Y-54430000D03*
X61230000Y-56970000D03*
X61230000Y-59510000D03*
X61230000Y-62050000D03*
D20*
X39132000Y-17727000D03*
X39132000Y-68273000D03*
X60468000Y-17727000D03*
X60468000Y-68273000D03*
%TD*%
D21*
%TO.C,U1*%
X18550000Y-90490000D03*
X18550000Y-93030000D03*
D17*
X63540000Y-86680000D03*
X63540000Y-89220000D03*
X63540000Y-91760000D03*
X63540000Y-94300000D03*
X63540000Y-96840000D03*
D21*
X30790000Y-90578400D03*
X32790000Y-90578400D03*
X32790000Y-88578400D03*
X30790000Y-88578400D03*
X32790000Y-86578400D03*
D22*
X30790000Y-86578400D03*
D17*
X58460000Y-99380000D03*
X61000000Y-99380000D03*
X63540000Y-99380000D03*
X66080000Y-99380000D03*
X55920000Y-99380000D03*
X53380000Y-99380000D03*
X50840000Y-99380000D03*
X68620000Y-99380000D03*
X71160000Y-99380000D03*
X73700000Y-99380000D03*
X76240000Y-99380000D03*
X76240000Y-84140000D03*
X73700000Y-84140000D03*
X71160000Y-84140000D03*
X68620000Y-84140000D03*
X66080000Y-84140000D03*
X63540000Y-84140000D03*
X61000000Y-84140000D03*
X58460000Y-84140000D03*
X55920000Y-84140000D03*
X53380000Y-84140000D03*
X48300000Y-99380000D03*
X45760000Y-99380000D03*
X43220000Y-99380000D03*
X40680000Y-99380000D03*
X38140000Y-99380000D03*
X35600000Y-99380000D03*
X33060000Y-99380000D03*
X30520000Y-99380000D03*
X27980000Y-99380000D03*
X25440000Y-99380000D03*
X22900000Y-99380000D03*
X20360000Y-99380000D03*
D23*
X17820000Y-99380000D03*
D17*
X50840000Y-84140000D03*
X48300000Y-84140000D03*
X45760000Y-84140000D03*
X43220000Y-84140000D03*
X40680000Y-84140000D03*
X38140000Y-84140000D03*
X35600000Y-84140000D03*
X33060000Y-84140000D03*
X30520000Y-84140000D03*
X27980000Y-84140000D03*
X25440000Y-84140000D03*
X22900000Y-84140000D03*
X20360000Y-84140000D03*
X17820000Y-84140000D03*
D23*
X24119200Y-96329200D03*
D17*
X26659200Y-96329200D03*
X29199200Y-96329200D03*
X31739200Y-96329200D03*
X34279200Y-96329200D03*
X20360000Y-86680000D03*
%TD*%
M02*
